<?xml version="1.0" encoding="utf-8"?>
<!-- Generator: Adobe Illustrator 28.2.0, SVG Export Plug-In . SVG Version: 6.00 Build 0)  -->
<svg version="1.1" id="Шар_1" xmlns="http://www.w3.org/2000/svg" xmlns:xlink="http://www.w3.org/1999/xlink" x="0px" y="0px"
	 viewBox="0 0 1080 1080" style="enable-background:new 0 0 1080 1080;" xml:space="preserve">
<style type="text/css">
	.st0{display:none;}
	.st1{display:inline;fill:#00A43C;}
	.st2{fill:#403332;}
	.st3{fill:#734B34;}
</style>
<g class="st0">
	<path class="st1" d="M749.3,40.3c28.4,7,52.9,20.1,70.8,44.1c28.4,38.2,29.9,89.4,3.7,129c-25.9,39.2-73.6,58.3-119.1,47.7
		c-46.1-10.7-80.5-49.1-86.1-96.2c-6.7-55.8,28.2-107.1,82.7-121.8c3.1-0.8,6.1-1.9,9.2-2.9C723.5,40.3,736.4,40.3,749.3,40.3z"/>
	<path class="st1" d="M625.3,460.2C609,482,594.4,504.3,581,527.4c-10.7,18.5-20,37.7-28.4,57.3c-6.3,14.6-15.4,26.1-31.4,30.6
		c-5.7,1.6-7.5,6.8-10,11.2C471,697,430.9,767.5,390.7,838c-22.4,39.3-44.7,78.7-67.3,117.9c-3.2,5.5-3.9,9.8-0.9,16
		c9,18.5,4.8,38.5-9.7,51.3c-14.7,12.9-35.9,14.8-52.3,4.6c-16.6-10.4-23.9-29.6-18-49.9c1.9-6.6-0.2-9.2-5.5-12.1
		c-14-7.5-27.7-15.3-41.5-23.2c-17.7-10.1-20.2-18.8-10.2-36.5c31.3-55.5,62.7-110.8,94.1-166.2c13.5-23.9,27-47.8,40.5-71.8
		c9.7-17.2,19.5-19.9,36.6-10.3c20,11.2,40.1,22.3,59.9,33.8c5.8,3.4,8.9,2.9,12.2-3c14.7-26.6,29.6-53.1,44.5-79.5
		c2.3-4,2.7-7.5-0.1-11.7c-9.9-14.8-9.4-30.3-2.7-46.2C494.7,493.3,528,440.8,566,391c24-31.4,49.6-61.3,77.5-89.2
		c42.7-42.7,100.5-46.4,148.4-9.2c24.2,18.8,46.8,39.8,70.8,58.9c36.2,28.6,74.5,53.7,119.9,65.7c10.9,2.9,22.3,3.9,33.2,6.8
		c20.3,5.4,34.5,26.6,32,46.3c-3,23.2-21.1,39.8-43.9,39.9c-12.6,0-25.1-2.5-37.4-4.6c-45.8-8-88.6-23.5-126.3-51.4
		c-1.7-1.3-3.7-3.9-5.7-1.9c-1.2,1.2-1.1,4.3-0.9,6.4c2.1,24.8,4.6,49.5,6.5,74.3c1.7,21.9,4.7,43.7,5.1,65.7
		c0.3,15.4-3.5,29.5-12,42.2c-3.9,5.8-3.4,10.3,0,15.9c57.3,94.4,105.6,193.4,150.7,294c16.2,36.1,0.8,71.8-35.4,81.8
		c-25.9,7.1-52.3-5.4-64.9-31.6c-12.5-25.9-23.9-52.3-36.2-78.3c-30.4-63.8-62.1-126.7-98-187.4c-5.4-9.2-6-9.2-11.3,0.3
		c-36.4,65.6-70,132.6-104.8,199c-12,22.9-24,45.8-36.7,68.3c-14.5,25.7-41,36.9-66.3,29.2c-33.4-10.2-50-47.2-33.7-78.9
		c17.1-33.3,36.1-65.7,54.2-98.6c34.4-62.6,68.7-125.2,103.3-187.7c3.9-7,4.7-12.1-0.8-18.9c-10.2-12.8-13.4-28.5-14.8-44.4
		c-4.1-47-8-93.9-12.1-140.9C626.4,462.1,626,461.6,625.3,460.2z M296.7,991.9c-0.2-7.8-6.8-14.1-14.5-13.8
		c-7.8,0.3-13.7,6.9-13.4,14.9c0.3,7.5,6.3,13,14,13C290.9,1006,296.9,999.8,296.7,991.9z"/>
</g>
<g>
	<path class="st2" d="M614.9,122.8c6.6,26.8,13.4,53.6,19.7,80.5c1.4,6.2,3.5,10.7,10.2,11.9c0.8,0.1,1.6,0.4,2.3,0.9
		c16.9,11.7,31.8,8,47.5-3.7c15.1-11.3,32.3-20,48.2-30.3c5.2-3.4,8.6-3.5,13.2,1.2c31.5,31.8,63.2,63.5,95,95
		c4.6,4.6,4.5,8.1,1.3,13.3c-13.6,21.6-26.7,43.5-40.3,65.1c-2.9,4.6-4.1,8.5-1.1,13.4c2,3.2,3.8,6.8,4.5,10.4
		c2.6,14.7,12.5,19.4,25.9,22c21,4,41.7,9.9,62.6,14.5c6.6,1.4,9,4.6,8.9,11.1c-0.1,44.5-0.1,89,0,133.5c0,5.8-2.1,8.7-8.1,10
		c-24.9,5.6-49.6,11.9-74.4,17.5c-5.9,1.3-9.8,3.8-11.3,9.9c-0.7,2.9-1.6,5.9-3.3,8.3c-9.3,13.2-5.3,24.4,3.2,36.6
		c11.6,16.7,21.3,34.7,32.4,51.7c4.1,6.2,3.3,10.2-1.6,15.3c-18.9,19.8-37.4,40-56.2,60c-7.1,7.6-7.5,7.4-11.1-2.4
		c-21.3-57-59.3-99-113.6-126.4c-6.5-3.3-13.3-6.1-20.2-8.6c-6.1-2.2-5.6-4.2-1.1-8c31.9-27.6,51.2-62.5,56-104.4
		c8-70.2-26.2-131.3-83.2-162.4c-97.4-53.1-216.4,1.7-238.2,110.7c-12.1,60.4,6.2,112.6,52,154.5c7.5,6.8,7.7,6.7-1.7,10.5
		c-63.1,25.4-106.8,69.9-131.2,133.4c-2.2,5.7-4,7.7-9.3,2.5c-20.8-20.2-41.8-40.3-63-60.1c-4.5-4.2-4.5-7.5-1.3-12.5
		c13.4-21.4,26.4-43,39.9-64.3c3.5-5.6,5-10.5,1.1-16.3c-1.6-2.4-3-5.3-3.5-8.2c-2.7-15.2-12.8-20.4-26.9-22.9
		c-21-3.8-41.7-9.8-62.6-14.5c-5.9-1.3-8.2-4-8.2-9.9c0.1-44.8,0.1-89.6,0-134.3c0-5.8,2.3-8.8,8.1-10.1
		c24.8-5.7,49.6-11.9,74.4-17.5c6-1.4,9.8-4.1,11.3-10c0.5-1.8,0.9-3.8,2-5.3c10.9-15.2,6.4-28.4-3.7-42.4
		c-11.5-16.1-20.9-33.6-31.6-50.3c-3.3-5.2-3.4-8.7,1.2-13.3c31.8-31.5,63.5-63.2,95-95c4.6-4.6,8-4.6,13.2-1.2
		c21.8,13.8,43.9,27.1,65.7,40.8c4.1,2.6,7.7,3.4,12,0.9c3-1.7,6.3-3.6,9.7-4.2c15.9-2.8,21-13.4,23.8-28
		c4.5-23.1,11-45.8,16.6-68.7C515,122.8,565,122.8,614.9,122.8z"/>
	<path class="st3" d="M541.4,957.2c-65.4,0-130.8,0-196.2,0c-10.8,0-10.9,0-10.9-10.8c0-32.8-0.1-65.7,0-98.5
		c0.4-91.6,66-168.1,156.8-179.1c42.6-5.2,86.1-6.5,128.5,5.5c68.5,19.4,120.3,80.6,127.7,151.4c3.7,34.6,0.8,69.4,1.5,104.1
		c0.1,6.8-0.2,13.6,0,20.3c0.1,5.2-2.1,7.3-7.3,7.2c-10.8-0.2-21.7,0-32.6,0C653.2,957.2,597.3,957.2,541.4,957.2z"/>
	<path class="st3" d="M541.2,616.8c-63.6-0.1-115.7-52.4-115.3-115.7c0.4-63.6,52.4-115,116.2-114.9
		c63.5,0.1,115.8,52.6,115.3,115.8C656.9,565.7,605.1,616.8,541.2,616.8z"/>
</g>
</svg>
