<?xml version="1.0" encoding="utf-8"?>
<!-- Generator: Adobe Illustrator 28.2.0, SVG Export Plug-In . SVG Version: 6.00 Build 0)  -->
<svg version="1.1" id="Шар_1" xmlns="http://www.w3.org/2000/svg" xmlns:xlink="http://www.w3.org/1999/xlink" x="0px" y="0px"
	 viewBox="0 0 1080 1080" style="enable-background:new 0 0 1080 1080;" xml:space="preserve">
<style type="text/css">
	.st0{display:none;}
	.st1{display:inline;fill:#00A43C;}
	.st2{fill:#2083C5;}
	.st3{fill:#64A9DB;}
	.st4{fill:#68ABDC;}
	.st5{fill:#2586C7;}
	.st6{fill:#6CADDD;}
	.st7{fill:#2887C8;}
	.st8{fill:#8B95A0;}
	.st9{fill:#2B89C9;}
	.st10{fill:#5CA5D8;}
	.st11{fill:#5BA4D8;}
	.st12{fill:#3D93CE;}
	.st13{fill:#8C96A1;}
	.st14{fill:#8B96A1;}
	.st15{fill:#1D81C4;}
	.st16{fill:#8C97A2;}
	.st17{fill:#125580;}
	.st18{fill:#13527B;}
	.st19{fill:#215C82;}
	.st20{fill:#1F5B81;}
	.st21{fill:#125784;}
	.st22{fill:#286185;}
	.st23{fill:#115581;}
	.st24{fill:#11517B;}
	.st25{fill:#15547D;}
	.st26{fill:#0D4D76;}
	.st27{fill:#195982;}
	.st28{fill:#1C5980;}
	.st29{fill:#0C4C75;}
	.st30{fill:#226089;}
	.st31{fill:#235C82;}
	.st32{fill:#255D81;}
	.st33{fill:#1B5A83;}
	.st34{fill:#205D84;}
	.st35{fill:#215F87;}
	.st36{fill:#1F5D85;}
	.st37{fill:#0D4C76;}
	.st38{fill:#205E87;}
	.st39{fill:#1F5E86;}
	.st40{fill:#2E688D;}
	.st41{fill:#286892;}
	.st42{fill:#286389;}
	.st43{fill:#226087;}
	.st44{fill:#2F6C94;}
	.st45{fill:#2D688E;}
	.st46{fill:#2F698F;}
	.st47{fill:#30698E;}
	.st48{fill:#306B91;}
	.st49{fill:#346C91;}
	.st50{fill:#2C668C;}
	.st51{fill:#276289;}
	.st52{fill:#27658E;}
	.st53{fill:#2D678D;}
	.st54{fill:#235E84;}
	.st55{fill:#266187;}
	.st56{fill:#125078;}
	.st57{fill:#235F86;}
	.st58{fill:#0E4E77;}
	.st59{fill:#306A91;}
	.st60{fill:#0E4D76;}
	.st61{fill:#28668E;}
	.st62{fill:#205C82;}
	.st63{fill:#2A6389;}
	.st64{fill:#2D6A92;}
	.st65{fill:#1C5B84;}
	.st66{fill:#0F4E77;}
	.st67{fill:#1D5A82;}
	.st68{fill:#0E4E76;}
	.st69{fill:#2F6589;}
	.st70{fill:#2384C6;}
	.st71{fill:#1C81C4;}
	.st72{fill:#60A7D9;}
	.st73{fill:#1C81C5;}
	.st74{fill:#2083C6;}
	.st75{fill:#13557F;}
	.st76{fill:#19577F;}
	.st77{fill:#1A577F;}
	.st78{fill:#1E5A81;}
	.st79{fill:#1A5880;}
	.st80{fill:#2D8BCA;}
	.st81{fill:#1E5E88;}
	.st82{fill:#57A1D6;}
	.st83{fill:#19567D;}
	.st84{fill:#205B82;}
	.st85{fill:#56A1D6;}
	.st86{fill:#5FA6D9;}
	.st87{fill:#3891CD;}
	.st88{fill:#1F5C84;}
	.st89{fill:#266087;}
	.st90{fill:#0D4C75;}
	.st91{fill:#3A90CA;}
	.st92{fill:#318BC8;}
	.st93{fill:#2686C6;}
	.st94{fill:#2786C6;}
	.st95{fill:#2A88C7;}
	.st96{fill:#2E8AC8;}
	.st97{fill:#529FD5;}
	.st98{fill:#318DCB;}
	.st99{fill:#348FCC;}
	.st100{fill:#3E92CB;}
	.st101{fill:#2486C7;}
	.st102{fill:#328DCB;}
	.st103{fill:#2A89C9;}
	.st104{fill:#4E9DD4;}
	.st105{fill:#489AD2;}
	.st106{fill:#4497D1;}
	.st107{fill:#4095D0;}
	.st108{fill:#3C93CE;}
	.st109{fill:#2E8BCA;}
	.st110{fill:#4595CC;}
	.st111{fill:#4294CC;}
	.st112{fill:#1A5B86;}
	.st113{fill:#2988C7;}
	.st114{fill:#2284C5;}
	.st115{fill:#1F82C5;}
	.st116{fill:#4897CD;}
	.st117{fill:#368EC9;}
</style>
<g class="st0">
	<path class="st1" d="M749.3,40.3c28.4,7,52.9,20.1,70.8,44.1c28.4,38.2,29.9,89.4,3.7,129c-25.9,39.2-73.6,58.3-119.1,47.7
		c-46.1-10.7-80.5-49.1-86.1-96.2c-6.7-55.8,28.2-107.1,82.7-121.8c3.1-0.8,6.1-1.9,9.2-2.9C723.5,40.3,736.4,40.3,749.3,40.3z"/>
	<path class="st1" d="M625.3,460.2C609,482,594.4,504.3,581,527.4c-10.7,18.5-20,37.7-28.4,57.3c-6.3,14.6-15.4,26.1-31.4,30.6
		c-5.7,1.6-7.5,6.8-10,11.2C471,697,430.9,767.5,390.7,838c-22.4,39.3-44.7,78.7-67.3,117.9c-3.2,5.5-3.9,9.8-0.9,16
		c9,18.5,4.8,38.5-9.7,51.3c-14.7,12.9-35.9,14.8-52.3,4.6c-16.6-10.4-23.9-29.6-18-49.9c1.9-6.6-0.2-9.2-5.5-12.1
		c-14-7.5-27.7-15.3-41.5-23.2c-17.7-10.1-20.2-18.8-10.2-36.5c31.3-55.5,62.7-110.8,94.1-166.2c13.5-23.9,27-47.8,40.5-71.8
		c9.7-17.2,19.5-19.9,36.6-10.3c20,11.2,40.1,22.3,59.9,33.8c5.8,3.4,8.9,2.9,12.2-3c14.7-26.6,29.6-53.1,44.5-79.5
		c2.3-4,2.7-7.5-0.1-11.7c-9.9-14.8-9.4-30.3-2.7-46.2C494.7,493.3,528,440.8,566,391c24-31.4,49.6-61.3,77.5-89.2
		c42.7-42.7,100.5-46.4,148.4-9.2c24.2,18.8,46.8,39.8,70.8,58.9c36.2,28.6,74.5,53.7,119.9,65.7c10.9,2.9,22.3,3.9,33.2,6.8
		c20.3,5.4,34.5,26.6,32,46.3c-3,23.2-21.1,39.8-43.9,39.9c-12.6,0-25.1-2.5-37.4-4.6c-45.8-8-88.6-23.5-126.3-51.4
		c-1.7-1.3-3.7-3.9-5.7-1.9c-1.2,1.2-1.1,4.3-0.9,6.4c2.1,24.8,4.6,49.5,6.5,74.3c1.7,21.9,4.7,43.7,5.1,65.7
		c0.3,15.4-3.5,29.5-12,42.2c-3.9,5.8-3.4,10.3,0,15.9c57.3,94.4,105.6,193.4,150.7,294c16.2,36.1,0.8,71.8-35.4,81.8
		c-25.9,7.1-52.3-5.4-64.9-31.6c-12.5-25.9-23.9-52.3-36.2-78.3c-30.4-63.8-62.1-126.7-98-187.4c-5.4-9.2-6-9.2-11.3,0.3
		c-36.4,65.6-70,132.6-104.8,199c-12,22.9-24,45.8-36.7,68.3c-14.5,25.7-41,36.9-66.3,29.2c-33.4-10.2-50-47.2-33.7-78.9
		c17.1-33.3,36.1-65.7,54.2-98.6c34.4-62.6,68.7-125.2,103.3-187.7c3.9-7,4.7-12.1-0.8-18.9c-10.2-12.8-13.4-28.5-14.8-44.4
		c-4.1-47-8-93.9-12.1-140.9C626.4,462.1,626,461.6,625.3,460.2z M296.7,991.9c-0.2-7.8-6.8-14.1-14.5-13.8
		c-7.8,0.3-13.7,6.9-13.4,14.9c0.3,7.5,6.3,13,14,13C290.9,1006,296.9,999.8,296.7,991.9z"/>
</g>
<g>
	<path class="st2" d="M344.9,569.3c0.6,0.9,1.3,1.9,1.9,2.8c2.8,2.2,5.4,3.2,7.6-0.7c0.7-17.3,0.7-17.3,18.3-17.3
		c18.9,0,37.9,0,56.8,0c3.7,0,7.4-0.3,10.9,1.1c5.1,4,2.1,9.6,2.7,14.4c0.6,5,1.9,7.1,6.4,3.1c6.8-6.5,13.6-13.1,20.4-19.6
		c17.4,2,34.9,0.6,52.4,1c2.9,0.1,5.7,0.1,8.6,0.4c8.4,3.1,12.9,11,19.9,15.8c1.1,1.8,0.1,3.1-0.9,4.3c-3.7,4.4-7.8,8.4-11.9,12.4
		c-2.5,2.5-5.4,4.2-9.1,2.8c-4.7-0.7-9.4-0.8-14.2-0.8c-78.1,0-156.2,0-234.3,0c-4.5,0-8.9,0.1-13.4,0.7
		c-8.7,1.9-11.6-5.9-16.2-10.3c-6.6-6.3-6.1-7.3,0.1-14.1c4.2-3.6,7-8.7,12.7-10.6c20.1-1.1,40.2-0.8,60.3-0.2
		c3.1,0.5,5.5,2.4,7.9,4.1C336,562.5,339.9,566.6,344.9,569.3z"/>
	<path class="st3" d="M386.3,192.8c1.5-2.7,3.6-4.6,6.1-6.2c4.3,2.5,9.1,2.4,13.8,2.4c91.7,0,183.4,0,275.1,0c4.7,0,9.5,0,13.8-2.4
		c2.4,1.7,4.6,3.6,6.1,6.2c3,4.1,6.8,7.6,9.3,12.1c1.2,1.7,1.3,3.4,0.1,5.1c-4.1,4-9.3,3.1-14.2,3.1c-42.9,0-85.9,0.1-128.8-0.1
		c-58.7-0.3-117.5,0.3-176.2,0.1c-4.9,0-10.1,0.9-14.3-3c-1.3-1.7-1.3-3.3-0.1-5C379.4,200.4,383.2,196.9,386.3,192.8z"/>
	<path class="st4" d="M695.1,186.5c-0.5,3.4-2.4,5.1-5.9,5c-1.3,0-2.6,0-4,0c-94.3,0-188.6,0-282.9,0c-4,0-8.9,1.4-9.8-4.9
		c0,0,0.1,0.2,0.1,0.2c2.8-2.6,5.9-5,8.9-7.4c3.3-2.8,6.9-5.1,10.5-7.5c2.6-1,4.7-3,7.4-3.7c1.4-0.3,2.7,0,4.1,0.3
		c80.1,0,160.3,0,240.4,0c1.4-0.3,2.9-0.6,4.4-0.7c0.5,0,1,0.1,1.4,0.3c3,2.6,6.7,4.1,9.8,6.5c1.8,1.1,3.4,2.5,5.2,3.7
		c3.6,2.7,6.8,5.9,10.4,8.6L695.1,186.5z"/>
	<path class="st5" d="M549.3,476.3c0.5-0.3,0.9-0.5,1.5-0.5c5.8,0.8,11.6,0.9,17.4,0.9c77.3,0,154.5,0,231.8,0c3.2,0,6.3,0,9.5,0.2
		c2.9-0.6,4.8,0.9,6.8,2.7c4.8,4.4,8.7,9.5,13.2,14.1c1.4,1.5,2.9,3.2,0.8,5.3c-3.9,2.3-8.2,1.6-12.3,1.7c-26.5,0.4-53-0.8-79.5,0.7
		c-1.8,0-3.5-0.4-5-1.2c-2.4-1.5-4.6-4-8-2.3c-1.4,1-2.8,1.8-4.5,2.2c-26.4,1-52.8,1.2-79.2,0c-1.8-0.4-3.2-1.4-4.8-2.3
		c-4.6-1.7-8,2.2-12.1,2.5c-27.2,0.9-54.5,0.3-81.7,0.3c-3.2,0-6.3-0.6-8.8-2.6c-2.9-2.9-0.8-5,1.2-7.1
		C540,485.9,545.1,481.5,549.3,476.3z"/>
	<path class="st6" d="M666.4,169.7c-2.5,2.2-5.5,1.3-8.3,1.3c-76.1,0.1-152.3,0.1-228.4,0c-3,0-6.4,1.3-8.7-2.1c0-1.3,1-1.8,1.9-2.5
		c5.4-3.2,11.6-4.8,17.4-7.1c2.1-0.7,4.3-0.9,6.4-1.6c2.2-0.1,4.3-1,6.5-1.1c0.9-0.5,1.7-1,2.6-1.6c58.3-1.1,116.6-1,174.9-0.1
		c0.9,0.1,1.8,0.2,2.6,0.3c2.3,2.1,5.2,2.4,8.1,2.6c4.1,1.5,8.5,2,12.3,4.3c2.7,1,5.5,1.8,8,3.4C663.5,166.6,665.8,167,666.4,169.7z
		"/>
	<path class="st7" d="M811.9,477.9c-2.5,2.2-5.6,1.2-8.4,1.2c-81.2,0-162.4,0.1-243.7-0.1c-3.2,0-7.8,2.3-9.1-3.3
		c4.2-4.2,8.4-8.5,12.6-12.7c5.7,0.9,11.5,0.9,17.3,0.9c68.8,0,137.6,0,206.3,0c3.2,0,6.3,0,9.5,0.2
		C805,465,808.2,471.7,811.9,477.9z"/>
	<path class="st8" d="M720.1,839.5c-3.2,17-12,31.4-23,44.2c-24.2,28.1-55.2,42.5-92.3,42.7c-46.9,0.3-93.8,0.3-140.7,0
		c-50.2-0.4-96.6-35.3-111.6-83.1c-0.5-1.7-0.6-3.6-0.9-5.4c4.3,0.2,4.3,4,5.5,6.6c7.8,17.3,18.9,32.1,33.7,44.1
		c11.3,9.3,23.8,16.4,37.7,21c7.6,2.7,15.5,4.4,23.5,5.2c55.9,2.7,111.8,2.5,167.7,0c13.9-0.7,26.6-5.8,39.1-11.2
		c16.7-8.1,30.2-20.2,41.6-34.7c5.7-7.1,10.4-14.7,14.1-23.1C715.5,843.1,716,839.6,720.1,839.5z"/>
	<path class="st9" d="M799.3,465.3c-2.5,2.1-5.5,1.2-8.3,1.2c-72.8,0-145.6,0.1-218.4-0.1c-3.2,0-7.8,2.3-9.1-3.4
		c1.2-1.4,2.4-2.9,3.6-4.3c5-2.2,7.5-9,14.3-7.9c6.8,0.7,13.7,0.5,20.5,0.5c54.9,0,109.8,0,164.8,0c5.3,0,10.5,0.1,15.7-1.1
		C791.6,451.1,795.3,458.4,799.3,465.3z"/>
	<path class="st8" d="M549,578.8c4,1.8,3.3,3.9,0.6,6.4c-6.9,6.5-13.7,13.1-20.5,19.7c-42.1,41.3-84.2,82.6-126,124.2
		c-4.7,4.7-7.1,4.4-11.7-0.2c-46.9-47.2-94.1-94.3-141.3-141.3c-3.1-3.1-6.2-5.8-2.8-10.5c9,5,15.6,12.9,22.8,19.9
		c39.9,39.3,79.4,79,119,118.6c9.4,9.3,7.7,8.8,16.8-0.2c10.8-10.7,21.3-21.8,33.1-31.5c6.5-6.3,12.9-12.8,19.3-19.3
		c18.5-18.3,37.1-36.7,55.3-55.3c9.8-10,21.2-18.2,30.6-28.5C545.5,579.4,546.9,578.1,549,578.8z"/>
	<path class="st10" d="M729.6,242.1c0.8,0.7,0.8,1.6,0.3,2.5c-0.3,1.5-0.5,3-1.7,4.1c-3.7,2.8-8,2.2-12.1,2.2
		c-23.1,0.1-46.2,0.1-69.3,0c-7.1,0-14.2,0.2-21.1,1.6c-2.5,0.3-4.4-0.6-5.7-2.7c-1.5-2.3-2.4-5.1-4.3-7.2c-2.5-3-5.5-5.4-7.9-8.4
		c-2-2.5-3-5,0.6-7c2.6-1.4,5.5-1.7,8.4-1.7c33.4-0.1,66.8-0.2,100.1,0c1.1,0,2.1,0.2,3.1,0.4c3.2,0.5,4.2,3,5.1,5.6
		C727.4,234.7,726.5,239.2,729.6,242.1z"/>
	<path class="st11" d="M359.4,242.8l-0.3,0c0.5-4,0.9-8.1,4-11.2c0.9-0.5,1.7-0.8,2.7-1c29.2-0.9,58.4-0.3,87.6-0.3
		c2.4,0,4.7,0.3,6.8,1.8c1,0.9,1.8,2.3,1.2,3.4c-4,7.3-7.1,15.4-15.1,19.7c-27.8,1.1-55.7,0.5-83.6,0.3c-1.3,0-2.6-0.4-3.8-0.9
		c-0.9-0.5-1.6-1.2-2-2.1C356.6,248.9,357,245.6,359.4,242.8z"/>
	<path class="st12" d="M647.4,380.9c7-7.3,14-14.5,20.9-21.8c4.2-2,6.8-5.7,10-8.8c3-2.9,5.4-3.4,8.6-0.1
		c9.9,10.2,20.2,19.9,29.9,30.3c1.8,1.9,6.5,4.4,1.8,8.2c-4.8,1.8-9.9,1.2-14.8,1.2c-16,0.1-32,0.1-48,0c-3.9,0-7.9,0.5-11.4-2.1
		C642,384.1,645.7,382.9,647.4,380.9z"/>
	<path class="st13" d="M626.5,269.3c-8.4-18.1-20.6-32.2-39.8-39.4c-6.2-2.3-12.6-3.8-19.3-3.8c-19.2,0-38.5-0.3-57.7-0.1
		c-28.1,0.3-47.9,13.8-60.4,38.5c-0.8,1.6-1.8,3.1-2.7,4.7c-3.4-5.2-0.1-9.7,2-13.7c5-9.4,11.3-18,19-25.5
		c7.4-6.1,15.9-9.7,25.1-12.1c5-1.8,10.5-1.2,15.5-2.8c19.9-0.6,39.8-0.6,59.7,0c3,0.7,5.9,1.5,9,1.9c16.9,3,29.2,12.9,39.6,25.8
		c1.1,2.1,2.8,3.8,3.5,6.1c2.5,4.2,6.1,7.8,7.2,12.7C627.8,264.1,629.4,266.9,626.5,269.3z"/>
	<path class="st14" d="M832.3,504.4c2.2,2.7,2.8,4.8-0.2,7.8c-13,13.1-25.8,26.3-38.3,39.9c-3.8,4.1-6.2,3.9-10.1,0.5
		c-16.2-14.2-32.7-28.2-49.1-42.2c-1.7-1.4-3.2-4.5-5.7-3.2c-2.3,1.2-1.1,4.3-1.1,6.5c-0.1,91.9,0,183.8-0.1,275.7
		c0,3.1,0.7,6.3-0.9,9.3c-3-2.3-2.5-5.6-2.5-8.7c-0.1-94.4-0.1-188.7,0-283.1c0-3.3-0.4-7,2.9-9.3c3.1-1.4,4.8,1,6.8,2.6
		c16.5,12.6,31.8,26.6,47.6,40.1c7.1,6.1,7,6.4,13.7-0.5c9-9.2,18.5-17.9,26.7-27.9C824.5,508.6,827,504.2,832.3,504.4z"/>
	<path class="st8" d="M635,795.4c0-92.9,0-185.9-0.2-278.8c0-3.4,2.3-8.4-1.7-9.9c-3.8-1.5-6,3.5-8.4,6
		c-13.5,13.3-26.9,26.8-40.2,40.3c-2.4,2.5-4,4.1-7.5,0.8c-15-14-30.3-27.7-45.8-41.2c-3.5-3-3.3-5.2-0.6-8.1
		c0.9-0.4,1.8-0.3,2.7,0.1c15.1,11,27.8,24.8,42,36.9c4.9,4.2,8.1,3.6,11.7-0.9c10.4-13,22.6-24.2,34.4-35.9
		c3.8-3.7,7.7-9.6,13.8-6.9c5.4,2.4,3.2,8.9,3.2,13.6c0.1,90.8,0.1,181.5,0,272.3C638.4,787.6,640.6,792.8,635,795.4z"/>
	<path class="st15" d="M533.3,556.7c-18.1,0-36.3,0-54.4,0c-3.4,0-7,0.7-8.8-3.4c7.5-8.2,15.2-16.2,23.6-23.5
		c3.7-5.4,7.5-5.5,11.7-0.4c3.5,4.2,8.2,7.1,12.2,10.8c5.2,5.2,10.4,10.3,16.2,14.8C534.1,555.6,534,556.2,533.3,556.7z"/>
	<path class="st16" d="M734.2,314.7c0,7.6-3.8,9.5-11.3,9.4c-27.9-0.5-55.9-0.5-83.8,0c-7.1,0.1-10.4-1.6-9.3-9
		c1.8-2.4,4.6-2.4,7.2-2.4c30-0.1,59.9-0.1,89.9,0C729.5,312.6,732.1,312.7,734.2,314.7z"/>
	<path class="st17" d="M635,795.4c2.3-2.8,1.3-6.1,1.4-9.1c0.1-91.6,0.1-183.1,0-274.7c0-4.4,2.2-10.8-2.5-12.8
		c-4.6-2-7.2,4.2-10.2,7.2c-12.9,12.8-25.6,25.8-38.1,38.9c-3.5,3.7-5.7,3.7-9.4,0.2c-14.5-13.7-29.3-27.1-44.1-40.5
		c-0.4-0.4-0.6-0.8-0.4-1.2c0.1-0.4,0.3-0.6,0.4-0.6c4.3-0.7,6.7,2.3,9.3,4.7c4.4,4,8.2,8.8,13.3,12c6.6,6,13.3,12,19.8,18.1
		c5,4.8,7.9,4.1,12-0.5c6-6.6,12.6-12.7,18.9-19.1c7.4-6.4,13-14.8,21.7-19.7c3.1-3,6.8-3.6,10.9-3.2c2.2,4.4,2.3,9,2.4,13.8
		c0.7,40.1-0.6,80.3,0.1,120.4c-0.3,31-0.3,62.1,0,93.1c-0.2,21.7-0.1,43.4-0.1,65.1c-0.1,4.2,0.8,8.6-2,12.4
		c-1.7,1.1-2.5,0.2-3.1-1.3C635,797.5,635,796.4,635,795.4z"/>
	<path class="st18" d="M440,684.5c-13.1,12.9-26.3,25.7-39.2,38.8c-4.5,4.5-6.4,0.4-8.7-2c-29.1-29-58.1-58-87.2-87
		c-19.2-19.1-38.4-38.2-57.6-57.3c-7.6-6.3-0.3-8.9,3.1-12.5c1.3-0.3,1.9,0.1,1.5,1.5c-5.7,4.6-4.5,8.6,0.7,12.8
		c4.2,3.4,7.9,7.3,11.8,11c9.9,5.8,16.2,15.4,24.7,22.7c9.9,10.1,20,20.1,30.1,30c10.5,10.6,21.1,21.2,31.7,31.6
		c13.4,13.6,27.2,26.9,40.5,40.7c4.6,4.8,7.7,4.5,12.1-0.2c8.8-9.3,18.1-18.3,27.2-27.3c2.2-2.2,4.1-4.9,7.6-5.2
		C439.5,682.6,440.4,683.1,440,684.5z"/>
	<path class="st19" d="M468.9,231.2c-9.6,9.3-18.2,19.3-21.6,32.7c-0.4,1.7-0.5,3.5-0.8,5.3c-2.1,6.4-2.1,13-2.1,19.5
		c0,92.5,0,184.9,0,277.4c0,2.6-0.4,5.3,0.9,7.8c-3.7,0.8-2.8-2-2.8-3.8c-0.7-15.7-1.6-31.4-1.6-47.1c0.2-76.5,0.1-153,0.1-229.5
		c0-3.9,0.4-7.9-0.7-11.8c-0.5-2.3-0.7-4.7-0.5-7.1c2.2-7.3,1.9-15.6,8.1-21.4c4.3-6.2,8.6-12.4,12.9-18.6c0.8-3.1,3.1-4.2,6.1-4.5
		C467.8,230.2,468.4,230.6,468.9,231.2z"/>
	<path class="st20" d="M720,386.2c-10.1-12.1-22.1-22.5-32.8-34c-3.4-3.6-5.2-3.4-8.7-0.1c-2.9,2.7-4.2,8.4-10.1,7.1
		c0.1-0.3,0.1-0.6,0.2-0.7c13.3-14.8,13.3-14.8,27.4-0.7c44.7,44.7,89.4,89.3,134.1,134c2,2,3.8,4.3,5.7,6.4c-0.5,0.6-1,0.9-1.7,0.9
		c-1.5-0.1-2.5-1-3.3-2.2c-7.3-5.2-10.8-14.4-18.8-18.9c-5.2-3.3-6.7-10.1-12.7-12.6c-4.9-4.6-8.1-10.9-14.4-14.2
		c-4.8,0.1-5.8-4.4-8.4-6.9c-2.2-2.2-4.3-4.3-6.7-6.2c-5.1-5.5-10-11.1-15.9-15.9c-5.1-5.5-10-11.1-15.9-15.8
		C732.5,399.1,724.9,393.9,720,386.2z"/>
	<path class="st21" d="M730.7,498.4c-2.6-0.3-3.9,0.6-3.9,3.4c0,3.4-0.4,6.8-0.4,10.2c0,93.2,0,186.4,0,279.6c0,2.4,0.3,4.7,0.4,7.1
		c-0.6,9.5-1.2,18.9-3.6,28.2c-1.8,0.2-2.4-1-3-2.3c-1.3-7.1,1.1-13.9,1.7-20.8c1.6-11.2,0.6-22.4,0.7-33.6
		c0.2-15.4,0.1-30.8-0.1-46.2c0.1-58.8,0.5-117.7-0.2-176.5c-0.2-14.2,0.3-28.4,0.4-42.5c0-3.5,0.9-6.7,2.3-9.8c3,0,6.2-0.3,7.9,3.1
		C732.3,498.9,731.5,498.9,730.7,498.4z"/>
	<path class="st22" d="M345.4,757.5c1.4-3,4.1-1.6,6.1-1.6c30.8-0.1,61.6,0.1,92.3-0.2c5.9-0.1,7.8,1.4,7.4,7.4
		c-0.6,8.6-0.3,17.3-0.4,26c-1.9,1.6,1.8,5.9-3,6.1c-3.8-5.2-1.9-11.2-2.3-16.8c-0.2-3.1-0.2-6.3-0.1-9.5c0.2-5.4-2.5-7.4-7.7-7.4
		c-26.3,0-52.7,0.1-79-0.1c-6.3,0-8.1,2.9-8.1,8.7c0,10.8,0.8,21.6-0.6,32.3c-1.3,3-0.7,6.9-3.6,9.2c-1.8-4.3-1.4-8.8-1.1-13.2
		C346.3,784.7,346.3,771.1,345.4,757.5z"/>
	<path class="st23" d="M354.8,575.6c-3.2,0-6.6,0.8-7.9-3.5c6.9,1.8,6.1-2.8,6.1-7.1c0-94.4,0-188.9,0-283.3
		c0-5.3,0.3-10.5,0.4-15.8c3.5,0.6,3.1,3.6,3.5,6c0.2,60.8,0.1,121.6,0.1,182.4c0,29.5,0.2,59,0.3,88.4
		C357.3,553.8,355,564.6,354.8,575.6z"/>
	<path class="st24" d="M441.9,280.1c2.2,2.8,1.2,6.1,1.2,9.1c0.1,91.8,0,183.6,0.1,275.3c0,3.1-1.8,6.9,2.1,9.3
		c1.4-0.3,2.8-0.7,4.3-1c-0.5,3.4-3,3-5.4,2.7c-3-0.4-2.5-2.8-2.6-4.8c-0.1-4.7-0.1-9.3-0.2-14c-2.6-3.1-2.3-6.8-2.3-10.4
		c0-9.6-0.3-19.1,0.2-28.7c-0.2-5.9-0.2-11.9,0-17.8c-0.2-7.9-0.2-15.7,0-23.6c-0.2-7.4-0.2-14.7,0-22.1c-0.2-5.9-0.2-11.7,0-17.6
		c-0.2-7.8-0.2-15.7,0-23.5c-0.2-7.3-0.2-14.7,0-22c-0.2-5.8-0.2-11.7,0-17.5c-0.2-6.3-0.2-12.7,0-19c-0.2-6.3-0.2-12.7,0-19
		c-0.2-7.3-0.2-14.7,0-22c-0.2-7.3-0.2-14.7,0-22C439.5,287.4,438.5,283.2,441.9,280.1z"/>
	<path class="st25" d="M730.7,498.4c0.8-0.1,1.5-0.2,2.3-0.3c1,0.5,2,1.1,3,1.6c9.6,4.8,16.5,13,24.7,19.5c7.5,6.2,15,12.3,22,19
		c4,3.8,7.1,4.1,11.3-0.1c5.9-6,11.3-12.3,16.8-18.6c7.9-6.8,13.9-15.6,22.9-21.3c0.7,0,1.4-0.1,2.1-0.1c1.2,3.4-2.7,4-3.4,6.3
		c-13.2,13.5-26.4,27.1-39.4,40.7c-2.5,2.7-4.4,3.7-7.6,0.8C767.2,529.9,748.9,514.2,730.7,498.4z"/>
	<path class="st25" d="M549,578.8c-22.9,20.5-44.2,42.5-66.1,64c-7.9,7.7-15.8,15.3-23.7,23c-1.5,0.5-1.9-0.4-2.1-1.7
		c6.2-7.7,12.3-15.6,19.9-22c10.8-9.1,20.1-19.7,30.2-29.5c6-5.8,11.9-11.9,17.9-17.7c2-2,3.7-4.5,6.9-4.9
		c5.8-5.3,11.6-10.7,17.4-16c1.4-0.4,1.9,0.1,1.5,1.6C550.2,576.6,549.6,577.7,549,578.8z"/>
	<path class="st26" d="M630.5,155c-1.2,1.9-3.1,1.6-4.9,1.5c-51.6-2.6-103.3-0.4-154.9-1.2c-5-0.1-10.1,3.7-15.1-0.3
		c4.5-1.7,9.3-1.6,14-1.6c49.5-0.1,98.9-0.1,148.4,0C622.2,153.5,626.5,153.1,630.5,155z"/>
	<path class="st27" d="M647.4,380.9c-1,1.7-2.1,3.4-3.1,5.1c-4.5,8-12.2,13.1-18,19.8c-5.4,5.2-10.6,10.5-15.9,15.8
		c-5.4,5.2-10.6,10.5-15.9,15.8c-5.7,4.8-9.8,11.5-16.9,14.8c-4.1,1.2-4.7,8.1-10.5,6.5c20.7-22.2,43.1-42.7,64.6-64.1
		C636.5,389.8,640.4,383.5,647.4,380.9z"/>
	<path class="st28" d="M346.5,811.6c0.8-2.7-0.7-5.9,1.6-8.4c0.7,0.4,1.3,1.1,1.6,1.9c2,10.8,3.6,21.6,7.5,31.9
		c3.3,9.7,8.1,18.6,14,27c5.5,9,13.4,15.8,20.2,23.7c0,1.3-0.9,1.9-2,2.3c-15.7-12.2-26.8-27.9-34.7-46c-0.9-2.1-1.2-4.6-3.2-6.1
		C348.9,829.3,346.6,820.7,346.5,811.6z"/>
	<path class="st29" d="M734.2,314.7c-34.8,0.1-69.6,0.2-104.4,0.4c0,0,0.2-0.3,0.2-0.3c-0.5-1-0.3-1.9,0.6-2.5
		c0.9-0.5,1.8-0.9,2.7-1.1c26.9-1,53.7-0.2,80.6-0.5c2.6,0,5.3-0.1,7.9,0c5.9,0.2,8.6-2.4,8.5-8.4c-0.1-9.7,0.3-19.5,0.3-29.2
		c0.5-2.7-0.6-6.2,3.5-7.2C734.8,282.2,734.8,298.4,734.2,314.7z"/>
	<path class="st30" d="M516,854c18,0,35.9,0,53.9,0c2.3,1.8,6.5-1.7,7.7,2.9c-2.3,2.3-5.2,2.4-8.1,2.4c-17.1,0.1-34.2,0.1-51.3,0
		c-2.9,0-5.8-0.1-8.2-2.1C509.7,851.9,514.5,856.1,516,854z"/>
	<path class="st31" d="M721.6,825c0.5,0.6,1.1,1.2,1.6,1.8c-0.1,4.4-1.6,8.5-3.1,12.6c-6.2,10-9.7,21.7-18.3,30.3
		c-0.7,0.6-1.4,0.7-2.2,0.2c-1.2-1.5-0.9-3,0-4.5c6.9-9.6,13.1-19.5,16.1-31.1C717.6,831.3,716.8,826.5,721.6,825z"/>
	<path class="st32" d="M630.2,313.4c0,0.5-0.1,1-0.2,1.4c-2.9-4.3-1-9-1.3-13.5c-0.6-10.7,1-21.5-2.2-32c0.2-7.9-4.6-14-7.5-20.9
		c0.5-0.9,1.1-1,1.8-0.1c1,1,1.9,2.1,2.9,3.1c5.3,5.2,7,12.1,8.5,19.1c0.4,3.1,1.4,6.1,0.6,9.2c-1.4,8-0.3,16-0.7,24
		C632.1,307.1,632.5,310.5,630.2,313.4z"/>
	<path class="st33" d="M259.7,555.1c9.4-10,18.5-20.4,28.3-29.9c5.8-5.6,7.4,3,11.2,4.7c0.5,1.5-0.4,2-1.5,2.3
		c-5.5-3-9.3-1-13.5,3.2c-7.2,7.1-13.1,15.8-22.5,20.5C260.9,555.9,260.3,555.6,259.7,555.1z"/>
	<path class="st34" d="M449.5,795.4c0.3-2.2-0.6-4.6,1.4-6.4c0.4,13.1,4.5,25.1,11.2,36.3c-0.4,1.2-1.1,2.1-2.5,1.9
		c-6.7-5.9-8.2-14.5-11.2-22.3C448.1,801.7,445.5,798.2,449.5,795.4z"/>
	<path class="st34" d="M516,854c-1.8,2-4.4,1.1-6.6,1.5c-3.3,2.7-6.9,1.8-10.3,0.7c-7.6-2.5-15.5-4.4-21.2-10.6
		c-0.3-1.5,0.5-2.3,1.8-2.8C490.9,849.5,502.8,853.7,516,854z"/>
	<path class="st28" d="M531.9,502.7c0,0.6,0,1.2,0,1.7c-0.4-0.1-0.9-0.1-1.3-0.1c-5.5-3.9-4.6-7.2,0.4-11.1
		c6.5-5.2,11.4-12.2,18.4-16.9c-2.9,8.2-11.6,11.6-15.9,18.7C532,497.4,532.6,500.1,531.9,502.7z"/>
	<path class="st35" d="M517.6,540.9c-5.1-2.1-8.7-6-12.1-9.9c-3.8-4.5-7.5-5-11.9-1.3c4-8.2,4.9-8.5,11.1-2.7
		c4.4,4,8.6,8.2,12.9,12.3c0.5,0.4,0.7,0.7,0.5,1.1C517.9,540.8,517.8,540.9,517.6,540.9z"/>
	<path class="st36" d="M598.4,847.6c9.2-4.8,17.1-11.2,23.8-19.1c1.5-0.5,2,0.5,2.3,1.6c0,1.6-0.8,2.9-1.7,4.1
		c-6.5,6.8-12.9,13.6-22.6,15.8C599,849.7,598.1,849.1,598.4,847.6z"/>
	<path class="st37" d="M345.4,757.5c2.1,13.6,2.1,27.3,0,40.9C345.4,784.7,345.4,771.1,345.4,757.5z"/>
	<path class="st38" d="M533.3,556.7c0-0.4,0-0.9,0-1.3c-0.5-0.7-0.5-1.3,0.1-1.9c6.1,4.9,12.1,10,17.4,15.9c0.5,0.4,0.6,0.8,0.4,1.2
		c-0.2,0.4-0.4,0.6-0.5,0.6C543.3,568.2,540,560.4,533.3,556.7z"/>
	<path class="st39" d="M533.5,553.4c0,0.6-0.1,1.3-0.1,1.9c-6.7-3.2-11.1-9-15.7-14.4c0-0.5,0-1.1,0-1.6
		C523.4,543.4,528.5,548.3,533.5,553.4z"/>
	<path class="st40" d="M440.4,160.2c-6,2.4-11.9,4.8-17.9,7.3c-0.7-0.2-1.3-0.7-1.6-1.4c5.4-3.7,11.5-5.7,17.7-7.4
		C439.4,159.1,440.3,159.2,440.4,160.2z"/>
	<path class="st41" d="M259.7,555.1c0.6,0,1.2,0,1.7,0.1c0.5,0.4,0.6,0.7,0.4,1c-0.2,0.3-0.3,0.5-0.5,0.5c-2.7,3.6-5.7,6.9-9.5,9.5
		c-0.5-0.5-1-1-1.5-1.5C253,560.9,255.9,557.6,259.7,555.1z"/>
	<path class="st42" d="M626.7,821.9c2.2-4.7,4.5-9.3,6.7-14c0.9-0.4,1.5-0.2,2.1,0.6c0.8,6.7-2.2,11.7-7.2,15.7
		C626.9,824,625.8,823.6,626.7,821.9z"/>
	<path class="st35" d="M332.2,559.9c-2.6,0-3.9-2.5-6-3.3c-2-2.4-7.1-0.9-7.2-5.8c0.4-1.2,1.2-1.9,2.3-2.1c4.3,3.7,8.6,7.3,12.9,11
		C333.7,560.6,333,560.6,332.2,559.9z"/>
	<path class="st43" d="M297.8,531.4c0.5-0.5,1-1,1.5-1.6c4.3,3.7,8.6,7.3,12.9,11c-0.3,1.2-1.1,1.9-2.3,2.2
		C304.4,540.6,299.9,537.2,297.8,531.4z"/>
	<path class="st44" d="M465.5,829.9c3.2,3.2,6.4,6.4,9.6,9.6c-0.2,1.1-1,1.8-2,2.2c-3.9-0.3-5.7-3.6-8.3-5.9
		c-0.9-1.1-1.6-2.3-1.5-3.8C463.7,830.8,464.4,830.1,465.5,829.9z"/>
	<path class="st45" d="M363.9,232.5c-0.4,0-0.8,0.2-1.2,0.3c-1-0.1-1.2-1.1-1.6-1.8c1.4-4.6,3.1-9,6-12.9c1.2,0.3,1.9,1,2.3,2.1
		c0.1,0.7,0.1,1.4-0.1,2.1C367.7,225.8,367,229.8,363.9,232.5z"/>
	<path class="st46" d="M695,186.8c-5.5-0.1-7.5-5.2-11.3-7.8c0.2-0.9,0.7-1.4,1.6-1.6C689,180,693.5,181.9,695,186.8z"/>
	<path class="st35" d="M332.2,559.9c0.7-0.1,1.4-0.1,2.1-0.2c3.8,3,8,5.3,10.6,9.6C338.5,569.2,336,563.6,332.2,559.9z"/>
	<path class="st46" d="M386.3,192.8c-0.6,5.2-5.3,7.6-7.9,11.5c-1-0.1-1.1-1-1.5-1.7C379.4,198.7,381.7,194.6,386.3,192.8z"/>
	<path class="st47" d="M411.8,173.2c-3.2,2.4-6.5,4.7-9.7,7.1c-0.7-0.4-1.6-0.5-1.8-1.5c3.3-3.3,7.1-5.8,11.3-7.7
		C412.5,171.7,412.6,172.4,411.8,173.2z"/>
	<path class="st46" d="M709,204.3c-2.4-4-7.4-6.2-7.8-11.5c4.6,1.9,6.8,6.1,9.4,9.9C710.1,203.2,710,204.1,709,204.3z"/>
	<path class="st39" d="M310.4,542.3c0.6-0.5,1.2-1,1.8-1.5c3.1,2.7,6.2,5.3,9.3,8c-0.5,0.5-1,1-1.5,1.6
		C314.4,550.3,312.3,546.5,310.4,542.3z"/>
	<path class="st48" d="M598.4,847.6c0.6,0.5,1.1,1,1.7,1.6c-1.3,5-5.5,4.9-9.3,5.4c-1.6-0.3-3-1-3.8-2.5
		C590.7,850.6,594.5,849.1,598.4,847.6z"/>
	<path class="st49" d="M679,175.7c-3-2.8-8.3-2.7-9.4-7.7c4.4,0.7,7.8,3.4,11.1,6.1C680.6,175.1,679.7,175.2,679,175.7z"/>
	<path class="st50" d="M400.3,178.8c0.6,0.5,1.2,1,1.8,1.5c-3.3,2-5.2,6-9.5,6.5C393.5,182.5,397.2,181,400.3,178.8z"/>
	<path class="st51" d="M715.6,210.1c3.3,3,4.2,7.4,6.3,11.2c0.8,1.7-0.3,2.1-1.6,2.3c-4.2-2.6-5.9-6.6-6-11.4
		C714.4,211.3,714.9,210.7,715.6,210.1z"/>
	<path class="st52" d="M734.1,265.9c-2,1.8-0.9,4.3-1.5,6.5c-0.9,0-1.6-0.3-2.2-1c-1.7-3.2-1.3-6.5-0.5-9.8c0.6-1.6,1.4-3.1,3-3.9
		C734.4,260.3,734.5,263,734.1,265.9z"/>
	<path class="st53" d="M720.3,223.1c0.5-0.6,1.1-1.2,1.6-1.8c2.3,2.9,3.5,6.3,4.4,9.8c-0.4,0.7-0.5,1.6-1.6,1.8c-1-1.7-2-3.3-3-5
		C720,226.7,718.4,225.4,720.3,223.1z"/>
	<path class="st54" d="M361.2,231.1c0.5,0.6,1,1.2,1.6,1.8c-1.2,3.3-1.3,7.1-3.6,10C355.7,238.2,360.3,235,361.2,231.1z"/>
	<path class="st55" d="M376.9,202.6c0.5,0.6,1,1.1,1.5,1.7c-0.5,1.1-1,2.1-1.6,3.2c-1,2.2-1.2,5-4.4,5.5c-0.8,0-1.4-0.3-1.9-0.8
		C372.1,208.5,374.3,205.5,376.9,202.6z"/>
	<path class="st56" d="M653.7,163.2c-4.3-1.6-8.5-3.2-12.8-4.8c0.4-0.7,0.9-1.1,1.7-1.3c3.6,1.6,8,1.3,11.2,4.2
		c0.4,0.4,0.5,0.8,0.4,1.2C654,163,653.8,163.2,653.7,163.2z"/>
	<path class="st54" d="M724.7,232.9c0.5-0.6,1-1.2,1.6-1.8c1.8,3.5,2.8,7.2,3.4,11C724.7,240.8,726.6,235.8,724.7,232.9z"/>
	<path class="st57" d="M715.6,210.1c-0.1,0.8-0.3,1.7-0.4,2.5c-3.5,0-3.5-3-4.5-5.2c-0.5-1.1-1-2.1-1.6-3.2c0.5-0.5,1-1.1,1.5-1.6
		C712.6,204.9,714.6,207.2,715.6,210.1z"/>
	<path class="st58" d="M653.7,163.2c0-0.6,0.1-1.2,0.1-1.8c3.1-0.1,5.8,0.8,7.9,3.1c0.4,0.4,0.6,0.7,0.4,1.1
		c-0.1,0.4-0.3,0.5-0.4,0.5C658.7,165.9,656.1,164.9,653.7,163.2z"/>
	<path class="st59" d="M354.8,270.7c-0.2-1.7,0.3-3.6-1.4-4.8c-0.4-2.9-0.2-5.7,1.1-8.4c2,1.2,2.4,3.3,3.1,5.2
		c0.6,2.5,0.8,5-0.6,7.4C356.4,270.9,355.6,271.1,354.8,270.7z"/>
	<path class="st34" d="M578,855.5c-2.7-0.6-5.7,0.8-8.1-1.4c3.4-0.2,6.8-0.3,10.2-0.5c1.8-0.4,3.8-1.4,4.2,1.7
		C582.3,857.2,580.2,857.2,578,855.5z"/>
	<path class="st57" d="M370.6,212.1c0.6,0,1.1,0,1.7,0.1c1.5,3.8,0,6.3-3.6,7.8c-0.5-0.6-1-1.2-1.5-1.8
		C368.3,216.1,369.5,214.1,370.6,212.1z"/>
	<path class="st60" d="M634.7,807.9l-0.6,0l-0.6,0c-0.7-3.3,1.4-6.2,1.6-9.4c0.5,0.6,0.9,1.1,1.4,1.7c0.9,0.9,1.3,1.9,1.4,3.2
		C637.6,805.5,636.9,807.2,634.7,807.9z"/>
	<path class="st58" d="M661.6,166.2c0-0.5,0-1.1,0-1.6c2.6,0.2,4.7,1.3,6.5,3.2c-0.6,0.7-1.2,1.3-1.8,2
		C664.8,168.5,663.2,167.3,661.6,166.2z"/>
	<path class="st61" d="M626.7,821.9c0.5,0.6,1.1,1.2,1.6,1.9c0.5,3.6-0.7,6-4.6,6.4c-0.5-0.5-1-1.1-1.5-1.6
		C623.7,826.3,625.2,824.1,626.7,821.9z"/>
	<path class="st62" d="M728,246.9c0.7-0.8,1.3-1.6,2-2.3c2.8,2.3,0.3,6.2,2.5,8.7c-0.4,1.1-0.9,2.1-2.4,1.8
		C726.7,253,729.1,249.5,728,246.9z"/>
	<path class="st63" d="M679,175.7c0.6-0.5,1.1-1.1,1.7-1.6c1.5,1.1,3.1,2.2,4.6,3.3c-0.5,0.5-1.1,1-1.6,1.6
		C682.1,177.8,680.6,176.8,679,175.7z"/>
	<path class="st26" d="M642.6,157.1c-0.6,0.4-1.1,0.9-1.7,1.3c-2.9-0.3-6.3,0.6-7.8-3.1C636.3,155.9,639.4,156.5,642.6,157.1z"/>
	<path class="st26" d="M453.1,156.6c-1.7,2.2-4.2,1.6-6.5,1.8c-1.6,1-1.8,0-1.7-1.3C447.7,157.6,450.2,153.5,453.1,156.6z"/>
	<path class="st30" d="M584.1,855.1c-1-1.3-2.5-1.4-3.9-1.6c2-1.4,4.4-1.4,6.8-1.6c1.2,0.5,2.3,1.1,3.5,1.6
		C588.7,855.7,586.6,856.5,584.1,855.1z"/>
	<path class="st64" d="M550.8,571.1c0-0.6,0.1-1.2,0.1-1.8c4.7,2.1,3.6,4.2,0,6.2c-0.5-0.5-1-1-1.5-1.6
		C549.8,573,550.3,572,550.8,571.1z"/>
	<path class="st56" d="M444.9,157.1c0.6,0.4,1.1,0.9,1.7,1.3c-1.7,1.8-4,1.4-6.1,1.8c-0.6-0.5-1.2-1-1.8-1.5
		C440.8,158.4,442.4,156.1,444.9,157.1z"/>
	<path class="st65" d="M411.8,173.2c0-0.7-0.1-1.4-0.1-2.2c1.6-1,3.2-2,4.8-3c0.8,0.2,1.3,0.7,1.6,1.5
		C416,170.7,413.9,172,411.8,173.2z"/>
	<path class="st66" d="M418,169.5c-0.5-0.5-1.1-1-1.6-1.5c1.4-0.8,2.6-2.2,4.5-1.9c0.5,0.5,1.1,0.9,1.6,1.4
		c-0.5,0.5-1.1,0.9-1.6,1.4C420,169.1,419,169.3,418,169.5z"/>
	<path class="st67" d="M465.5,829.9c-0.5,0.6-1.1,1.2-1.6,1.7c-2.3-0.7-4.1-1.8-3.2-4.7c0.5-0.5,1-1,1.4-1.5
		C463.2,826.9,464.4,828.4,465.5,829.9z"/>
	<path class="st67" d="M473.4,841.1c0.6-0.5,1.2-1.1,1.7-1.6c1.5,1.1,3,2.3,4.5,3.4c-0.5,0.5-1,1-1.6,1.4
		C475.2,845.2,474.1,843.4,473.4,841.1z"/>
	<path class="st62" d="M356,262.6c-1.7-1.3-1.1-3.4-1.6-5.1c0.2-1.4,0.3-2.9,0.5-4.3c2.5-0.1,2.5,1.9,3.1,3.4
		C358.1,258.9,358.1,261.1,356,262.6z"/>
	<path class="st62" d="M359.4,242.8c-0.6,2.9-1.2,5.8-1.7,8.7c-1.7,0.2-2.4-0.5-1.7-2.2C356.3,246.7,355.4,243.5,359.4,242.8z"/>
	<path class="st68" d="M731.1,255c0.5-0.6,1-1.2,1.4-1.8c0.2,1.5,0.3,2.9,0.5,4.4c-0.5,1.1-1,2.2-1.5,3.4
		C729.5,259.1,729.5,257.1,731.1,255z"/>
	<path class="st69" d="M355.9,249.4c0.6,0.7,1.2,1.4,1.7,2.2c0.1,0.5,0.2,1.1,0.3,1.6c1,1.8,0.7,3.1-1.6,3.4c-0.5-1.1-1-2.2-1.5-3.3
		C354.7,251.8,354.9,250.5,355.9,249.4z"/>
	<path class="st70" d="M532,590c-7.4,8.4-15.3,16.3-23.8,23.6c-3.6,0.8-7.3,0.9-11,0.9c-66,0-132,0-198.1,0c-3.7,0-7.4-0.1-11-1
		c-8.5-7.3-16.4-15.2-23.7-23.7c1.5-5.6,6.1-3.1,9.2-3.1c82.6-0.1,165.2-0.1,247.9-0.1c1.8,0,3.7,0,5.5,0
		C529.4,586.7,531,587.9,532,590z"/>
	<path class="st71" d="M354.8,270.7c0.4-0.1,0.8-0.2,1.3-0.2c1.3,0.9,1.9,2.2,2.2,3.7c0.8,5.7,0.4,11.5,0.4,17.2
		c0.2,7.3,0.2,14.5,0,21.8c0.2,7.3,0.2,14.7,0,22c0.2,6.3,0.2,12.7,0,19c0.2,6.3,0.2,12.7,0,19c0.2,5.8,0.2,11.7,0,17.5
		c0.2,7.3,0.2,14.7,0,22c0.2,7.8,0.2,15.7,0,23.5c0.2,5.9,0.2,11.7,0,17.6c0.2,7.4,0.2,14.7,0,22.1c0.2,7.9,0.2,15.8,0,23.7
		c0.6,14.9,0.6,14.9,15.5,14.9c18.7,0,37.4,0,56.1,0c3.9,0,8-0.5,11.3,2.4c0,13.2,0,26.4,0,39.5c-25.5,0-50.9,0.3-76.4-0.2
		c-7.6-0.1-9.7,2.4-9,9.4c0.3,3.2,1.3,6.8-1.4,9.8C354.8,474,354.8,372.3,354.8,270.7z"/>
	<path class="st15" d="M310.4,542.3c3.2,2.7,6.4,5.3,9.5,8c0.8,3.4,5.7,2.7,6.3,6.3c-21.6,0-43.2,0-64.9,0c0-0.5,0-1,0.1-1.5
		c7.8-7.6,15.9-14.9,23.3-23c4.6-5,8.3-6.3,13-0.8C302,535,306.2,538.7,310.4,542.3z"/>
	<path class="st72" d="M368.7,220c1.2-2.6,2.4-5.2,3.6-7.8c1.5-1.6,3-3.1,4.6-4.7c1.5,3.3,4.6,3,7.5,3c106.3,0,212.5,0,318.8,0
		c2.9,0,5.9,0.3,7.5-3.1c1.5,1.7,3,3.5,4.5,5.2c1.7,3.5,3.4,7,5.1,10.5c0.5,1.6,1,3.2,1.5,4.7c-34.1,0-68.2,0-102.4,0
		c-4.5,0-8.9,0.3-13.2,1.6c-4.2,0.7-6.5-3-9.6-4.6c-5.9-3.1-11.9-5.6-18.3-7c-3.3-1.1-6.8-1.3-10.3-1.9c-18.3,0-36.7,0-55,0
		c-3.1,0-6.3,0.1-9.3,0.8c-5-0.4-9.7,1.2-14.4,2.4c-5.8,1.2-10.7,4.8-16.4,6c-31.8,1.1-63.6,0.4-95.3,0.4c-3.4,0-7-0.2-8.7-4
		C368.8,221,368.8,220.5,368.7,220z"/>
	<path class="st73" d="M725,495c-0.1,70.8-0.1,141.6-0.2,212.5c0,5.5-0.1,11.1-0.2,16.6c-4.1-1.1-3.4-4.7-3.6-7.6
		c-0.3-5.9-0.3-11.8,0-17.7c-0.3-10.5-0.3-20.9,0-31.4c-0.3-10-0.3-20,0-30c-0.3-10.5-0.3-21,0-31.6c-0.2-9.9-0.3-19.9,0-29.8
		c-0.2-3.4-0.1-6.8-0.1-10.3c0-10.9-0.3-11.3-10.9-11.3c-19.5,0-39-0.1-58.5,0c-8.8,0-9.4,0.8-9.5,9.5c-0.1,3.9,0.1,7.9-0.1,11.8
		c0.3,9.9,0.3,19.8,0,29.7c0.3,5.4,0.3,10.9,0,16.3c-0.2,2.9,0.5,6.5-3.6,7.6c-0.1-40-0.1-80-0.2-120c0-4.7-0.1-9.5-0.2-14.2
		c1.4,0.6,1.7,1.8,1.7,3.1c2.5,2.8,2.4,6.3,2.4,9.7c0,4.6,2.1,6.7,6.7,6.8c21.9,0.1,43.7,0.1,65.6,0c4.6,0,6.7-2.2,6.7-6.8
		c0-3.4-0.1-6.9,2.4-9.7C723.4,496.8,723.7,495.6,725,495z"/>
	<path class="st74" d="M833.7,498.2c-6.3,8.3-14,15.3-21.6,22.3c-17.4,0.8-34.8,1.5-52.2-0.3c-8.3-6.5-16.5-13-23.8-20.5
		c4.3-1.4,8.7-1.6,13.2-1.6c24.4,0.1,48.9,0.1,73.3,0c2.8,0,5.8,1,8.3-1.3C831.7,497.3,832.7,497.8,833.7,498.2z"/>
	<path class="st74" d="M531.9,502.7c-3.2-3.3-2.6-5.8,1.5-7.7c2.9,3.5,6.9,3.2,10.8,3.2c27.5,0,55.1,0,82.6,0
		c-6.3,7.4-13.2,14.2-20.5,20.6c-2.3,1.2-4.8,2.3-7.5,2.3c-15-0.1-30,0.9-45-0.6c-6.2-2.5-9.5-8.4-14.5-12.4
		C537,506.2,534.4,504.5,531.9,502.7z"/>
	<path class="st74" d="M723.3,498.2c0,19,0,19-18.7,19c-19.1,0-38.3-0.3-57.4,0.2c-6.5,0.1-8.4-2.1-7.8-8.1c0.4-3.6,0.1-7.3,0.1-11
		C667.4,498.2,695.4,498.2,723.3,498.2z"/>
	<path class="st75" d="M622,916.8c-57.4,2.7-114.9,2.8-172.3,0c0.2-2.8,2.5-2.9,4.4-3.5c26.6-0.9,53.2-0.2,79.9-0.4
		c25-0.1,50.1,0,75.1,0c3.9,0,7.9-0.4,11.7,1.3C621.9,914.8,622.3,915.6,622,916.8z"/>
	<path class="st76" d="M699.5,869.6c0.7,0.1,1.5,0.1,2.2,0.2c-11.1,14.9-24.4,27.2-41.8,34.6c-0.2-0.3-0.4-0.6-0.6-0.9
		c1.3-5.9,7.5-6.5,10.9-10.1c8-4.7,15-10.5,20.7-17.9C693.1,872.6,694.9,868.9,699.5,869.6z"/>
	<path class="st77" d="M389.5,890c0.5-0.5,1-1,1.5-1.4c4.7-0.6,6.9,3.8,10.6,5.3c7.2,4.3,14.2,8.7,22.2,11.5c2.2,0.8,4.4,1.7,5.6,4
		c-0.2,1.3-0.7,2.3-2.3,1.5C412.9,906.9,400.7,899.4,389.5,890z"/>
	<path class="st78" d="M622,916.8c0-0.5,0-1,0-1.5c0-2.9,2.5-3,4.4-3.5c9.2-2.2,18.1-4.9,26.8-8.5c2.4-1,5-2,6.8,1.1l0,0
		C648.4,911.7,635.4,914.9,622,916.8z"/>
	<path class="st79" d="M427.1,910.8c0.6-0.5,1.3-1,1.9-1.5c8.6-0.5,17,0,24,5.9c-1.1,0.5-2.2,1-3.3,1.4
		C442,915.4,434.2,914.6,427.1,910.8z"/>
	<path class="st80" d="M577.5,452.2c4.8-5.8,10.1-11.1,16-15.9c4.7,0.6,9.4,0.8,14.1,0.8c54.4-0.2,108.7,0.4,163.1-0.3
		c6.4,3,8.8,10.1,14.1,14.2c-2.6,2.7-6,2.9-9.5,2.9c-62.6,0-125.2,0-187.8,0C584,454,580.9,452.9,577.5,452.2z"/>
	<path class="st81" d="M457.5,664.2c0.5,0.5,1.1,1,1.6,1.5c-5.8,6.8-12.1,13.1-19.1,18.8c-0.5-0.5-1-1-1.5-1.5
		c-0.4-5.3,4.7-7,7-10.4C449.6,670,451.4,663.9,457.5,664.2z"/>
	<path class="st82" d="M731.1,255c0.1,2,0.2,4,0.4,6c0,3.7-0.1,7.4-0.1,11.1c-0.4,0.4-0.8,0.7-1.1,1.1c-3.1,1.7-6.6,1.5-10,1.5
		c-26,0-51.9,0.1-77.9,0c-4.3,0-9.1,0.8-12-4c-0.8-6.9-4.8-12.7-6.6-19.2c4.5-2.4,9.3-3,14.3-3c27.3,0,54.5,0.1,81.8,0
		c2.8,0,5.8,1,8.2-1.5C730.8,249,728.6,252.9,731.1,255z"/>
	<path class="st83" d="M579.3,217c10.1,1.6,18.5,7,27,12.4c3.7,4.2,7.4,8.4,11.1,12.6c0.7,1.7-0.1,1.9-1.5,1.6
		c-9.9-12.7-22.9-20.7-38.2-25.2C578,217.8,578.6,217.3,579.3,217z"/>
	<path class="st84" d="M615.9,243.6c0.5-0.5,1-1.1,1.5-1.6c2,1.6,3,3.8,3.5,6.3c-0.6,0-1.2,0.1-1.8,0.1
		C618,246.8,617,245.2,615.9,243.6z"/>
	<path class="st85" d="M356.3,273.7c-0.1-1.1-0.2-2.1-0.3-3.2c0-2.6,0-5.3,0-7.9c0.1-2,0.2-4,0.4-6.1c0.5-1.1,1-2.3,1.6-3.4
		c30,0,60,0,90,0c-2.1,6.9-4.2,13.7-6.2,20.6c-3,2.7-6.8,2.5-10.4,2.5c-21.5,0.1-43,0.1-64.6,0C363.1,276.2,359.3,276.4,356.3,273.7
		z"/>
	<path class="st86" d="M368.8,221.5c3.1,1.9,6.5,1.6,9.9,1.6c32.2,0,64.4,0.1,96.7,0.1c-1.3,4.5-5.7,5.3-8.9,7.5
		c-1.9,1.2-3.7,2.5-5.6,3.7c-2.4-3.1-5.8-1.9-8.8-1.9c-29.4-0.1-58.8-0.1-88.2-0.1C364.5,228.4,366.1,224.7,368.8,221.5z"/>
	<path class="st87" d="M625.2,404.9c5.8-6.8,12.2-13.1,19-18.9c1.3,1.7,3.2,1.5,5,1.5c22.1,0,44.2,0,66.3,0c1.6,0,3.2,0,4.4-1.3
		c7.4,5.3,13.3,12,19,19c-2.1,6.5-7.9,5.2-12.5,5.3c-22.9,0.3-45.7,0.1-68.6,0.1c-7.9,0-15.8,0.3-23.6-0.2
		C630.4,410.1,626.2,410.1,625.2,404.9z"/>
	<path class="st29" d="M501.9,215.4c22.6-0.6,45.3-0.7,67.9,0.1c0.4,0.3,0.5,0.7,0.3,1c-0.1,0.3-0.3,0.5-0.4,0.5
		c-21,0-42,0-63.1-0.1C504.9,217.2,502.5,219.2,501.9,215.4z"/>
	<path class="st88" d="M466.5,230.8c3-2.5,5.9-5,8.9-7.5c4.2-2.5,8.6-4.5,13.6-5c1.6-0.7,3.3-1.5,3.3,1.5
		c-8.4,2.5-16.2,6.2-23.3,11.4C468.1,231.1,467.3,230.9,466.5,230.8z"/>
	<path class="st89" d="M492.2,219.8c-1.1-0.5-2.2-1-3.3-1.5c4.1-2,8.4-3.2,13-2.9c1.2,1.7,3.2,1.1,4.8,1.5
		C501.9,217.9,497.1,218.8,492.2,219.8z"/>
	<path class="st90" d="M569.8,217c0-0.5,0-1,0-1.5c3.3-0.6,6.3,0.7,9.4,1.6c-0.5,0.5-1.1,0.9-1.6,1.4
		C575,218.2,572.2,218.9,569.8,217z"/>
	<path class="st91" d="M636.6,803.2c-0.1-1-0.1-2-0.2-3c2.7-3.4,0.9-7.6,1.8-11.3c1.9-7-1.3-14.5,1.9-21.4c2.9-1.7,6-1.6,9.2-1.6
		c21.4-0.1,42.9-0.1,64.3,0c3.4,0,6.9-0.2,9.8,2.1c1.4,11.8,1.2,23.6,0.1,35.5c-2.9,2.3-6.3,2.3-9.7,2.3c-22.5,0.1-45,0.1-67.5,0
		C642.8,805.7,639.3,805.9,636.6,803.2z"/>
	<path class="st92" d="M723.3,803.2c0-11.6,0-23.2,0-34.8c-4.4-6.8-2.2-14.3-2.4-21.5c-0.4-13.9-0.1-13.9-13.9-13.9
		c-18.7,0-37.4-0.1-56.1,0c-8.2,0.1-8.9,0.8-9,9.1c-0.1,5.5,0,11-0.1,16.6c-0.1,3.4,0,6.9-2.4,9.7c-0.8,6.8,1.6,13.8-1.3,20.4
		c0-22.1,0-44.3,0-66.4c1.2-5.7,0.2-11.4,0.6-17.1c0.2-2.5-0.9-5.2,1.3-7.4c2.8-1.8,6-1.7,9.2-1.7c21.2-0.1,42.5-0.1,63.7,0
		c3.7,0,7.4-0.2,10.4,2.5c0.8,8.4-1.6,16.9,1.3,25.2c0.1,25,0.1,50,0.2,74.9c0,2.1,0.3,4.3-1.3,6c-0.4-0.4-0.6-0.7-0.5-1.1
		C723,803.4,723.1,803.2,723.3,803.2z"/>
	<path class="st93" d="M639.5,698.9c-0.7,7.9,1.5,15.9-1.3,23.6c0-31.1,0-62.2,0-93.3c2.9-7.7,0.6-15.8,1.3-23.6
		c2.8-2.5,6.2-2.5,9.7-2.5c21.5-0.1,43-0.1,64.5,0c3.4,0,6.9,0,9.6,2.5c0,10.5,0,21.1,0,31.6c-3.3,2.9-7.3,2.5-11.2,2.5
		c-19.9,0.1-39.8,0-59.8,0.1c-9.6,0-10.2,0.7-10.4,10.3c-0.1,5.8,0.2,11.5-0.2,17.3c0.4,7.6,0.2,15.2,0.1,22.7
		C641.9,693.2,641.8,696.4,639.5,698.9z"/>
	<path class="st71" d="M553.9,520.5c1.9-2.6,4.7-1.7,7.2-1.8c15.1,0,30.2,0,45.3,0c-7.8,8.1-15.7,16.1-23.5,24.2
		c-1.8,1.8-3.2,2.3-5.2,0.2C570.2,535.2,560.7,529.3,553.9,520.5z"/>
	<path class="st94" d="M288.2,613.6c2.3-2.6,5.4-1.6,8.2-1.6c67.9-0.1,135.8-0.1,203.7,0c2.8,0,5.9-1,8.2,1.6
		c-9.6,10.4-19.2,20.7-30.2,29.7c-53.2-0.4-106.5-1.1-159.7,0.4C307.7,634.1,297.6,624.2,288.2,613.6z"/>
	<path class="st95" d="M318.2,643.7c1.6-3.7,5-3.2,8.1-3.2c48,0,96.1,0,144.1,0c2.9,0,5.9-0.3,7.6,2.9c-7.7,6.1-12.3,15.2-20.4,20.9
		c-3.6,3.1-7.3,6.3-10.9,9.4c-3.1,1.7-6.3,2.5-9.8,2.5c-26.6,0-53.2,0-79.8,0c-2.4,0-4.7-0.6-7-0.9
		C338.8,665.2,328.2,654.7,318.2,643.7z"/>
	<path class="st96" d="M349.9,675.3c2-2.5,4.9-1.6,7.4-1.6c29.8,0,59.6,0,89.3,0c-2.7,3.1-5.4,6.3-8.1,9.4
		c-12,11.8-24.2,23.4-36,35.4c-3.8,3.8-6.1,4.3-10,0.2C378.5,704,364.1,689.7,349.9,675.3z"/>
	<path class="st97" d="M356.3,273.7c28.5,0,57,0,85.4,0c0.1,2.1,0.1,4.2,0.2,6.4c-0.2,3.7-0.3,7.3-0.5,11c-3,2.9-6.8,2.5-10.4,2.5
		c-21.5,0.1-42.9,0.1-64.4,0c-3.6,0-7.4,0.2-10.4-2.5C356.3,285.3,356.3,279.5,356.3,273.7z"/>
	<path class="st98" d="M770.8,436.9c-0.8,3.8-4,2.8-6.4,2.8c-54.7,0-109.4,0-164.1,0c-2.7,0-6.1,1.1-6.8-3.3
		c4.8-5.7,10-11,15.8-15.7c23.1,1.6,46.2,0.6,69.2,0.7c25.4,0.1,50.9,0.4,76.3-0.2C761.2,425.3,766,431.1,770.8,436.9z"/>
	<path class="st99" d="M754.9,421.1c-0.8,3.8-4,2.8-6.4,2.8c-44.1,0.1-88.2,0.1-132.4,0c-2.7,0-6.1,1.2-6.8-3.2
		c4.8-5.8,10-11,15.8-15.7c2.2,2.7,5.2,3.2,8.5,3.2c32.2,0,64.5,0,96.7,0c3.3,0,6.3-0.4,8.6-2.9
		C745.4,409.4,750.1,415.2,754.9,421.1z"/>
	<path class="st100" d="M723.3,803.2c0.1,0.6,0.1,1.2,0.2,1.7c-0.6,6.7-1.2,13.4-1.9,20.1c-1.4,3.3-2.9,6.6-4.3,9.9
		c-2,0.9-4,1-6.2,1c-26.2-0.3-52.5,0-78.7-0.2c-3.6,0-7.4,0.4-10.4-2.5c0.6-1,1.1-2.1,1.7-3.1c1.5-2.1,3.1-4.2,4.6-6.4
		c2.4-5.2,6.3-9.7,6.3-15.8c0.6-1.6,1.3-3.1,1.9-4.7C665.5,803.2,694.4,803.2,723.3,803.2z"/>
	<path class="st91" d="M449.5,795.4c-1.7,3.2,0.8,6.2,0.4,9.3c-2.9,3-6.8,2.6-10.4,2.6c-26.8,0.1-53.7,0.1-80.5,0
		c-3.7,0-7.5,0.3-10.5-2.5c-0.1-0.5-0.3-1-0.4-1.6c0.1-12.3,0.4-24.7,0.1-37c-0.2-6,1.9-7.5,7.7-7.4c28.4,0.3,56.7,0.2,85.1,0
		c5.4,0,7.2,1.5,7.3,7.1C448.4,775.7,446.4,785.7,449.5,795.4z"/>
	<path class="st101" d="M356.3,499.7c0-7.9,0-15.8,0-23.7c2.8-2.5,6.2-2.5,9.6-2.5c22-0.1,44-0.1,66,0c3.4,0,6.9-0.1,9.6,2.5
		c0,7.9,0,15.8,0,23.7c-3,2.8-6.8,2.5-10.4,2.5c-21.5,0.1-42.9,0.1-64.4,0C363.1,502.3,359.3,502.5,356.3,499.7z"/>
	<path class="st102" d="M356.3,436.5c0-7.9,0-15.8,0-23.7c2.8-2.5,6.2-2.5,9.6-2.5c22-0.1,44-0.1,66,0c3.4,0,6.9-0.1,9.6,2.5
		c0,7.9,0,15.8,0,23.7c-3,2.8-6.8,2.5-10.4,2.5c-21.5,0.1-42.9,0.1-64.4,0C363.1,439,359.3,439.2,356.3,436.5z"/>
	<path class="st103" d="M441.5,476c-28.4,0-56.8,0-85.2,0c0-7.4,0-14.7,0-22.1c2.8-2.5,6.2-2.5,9.6-2.5c22-0.1,44-0.1,66,0
		c3.4,0,6.9-0.1,9.6,2.5C441.5,461.3,441.5,468.6,441.5,476z"/>
	<path class="st104" d="M356.3,291.1c28.4,0,56.8,0,85.2,0c0,7.4,0,14.7,0,22.1c-3,2.9-6.8,2.5-10.4,2.5c-21.5,0.1-42.9,0.1-64.4,0
		c-3.6,0-7.4,0.2-10.4-2.5C356.3,305.9,356.3,298.5,356.3,291.1z"/>
	<path class="st87" d="M441.5,412.8c-28.4,0-56.8,0-85.2,0c0-7.4,0-14.7,0-22.1c2.8-2.5,6.2-2.5,9.6-2.5c22-0.1,44-0.1,66,0
		c3.4,0,6.9-0.1,9.6,2.5C441.5,398,441.5,405.4,441.5,412.8z"/>
	<path class="st105" d="M356.3,313.2c28.4,0,56.8,0,85.2,0c0,7.4,0,14.8,0,22.1c-3,2.9-6.8,2.5-10.4,2.5c-21.5,0.1-42.9,0.1-64.4,0
		c-3.6,0-7.4,0.2-10.4-2.5C356.3,328,356.3,320.6,356.3,313.2z"/>
	<path class="st106" d="M356.3,335.4c28.4,0,56.8,0,85.2,0c0,6.3,0,12.6,0,19c-3,2.9-6.8,2.5-10.4,2.5c-21.5,0.1-42.9,0.1-64.4,0
		c-3.6,0-7.4,0.2-10.4-2.5C356.3,348,356.3,341.7,356.3,335.4z"/>
	<path class="st107" d="M356.3,354.3c28.4,0,56.8,0,85.2,0c0,6.3,0,12.6,0,19c-3,2.9-6.8,2.5-10.4,2.5c-21.5,0.1-42.9,0.1-64.4,0
		c-3.6,0-7.4,0.2-10.4-2.5C356.3,367,356.3,360.6,356.3,354.3z"/>
	<path class="st74" d="M356.3,499.7c28.4,0,56.8,0,85.2,0c0,5.8,0,11.6,0,17.4c-25,0-50.1,0-75.1,0c-10.2,0-10.2,0-10.2-10.3
		C356.3,504.5,356.3,502.1,356.3,499.7z"/>
	<path class="st108" d="M356.3,373.3c28.4,0,56.8,0,85.2,0c0,5.8,0,11.6,0,17.4c-28.4,0-56.8,0-85.2,0
		C356.3,384.9,356.3,379.1,356.3,373.3z"/>
	<path class="st109" d="M441.5,453.9c-28.4,0-56.8,0-85.2,0c0-5.8,0-11.6,0-17.4c28.4,0,56.8,0,85.2,0
		C441.5,442.3,441.5,448.1,441.5,453.9z"/>
	<path class="st71" d="M759.8,520.2c17.4-2.2,34.8-3,52.2,0.3c-5.5,7.6-12.5,14-18.8,20.9c-3.3,3.7-5.7,3.4-9,0.5
		C776.2,534.7,768,527.5,759.8,520.2z"/>
	<path class="st110" d="M400.6,894.8c-3.2-2.1-6.4-4.2-9.5-6.2c-7.8-7.1-15.8-14-20.8-23.6c2.9-3,6.8-2.6,10.4-2.6
		c103.2-0.1,206.4-0.1,309.5,0c3.8,0,8.6-1.4,10.8,3.8c-0.5,1.1-1,2.3-1.5,3.4c-8.2,6.2-12.7,16-21.8,21.2c-2.2,1.3-4,3.3-6.7,3.9
		c-83.8-0.9-167.7-0.2-251.5-0.4C413.2,894.3,406.9,894.2,400.6,894.8z"/>
	<path class="st111" d="M701,866.2c-1.9-2-4.5-1.3-6.7-1.3c-108,0-216,0-324,0c-6.9-7.8-11.4-16.8-14.2-26.7
		c0.2-5.3,4.3-5.4,7.9-5.7c5.8-0.5,11.6-0.2,17.4-0.2c23.7,0,47.5,0,71.2,0c4.5,0,9-0.1,13,2.5c2.6,2.1,5.2,4.2,7.8,6.3
		c1.6,1.1,3.2,2.2,4.7,3.2c9.5,6.5,19.6,11.1,31.3,11.2c2,1.7,4.4,1.3,6.8,1.3c18.4,0,36.7,0,55.1,0c2.3,0,4.8,0.4,6.8-1.4
		c2-0.1,4-0.2,6.1-0.4c2.1-0.5,4.2-1,6.3-1.5c3.2-1.5,7-1.7,9.7-4.4c8.7-3.4,15.1-10.1,22-16c28.4,0,56.9,0,85.3,0
		c3.4,0,6.9-0.2,9.9,1.7C714.6,846.8,708.7,856.9,701,866.2z"/>
	<path class="st100" d="M465.5,834.8c-33.3,0-66.6,0-99.8,0.1c-3.5,0-7.6-1.1-9.6,3.4c-5.1-10.6-7.4-21.8-7.6-33.4
		c33.8,0,67.6-0.1,101.4-0.1c3.5,7.5,5.3,15.7,10.8,22.2c1.1,1.6,2.2,3.2,3.2,4.7C464.5,832.7,465,833.7,465.5,834.8z"/>
	<path class="st104" d="M731.3,272.1c0.4,0.1,0.9,0.1,1.3,0.3c0,11-0.3,22.1,0.1,33.1c0.2,5.8-1.8,7.8-7.7,7.7
		c-31-0.3-62.1-0.1-93.1-0.2c-2.2-7.9-1.2-15.8-0.5-23.7c3.4-2.8,7.5-2.2,11.4-2.2c24-0.1,47.9,0,71.9,0c11.9,0,11.9,0,14.7-11.4
		c0.3-1.3,1-2.4,1.8-3.5L731.3,272.1z"/>
	<path class="st112" d="M631.8,289.5c0,7.8,0.1,15.7,0.2,23.5c-0.6,0.1-1.2,0.2-1.8,0.4c0.4-11.6-1.6-23.3,1-34.9
		C634.6,282,634.2,285.7,631.8,289.5z"/>
	<path class="st97" d="M631.8,289.5c-0.2-3.7-0.4-7.4-0.6-11.1c-0.3-2.6-0.5-5.2-0.8-7.8c2.8,1.9,6,1.5,9.2,1.5
		c30.5,0,61.1,0,91.6,0c0.3,17.3,0.3,17.3-17.3,17.3C686.5,289.5,659.1,289.5,631.8,289.5z"/>
	<path class="st96" d="M639.5,698.9c0-10.5,0-21.1,0-31.6c2.8-2.5,6.2-2.5,9.7-2.5c21.5-0.1,43-0.1,64.5,0c3.4,0,6.9,0,9.7,2.5
		c0,10.5,0,21.1,0,31.6C695.4,698.9,667.4,698.9,639.5,698.9z"/>
	<path class="st113" d="M723.3,667.3c-27.9,0-55.9,0-83.8,0c0-7.3,0.4-14.7-0.1-22c-0.5-6.8,2.2-8.3,8.5-8.2
		c25.1,0.3,50.3,0.1,75.4,0.1C723.3,647.3,723.3,657.3,723.3,667.3z"/>
	<path class="st114" d="M723.3,605.6c-27.9,0-55.9,0-83.8,0c0-10,0-20,0-30c2.8-2.5,6.2-2.5,9.7-2.5c21.5-0.1,43-0.1,64.5,0
		c3.4,0,6.9,0,9.7,2.5C723.3,585.6,723.3,595.6,723.3,605.6z"/>
	<path class="st115" d="M723.3,575.6c-27.9,0-55.9,0-83.8,0c0-6,0.1-12.1,0-18.1c-0.1-3.9,1.2-5.7,5.4-5.7c24.4,0.1,48.8,0.1,73.2,0
		c4.2,0,5.5,1.8,5.4,5.7C723.2,563.6,723.3,569.6,723.3,575.6z"/>
	<path class="st116" d="M400.6,894.8c1.5-3.3,4.5-3.1,7.4-3.1c84.8,0,169.6,0,254.3,0c3.3,0,6.3,0.5,8.6,3c-2.8,4.2-9.3,4.3-11,9.7
		c-1.2-0.2-2.7-0.8-3.7-0.4c-10.9,5.6-22.9,7.5-34.4,11.3c-56.3,0-112.7,0-169,0c-8-2-16-4-24-5.9
		C419,905.6,409.1,901.6,400.6,894.8z"/>
	<path class="st117" d="M639.5,768.4c0-10.5,0.2-21-0.1-31.5c-0.1-4.6,1.1-6.6,6.2-6.6c23.9,0.2,47.8,0.2,71.7,0c5,0,6.3,2,6.2,6.6
		c-0.2,10.5-0.1,21-0.1,31.5C695.4,768.4,667.4,768.4,639.5,768.4z"/>
</g>
</svg>
