<?xml version="1.0" encoding="utf-8"?>
<!-- Generator: Adobe Illustrator 28.2.0, SVG Export Plug-In . SVG Version: 6.00 Build 0)  -->
<svg version="1.1" id="_Шар_2" xmlns="http://www.w3.org/2000/svg" xmlns:xlink="http://www.w3.org/1999/xlink" x="0px" y="0px"
	 viewBox="0 0 1087.1 924.3" style="enable-background:new 0 0 1087.1 924.3;" xml:space="preserve">
<style type="text/css">
	.st0{fill:#734B34;}
</style>
<g>
	<path class="st0" d="M829.9,762.3c9.2-11.8,8.4-23,0.1-35.4c-24.4-36.5-49.2-72.7-75.6-107.7c-3.2-4.2-3.5-7.3-0.7-11.8
		c22.8-37.1,23.5-75.9,8.1-115.7c-17-43.9-44.4-81.3-73.9-117.1c-59.8-72.7-130.7-132.1-214-176.3c-37.9-20.2-77.5-35.8-120.6-40.9
		c-22.6-2.6-45-1.7-66.6,7.1c-22.7,9.3-33.9,26.7-35.9,50.3c-2,23.3,4,45.3,12.3,66.7c19.5,50.3,47.8,95.7,78.4,139.7
		c34.5,49.5,71.5,97.1,113.9,140c25.9,26.2,54.3,49.5,87.2,66.6c27.2,14.1,55.2,17.6,83.5,2.9c16-8.3,29.7-19.8,41.9-33
		c4.9-5.2,7.9-4.6,11.4,0.7c0.7,1,1.5,2,2.2,3c9.6,12.1,9.6,12-2.1,22.7c-15.8,14.4-32.9,27.1-50,39.9c-12.2,9.1-15,23-7,33.8
		c8,10.8,22.3,12.6,34.5,3.7c19.8-14.5,39.4-29.3,56.9-46.6c4.6-4.6,6.7-3.5,10,1.1c23.6,32.2,46.4,64.9,68,98.5
		c5.7,8.8,13.3,13.8,24,13.6C820.8,766.2,825.3,764.3,829.9,762.3z M631.2,516.6c-9.8,4.2-18,2.2-26.6-7
		c-29.9-31.9-60.9-62.5-93.5-91.6c-35.9-32.1-73.5-62.1-112.8-89.9c-5-3.5-9.1-7.7-10.8-13.7c-2.5-8.9,0.7-18.2,7.7-23.2
		c8.5-6,17.9-5.6,27.6,1.2c64.8,45.8,124.7,97.3,180.6,153.5c11.5,11.6,23,23.3,33.9,35.5C648.6,494,645.5,510.5,631.2,516.6z"/>
</g>
</svg>
