<?xml version="1.0" encoding="utf-8"?>
<!-- Generator: Adobe Illustrator 28.2.0, SVG Export Plug-In . SVG Version: 6.00 Build 0)  -->
<svg version="1.1" id="Шар_1" xmlns="http://www.w3.org/2000/svg" xmlns:xlink="http://www.w3.org/1999/xlink" x="0px" y="0px"
	 viewBox="0 0 1080 1080" style="enable-background:new 0 0 1080 1080;" xml:space="preserve">
<style type="text/css">
	.st0{display:none;}
	.st1{display:inline;fill:#00A43C;}
	.st2{fill:#FFFFFF;}
	.st3{fill:#00C4CC;}
</style>
<g class="st0">
	<path class="st1" d="M749.3,40.3c28.4,7,52.9,20.1,70.8,44.1c28.4,38.2,29.9,89.4,3.7,129c-25.9,39.2-73.6,58.3-119.1,47.7
		c-46.1-10.7-80.5-49.1-86.1-96.2c-6.7-55.8,28.2-107.1,82.7-121.8c3.1-0.8,6.1-1.9,9.2-2.9C723.5,40.3,736.4,40.3,749.3,40.3z"/>
	<path class="st1" d="M625.3,460.2C609,482,594.4,504.3,581,527.4c-10.7,18.5-20,37.7-28.4,57.3c-6.3,14.6-15.4,26.1-31.4,30.6
		c-5.7,1.6-7.5,6.8-10,11.2C471,697,430.9,767.5,390.7,838c-22.4,39.3-44.7,78.7-67.3,117.9c-3.2,5.5-3.9,9.8-0.9,16
		c9,18.5,4.8,38.5-9.7,51.3c-14.7,12.9-35.9,14.8-52.3,4.6c-16.6-10.4-23.9-29.6-18-49.9c1.9-6.6-0.2-9.2-5.5-12.1
		c-14-7.5-27.7-15.3-41.5-23.2c-17.7-10.1-20.2-18.8-10.2-36.5c31.3-55.5,62.7-110.8,94.1-166.2c13.5-23.9,27-47.8,40.5-71.8
		c9.7-17.2,19.5-19.9,36.6-10.3c20,11.2,40.1,22.3,59.9,33.8c5.8,3.4,8.9,2.9,12.2-3c14.7-26.6,29.6-53.1,44.5-79.5
		c2.3-4,2.7-7.5-0.1-11.7c-9.9-14.8-9.4-30.3-2.7-46.2C494.7,493.3,528,440.8,566,391c24-31.4,49.6-61.3,77.5-89.2
		c42.7-42.7,100.5-46.4,148.4-9.2c24.2,18.8,46.8,39.8,70.8,58.9c36.2,28.6,74.5,53.7,119.9,65.7c10.9,2.9,22.3,3.9,33.2,6.8
		c20.3,5.4,34.5,26.6,32,46.3c-3,23.2-21.1,39.8-43.9,39.9c-12.6,0-25.1-2.5-37.4-4.6c-45.8-8-88.6-23.5-126.3-51.4
		c-1.7-1.3-3.7-3.9-5.7-1.9c-1.2,1.2-1.1,4.3-0.9,6.4c2.1,24.8,4.6,49.5,6.5,74.3c1.7,21.9,4.7,43.7,5.1,65.7
		c0.3,15.4-3.5,29.5-12,42.2c-3.9,5.8-3.4,10.3,0,15.9c57.3,94.4,105.6,193.4,150.7,294c16.2,36.1,0.8,71.8-35.4,81.8
		c-25.9,7.1-52.3-5.4-64.9-31.6c-12.5-25.9-23.9-52.3-36.2-78.3c-30.4-63.8-62.1-126.7-98-187.4c-5.4-9.2-6-9.2-11.3,0.3
		c-36.4,65.6-70,132.6-104.8,199c-12,22.9-24,45.8-36.7,68.3c-14.5,25.7-41,36.9-66.3,29.2c-33.4-10.2-50-47.2-33.7-78.9
		c17.1-33.3,36.1-65.7,54.2-98.6c34.4-62.6,68.7-125.2,103.3-187.7c3.9-7,4.7-12.1-0.8-18.9c-10.2-12.8-13.4-28.5-14.8-44.4
		c-4.1-47-8-93.9-12.1-140.9C626.4,462.1,626,461.6,625.3,460.2z M296.7,991.9c-0.2-7.8-6.8-14.1-14.5-13.8
		c-7.8,0.3-13.7,6.9-13.4,14.9c0.3,7.5,6.3,13,14,13C290.9,1006,296.9,999.8,296.7,991.9z"/>
</g>
<g>
	<circle class="st2" cx="537.2" cy="579.9" r="321.7"/>
	<g>
		<path class="st3" d="M510.8,135.6c-3.1,0.3-12.6,1.5-21.1,2.5c-34.1,3.9-72.7,14.1-106.6,28.4C260.5,217.6,168.2,330.1,142.7,459
			c-6,30.7-7.5,45.7-7.5,81.1c0,45.6,4.5,77,16.5,116.8C191.1,787,293.3,889,423.7,928.4c39.3,11.9,70.9,16.4,116.3,16.4
			c45.6,0,77-4.5,116.8-16.5C786.9,889,888.9,786.8,928.3,656.4c11.9-39.3,16.4-70.9,16.4-116.3c0-19.3-1-41.4-2.1-49.5
			c-13.1-93.8-51.8-172.6-116.1-237C762.2,189.7,683.7,151,591.9,137.8C579.2,136.1,520.7,134.4,510.8,135.6z M378.6,391
			c8.6,2.6,12.6,5,18.5,10.9c11.4,11.5,14,17.8,14,35.2c0,13-0.5,15.4-4.4,22.2c-7.5,12.6-24.8,24.3-36.8,24.6
			c-8.4,0.2-8.1-3.6,1.1-13.3c12.3-12.8,14.1-17.7,14.1-36.8c-0.2-18.5-2.4-24.8-11-30c-7.1-4.4-14.9-4.1-26.3,1.3
			c-29.5,14.1-61.5,61.2-74,109.4c-16.6,64.2,12.8,115.6,61.1,106.9c14.1-2.6,40.7-16.2,52.2-26.9c9.6-8.7,9.6-8.9,10.5-19.8
			c2.1-22.7,18.2-45.4,39.6-56c9.9-4.9,12.3-5.3,25.6-5.3c12.6,0,15.6,0.6,21.7,4c19.6,11.2,15.6,37.3-5.7,37.3
			c-12.3,0-18.7-6.3-9.7-9.7c8.8-3.2,5.5-15.4-4.7-18.2c-12-3.1-25.6,5-34.2,20.6c-10.4,18.8-10.9,41.2-1,51.4
			c9.6,10.2,21.6,2.1,30.8-21.1c4.9-11.8,11.8-18.2,20-18.2c7.1,0,8.4,4.4,5.3,17.7c-4.5,20.6-1.5,25.9,11.4,19.6
			c4.2-2,11.2-6.5,15.4-9.7l7.9-6.3l5.4-28.1c5.8-31.5,8.1-35.7,20.1-37.9c11.5-2.1,14.1,3.6,9.9,21.6l-2.3,10.1l8.4-8.6
			c19.9-20.4,44.4-30.5,52.9-22.1c4.5,4.5,4,10.2-2.4,30.3c-3.1,9.6-7.3,24.7-9.2,33.3c-2.9,13-3.1,16.1-1.5,18.2
			c5.2,6.2,21.1-0.2,35.2-14l8.3-8.1l1-18c1-20.8,2.9-28.2,8.4-34.9c5.2-6.2,14.6-10.7,19.6-9.4c5,1.3,5,6.2,0.5,20.4
			c-6.3,19.6-5.7,64.9,0.8,64.9c2.6,0,15.9-13.9,24.3-25.6l6.3-8.6l-5-5.2c-8.8-9.3-10.9-15.2-10.9-30.3c0-11,0.8-15.1,3.6-20.4
			c4.6-8.4,11.7-14.6,20.1-17c8.9-2.7,19.9,1.8,24.5,9.9c4.6,8.3,3.4,26.8-2.4,39.4l-4.2,9.2h5.7c7.8,0,10.9-1.9,24.8-15.1
			c7.3-7,15.7-13,22.1-15.9c24.8-11.7,54-5.7,58.9,12.2c4.1,14.3-4.8,24.3-20.4,23.2c-11.2-0.8-13.3-3.7-6.8-9.2
			c11.7-9.8,0-22.2-16.7-17.7c-9.1,2.4-19.3,12.6-24.6,24.5c-10.7,23.7-5,51.6,10.4,51.6c6.2,0,17.1-12.2,21.3-24
			c5-13.6,15.6-22.2,23.5-19.1c4.4,1.6,4.7,6,2,19.8c-3.1,15.1-3.6,29.2-1.1,35.7c1,2.4,3.9,7,6.7,10c5.2,5.8,5.3,7.9,1,10.7
			c-2.1,1.5-4.9,0.8-11.7-2.9c-9.4-4.9-17.5-13.6-20.4-21.9l-1.8-4.9l-6.5,4.9c-3.7,2.6-9.6,5.5-13,6.5c-13.5,3.6-30-5.7-37.8-21.2
			c-3.1-6-4.1-23.7-1.8-30.5c1.3-3.7,1.3-3.7-3.9-1.1c-2.7,1.5-8.6,3.1-13.1,3.6c-7.5,0.8-8.6,1.6-16.1,11
			c-10.5,13.1-29.2,30.8-36.8,34.6c-16.2,8.1-21.6,5.8-25.8-10.9l-2.9-11.2l-7,6.2c-8.9,7.8-26.8,17.2-37,19.5
			c-9.7,2.1-20.1-1-24.3-7.5c-6.3-9.7-4.2-30.3,5.8-58.1c7.5-20.6,2.1-20.9-16.7-1.3c-14,14.8-20,25.3-23.8,41.7
			c-4.1,17-8.9,23.2-19.9,25.8c-6.7,1.5-9.8-2.6-8.4-11.5l1-7.2l-6.2,4.2c-8.8,6-19.8,11.5-27.4,13.6c-7.6,2.1-17.7-0.2-20.1-4.4
			c-4.4-7.4-4.4-7.4-11.2-2.1c-14.8,12-35.9,8.6-46.6-7.3l-3.4-5l-10.7,9.9c-30.8,28.2-69.4,40.9-98,32.1
			c-36.3-11-56.4-42.2-56.1-87.1c0.2-45.1,20.1-92.6,53.7-127.8c19-19.8,36.8-31.5,55-35.9C358.2,387,366.1,387.2,378.6,391
			L378.6,391z"/>
		<path class="st3" d="M707.4,506.4c-3.6,3.6-2.3,17.8,2.3,26.9c2.3,4.7,4.7,8.4,5.5,8.4c0.6,0,2.1-3.7,3.2-8.3
			C722.5,516.6,715.2,498.6,707.4,506.4z"/>
	</g>
</g>
</svg>
