<?xml version="1.0" encoding="utf-8"?>
<!-- Generator: Adobe Illustrator 28.2.0, SVG Export Plug-In . SVG Version: 6.00 Build 0)  -->
<svg version="1.1" id="_Шар_2" xmlns="http://www.w3.org/2000/svg" xmlns:xlink="http://www.w3.org/1999/xlink" x="0px" y="0px"
	 viewBox="0 0 1087.1 924.3" style="enable-background:new 0 0 1087.1 924.3;" xml:space="preserve">
<style type="text/css">
	.st0{fill:#734B34;}
</style>
<g>
	<path class="st0" d="M217.7,387.8c0-14.4,0-28.8,0-43.2c2.5-16.8,5.5-33.4,11.6-49.4c28.1-73.9,81.5-121.1,155.2-146.8
		c18.9-6.6,38.5-9.8,58.3-12.4c16.1,0,32.2,0,48.3,0c1.2,0.3,2.5,0.6,3.7,0.8c65.4,7.5,120.8,34.6,164.8,84
		c68.9,77.4,75.4,188.6,14.4,271.9C625.3,559.3,557.7,593,475.9,595.1c-78.5,2-157.2,0.4-235.8,0.6c-10.6,0-17.9-3.9-22.4-13.3
		c0-4.2,0-8.5,0-12.7c2.1-4.2,5.1-7.7,8.5-10.9c14.6-13.5,29-27.2,43.8-40.5c3.9-3.5,4-5.9,0.6-9.8c-17.5-20.1-30.9-42.8-40.4-67.8
		C223.8,423.6,220.3,405.8,217.7,387.8z M467.2,252.2c-37.3,0-74.5-0.1-111.8,0c-12.5,0-21.6,8.1-21.4,18.7
		c0.1,10.4,9,18.4,21.1,18.4c74.5,0.1,149,0.1,223.6,0c12.1,0,20.9-7.9,21.1-18.4c0.2-10.6-8.9-18.5-21.4-18.7c-1.9,0-3.8,0-5.7,0
		C537.5,252.2,502.3,252.2,467.2,252.2z M467.2,328.5c-37,0-74.1,0-111.1,0c-9,0-16.3,2.8-20.2,11.4c-5.9,13,3.9,25.7,20,25.7
		c74.1,0.1,148.2,0.1,222.3,0c12.6,0,21.6-7.7,21.7-18.4c0.1-10.6-8.9-18.5-21.4-18.7c-1.7,0-3.4,0-5.1,0
		C537.9,328.5,502.5,328.5,467.2,328.5z M467.3,404.8c-36.6,0-73.2,0-109.9,0c-14.2,0-23.5,7.4-23.5,18.6c0,11.2,9.3,18.6,23.5,18.6
		c72.8,0,145.6,0,218.5,0c14.4,0,23.5-7,23.8-18.3c0.3-11.3-9.2-18.9-23.8-18.9C539.7,404.8,503.5,404.8,467.3,404.8z"/>
	<path class="st0" d="M725.5,787.5c-39.2,0-78.5,2-117.6-0.4c-99.4-6.1-174.2-51.6-218.4-142.8c-5.5-11.4-5.2-11.4,7.2-11.6
		c28.4-0.3,56.8,0.6,85.1-0.8c64.7-3.2,122.6-24.6,172.8-65.6c47.6-38.8,78.8-88,92.1-148.2c3.4-15.4,4.6-30.9,5.5-46.6
		c0.4-7.2,1.3-7.5,7.3-3.5c58.6,38.2,97.7,90.2,107.7,160.5c8.9,62.8-8.6,119.1-48.3,168.5c-0.8,1-1.5,2.1-2.5,2.9
		c-4.6,4-4,7,0.6,11.1c15.3,13.7,30.2,27.8,45.2,41.9c6.7,6.3,8.9,13.9,5.4,22.5c-3.5,8.6-10.4,12.3-19.6,12.3
		C807.2,787.5,766.3,787.5,725.5,787.5C725.5,787.5,725.5,787.5,725.5,787.5z"/>
</g>
</svg>
