<?xml version="1.0" encoding="utf-8"?>
<!-- Generator: Adobe Illustrator 28.2.0, SVG Export Plug-In . SVG Version: 6.00 Build 0)  -->
<svg version="1.1" id="Шар_1" xmlns="http://www.w3.org/2000/svg" xmlns:xlink="http://www.w3.org/1999/xlink" x="0px" y="0px"
	 viewBox="0 0 1080 1080" style="enable-background:new 0 0 1080 1080;" xml:space="preserve">
<style type="text/css">
	.st0{display:none;}
	.st1{display:inline;fill:#00A43C;}
	.st2{fill:#734B34;}
	.st3{fill:#403332;}
</style>
<g class="st0">
	<path class="st1" d="M749.3,40.3c28.4,7,52.9,20.1,70.8,44.1c28.4,38.2,29.9,89.4,3.7,129c-25.9,39.2-73.6,58.3-119.1,47.7
		c-46.1-10.7-80.5-49.1-86.1-96.2c-6.7-55.8,28.2-107.1,82.7-121.8c3.1-0.8,6.1-1.9,9.2-2.9C723.5,40.3,736.4,40.3,749.3,40.3z"/>
	<path class="st1" d="M625.3,460.2C609,482,594.4,504.3,581,527.4c-10.7,18.5-20,37.7-28.4,57.3c-6.3,14.6-15.4,26.1-31.4,30.6
		c-5.7,1.6-7.5,6.8-10,11.2C471,697,430.9,767.5,390.7,838c-22.4,39.3-44.7,78.7-67.3,117.9c-3.2,5.5-3.9,9.8-0.9,16
		c9,18.5,4.8,38.5-9.7,51.3c-14.7,12.9-35.9,14.8-52.3,4.6c-16.6-10.4-23.9-29.6-18-49.9c1.9-6.6-0.2-9.2-5.5-12.1
		c-14-7.5-27.7-15.3-41.5-23.2c-17.7-10.1-20.2-18.8-10.2-36.5c31.3-55.5,62.7-110.8,94.1-166.2c13.5-23.9,27-47.8,40.5-71.8
		c9.7-17.2,19.5-19.9,36.6-10.3c20,11.2,40.1,22.3,59.9,33.8c5.8,3.4,8.9,2.9,12.2-3c14.7-26.6,29.6-53.1,44.5-79.5
		c2.3-4,2.7-7.5-0.1-11.7c-9.9-14.8-9.4-30.3-2.7-46.2C494.7,493.3,528,440.8,566,391c24-31.4,49.6-61.3,77.5-89.2
		c42.7-42.7,100.5-46.4,148.4-9.2c24.2,18.8,46.8,39.8,70.8,58.9c36.2,28.6,74.5,53.7,119.9,65.7c10.9,2.9,22.3,3.9,33.2,6.8
		c20.3,5.4,34.5,26.6,32,46.3c-3,23.2-21.1,39.8-43.9,39.9c-12.6,0-25.1-2.5-37.4-4.6c-45.8-8-88.6-23.5-126.3-51.4
		c-1.7-1.3-3.7-3.9-5.7-1.9c-1.2,1.2-1.1,4.3-0.9,6.4c2.1,24.8,4.6,49.5,6.5,74.3c1.7,21.9,4.7,43.7,5.1,65.7
		c0.3,15.4-3.5,29.5-12,42.2c-3.9,5.8-3.4,10.3,0,15.9c57.3,94.4,105.6,193.4,150.7,294c16.2,36.1,0.8,71.8-35.4,81.8
		c-25.9,7.1-52.3-5.4-64.9-31.6c-12.5-25.9-23.9-52.3-36.2-78.3c-30.4-63.8-62.1-126.7-98-187.4c-5.4-9.2-6-9.2-11.3,0.3
		c-36.4,65.6-70,132.6-104.8,199c-12,22.9-24,45.8-36.7,68.3c-14.5,25.7-41,36.9-66.3,29.2c-33.4-10.2-50-47.2-33.7-78.9
		c17.1-33.3,36.1-65.7,54.2-98.6c34.4-62.6,68.7-125.2,103.3-187.7c3.9-7,4.7-12.1-0.8-18.9c-10.2-12.8-13.4-28.5-14.8-44.4
		c-4.1-47-8-93.9-12.1-140.9C626.4,462.1,626,461.6,625.3,460.2z M296.7,991.9c-0.2-7.8-6.8-14.1-14.5-13.8
		c-7.8,0.3-13.7,6.9-13.4,14.9c0.3,7.5,6.3,13,14,13C290.9,1006,296.9,999.8,296.7,991.9z"/>
</g>
<g>
	<path class="st2" d="M553.7,627.2c0-20.6,0-41.2,0-61.8c0-3.5,0.1-7-1.2-10.4c-2.3-5.8-6.3-9.4-12.6-9.3c-5.8,0.1-9.7,3.6-11.9,9.1
		c-1.5,3.7-1.3,7.5-1.3,11.3c0,40.9,0,81.8,0,122.7c0,11.9,0,12-11.5,12c-21.8,0-43.6-0.3-65.3,0.2c-7.2,0.1-10.3-2.6-12.7-9.1
		c-14.9-41.9-30.1-83.6-45.3-125.3c-1.3-3.6-2.5-7.2-4.1-10.7c-3.3-7.1-10.2-10.2-16.6-7.8c-6.7,2.5-9.9,9.8-7.2,17.4
		c11,30.7,22.2,61.4,33.4,92.1c4.2,11.6,8.4,23.3,12.7,34.8c2.2,5.7,0.7,8.3-5.5,8.3c-31.2-0.1-62.4-0.1-93.6,0
		c-7.2,0-7.9-4.1-7.9-9.8c0.1-28-0.4-55.9,0.3-83.9c0.3-9.6-3.2-12.5-12-13.8c-69.8-10.2-126.2-61.2-143.4-129.2
		c-18.4-72.9,16.7-150.1,85.1-186.2c49.8-26.3,101.1-31.1,153.9-9.1c5,2.1,7.8,1.5,11.1-3c34.8-47.4,83-69.8,140.5-70.3
		c58.3-0.5,107.2,21.6,142.6,69.6c4.5,6.2,8.3,5.1,14.1,2.8c87.3-35.8,192.3,6.6,228.7,92.3c41.8,98.2-23.4,215.4-129.5,233
		c-17.3,2.9-17.3,2.9-17.3,20c0,25.9-0.2,51.8,0.1,77.7c0.1,7.7-2.6,10.2-10.3,10.1c-31.8-0.3-63.6-0.1-95.3-0.2
		c-9.4,0-9.8-0.7-6.6-9.6c14.5-39.8,29.1-79.5,43.7-119.3c0.8-2.2,1.6-4.4,2.3-6.7c2.9-9.2,0.2-16.3-7.3-19
		c-7.2-2.6-14.1,1.4-17.5,10.5c-6.9,18.5-13.5,37-20.3,55.5c-9.6,26.5-19.4,53-28.8,79.7c-2.3,6.6-5.7,9.2-12.8,9
		c-20.6-0.4-41.2-0.4-61.8,0c-6.9,0.1-9.3-2.3-9.2-9.2C553.9,670.2,553.7,648.7,553.7,627.2z"/>
	<path class="st3" d="M540.4,884.4c-52.6,0-105.3,0-157.9,0c-47.7-0.1-79.2-31.4-79.3-79c0-21.8,0-43.5,0-65.3
		c0-13.3,0-13.4,13.1-13.4c46.2,0,92.3,0,138.5,0c102.9,0,205.9,0,308.8,0c15.1,0,15.3,0,15,15.2c-0.4,25.6,1.7,51.2-1.1,76.7
		c-4.1,37.6-35.1,65.5-73,65.7C649.8,884.6,595.1,884.4,540.4,884.4C540.4,884.4,540.4,884.4,540.4,884.4z"/>
</g>
</svg>
