<?xml version="1.0" encoding="utf-8"?>
<!-- Generator: Adobe Illustrator 28.2.0, SVG Export Plug-In . SVG Version: 6.00 Build 0)  -->
<svg version="1.1" id="Шар_1" xmlns="http://www.w3.org/2000/svg" xmlns:xlink="http://www.w3.org/1999/xlink" x="0px" y="0px"
	 viewBox="0 0 1080 1080" style="enable-background:new 0 0 1080 1080;" xml:space="preserve">
<style type="text/css">
	.st0{fill:#2062AE;}
	.st1{fill:#3C9BD6;}
	.st2{fill:#DFDEDD;}
	.st3{fill:#E0DFDE;}
	.st4{fill:#E3E3E1;}
	.st5{fill:#DCDCDA;}
	.st6{fill:#D2D4D5;}
	.st7{fill:#E1E0DE;}
	.st8{fill:#E6E5E4;}
	.st9{fill:#DDDCDB;}
	.st10{fill:#DEDDDC;}
	.st11{fill:#E4E4E3;}
	.st12{fill:#E2E2E0;}
	.st13{fill:#DBDCDD;}
	.st14{fill:#D4D6D7;}
	.st15{fill:#E7E8E9;}
	.st16{fill:#DFE1E1;}
	.st17{fill:#E3E4E5;}
	.st18{fill:#EDEDED;}
	.st19{fill:#F0F1F1;}
	.st20{fill:#F3F4F4;}
	.st21{fill:#F7F7F7;}
	.st22{fill:#F9F9FA;}
	.st23{fill:#47A1D8;}
	.st24{fill:#FCFCFC;}
	.st25{fill:#F9F8F8;}
	.st26{fill:#FAFAF9;}
	.st27{fill:#D7D8D9;}
	.st28{fill:#FDFDFD;}
	.st29{fill:#F4F4F3;}
	.st30{fill:#F5F5F5;}
	.st31{fill:#FBFBFB;}
	.st32{fill:#F3F3F2;}
	.st33{fill:#F7F7F6;}
	.st34{fill:#D9DBDB;}
	.st35{fill:#F4F3F2;}
	.st36{fill-rule:evenodd;clip-rule:evenodd;fill:none;}
	.st37{display:none;}
	.st38{display:inline;fill:#00A43C;}
</style>
<g>
	<path class="st0" d="M543.6,909.6c-1.9,0-3.8,0-5.8,0c-46.3-6.9-90.7-21.9-135.9-33.4c-39.9-10.2-79.6-21.5-119.5-32
		c-9.4-2.5-13.2-7.2-13.9-16.2c-1.2-17.7-3-35.4-4.7-53c-2.8-29.1-5.4-58.3-8.1-87.4c-2.1-23.2-4.4-46.3-6.4-69.5
		c-2.4-28.2-5.3-56.4-7.8-84.5c-2.1-23.4-4.3-46.8-6.5-70.2c-2.8-28.9-5.2-57.8-8-86.7c-2.3-23.4-4.2-46.8-6.4-70.2
		c-2.2-23.4-4.5-46.8-6.5-70.2c-1.6-18.6-4-37.2-4.9-55.9c-0.4-9,0.2-9.2,9.1-9.2c214.4,0,428.8,0,643.2,0c8.9,0,9.5,0.2,9.1,9.3
		c-0.9,18.7-3.3,37.3-4.9,55.9c-2,23.4-4.2,46.8-6.5,70.2c-2.7,28.7-5.2,57.3-7.9,86c-2.3,23.6-4.3,47.3-6.5,70.9
		c-2.2,23.4-4.4,46.8-6.5,70.2c-2,23.2-4.4,46.3-6.4,69.5c-2.6,28.7-5.2,57.3-7.9,86c-2.2,23.4-4.2,46.8-6.4,70.2
		c-2.1,22.7-4.1,45.4-6.2,68.1c-1.2,12.9-1.8,13.3-14.6,16.8c-48.5,13.4-97.2,26.3-145.8,39.4c-26.6,7.2-53.2,14.5-79.9,21.5
		C562.1,907.5,552.6,907.4,543.6,909.6z"/>
	<path class="st1" d="M540.7,307c0-24.5,0.2-49-0.1-73.5c-0.1-6.3,1.9-8.3,8.2-8.3c82.7,0.2,165.5,0.2,248.2,0
		c7.2,0,9.2,2.6,8.6,9.3c-1.8,19.1-3.3,38.2-4.9,57.3c-2.2,24.8-4.4,49.7-6.6,74.5c-2.7,30.8-5.5,61.6-8.2,92.4
		c-2.1,24.1-4.1,48.3-6.2,72.4c-2.7,31-5.5,62.1-8.2,93.1c-2.1,24.4-4.1,48.7-6.2,73.1c-2.2,24.6-4.4,49.2-6.7,73.8
		c-0.5,5.7-1.2,11.5-1.4,17.2c-0.2,4.9-2.6,6.9-7.3,8.2c-45.4,12.1-90.8,24.3-136.1,36.6c-21.3,5.7-42.6,11.6-63.9,17.3
		c-8.7,2.3-9.1,2-9.1-6.8c0-24.5,0-49,0-73.5c0.1-0.4,0.2-0.7,0.3-1.1c2-3.9,6.1-4.2,9.5-5.4c6-2.1,12.1-3.8,18.3-5.3
		c11-3.6,22-7,33.3-9.5c6.7-2.1,13.2-5,20.3-5.9c11.3-3.7,22.6-7.5,34.3-10c6.3-3,13.4-3.5,19.7-6.3c8.5-3.1,17.8-3.9,25.8-8.6
		c1.4-1.7,2-3.8,3.3-5.5c1.1-2.1,1.3-4.5,1.4-6.8c0.1-2.6,0-5.1,0.2-7.7c0.6-3,1.3-5.9,1.3-9c0.1-2.7,0-5.4,0.1-8
		c0.1-2.7-0.2-5.4,0.3-8c0.7-2.7,0.4-5.4,0.4-8.1c0.1-3.1-0.2-6.1,0.2-9.2c0.7-2.7,0.7-5.5,0.8-8.2c0.2-2.8,0.1-5.7,0.7-8.4
		c3.2-22.1,4.2-44.4,6.3-66.5c2.4-25.3,4.4-50.6,6.6-75.9c0.6-6.3,2.7-12.8-1.4-18.8c-6.5-2.9-13.3-4-20.3-4
		c-27.3-0.1-54.6-0.5-81.9,0.2c-13.1,0.3-26.3,0.4-39.4,1.7c-11.6-1.9-23.2-2-34.9-2c-1.7,0-3.4-0.5-3.9-2.5c-0.4-2,0.9-3.1,2.3-4.1
		c5.6-3.8,12.1-5.8,18.2-8.5c8.7-3.9,17.5-7.7,26.4-11c10.6-5,21.5-9.6,32.5-13.7c19.7-8.5,39-18,59.5-24.7c2.2-0.7,3.7-2.1,5.2-3.6
		c13.2-4.8,25.6-11.5,39.1-15.4c2.5-0.7,4.9-1.9,6.2-4.5c0.3-1.1,0.9-1.9,1.5-2.9c2.9-10.4,2.6-21.3,4-31.9c1.3-9.7,1.9-19.5,3-29.2
		c1-8.7-1-10.7-9.7-10.8c-4.5,0-9.1-0.5-13.6-0.5c-11.1,0.8-22.2,0.6-33.3,0c-6.3,0.5-12.7,0.5-19,0c-11.9,0.6-23.8,0.7-35.6,0
		c-7.3,0.5-14.5,0.5-21.8,0c-10.4,0.6-20.9,0.7-31.3,0c-11.1,0-22.3,2-33.3-1.2C541.6,308.6,541,307.9,540.7,307z"/>
	<path class="st1" d="M540.7,681.7c0-43.5,0-87,0-130.5c0.2-0.4,0.4-0.8,0.6-1.2c3.5-3.3,7.9-2.4,12.1-2.5c6.3-0.2,12.7-0.1,19,0.4
		c10-0.6,20-0.6,30,0c6.8-0.5,13.6-0.5,20.4,0c18.5-0.9,20.3,0.2,19,18.7c-1.9,27.4-2.9,54.8-5.2,82.2c-0.7,7.7-4,11.9-11.3,13.2
		c-7.4,1.6-14.4,4.5-21.7,6.4c-11.3,2.7-22.3,6.8-33.7,8.9c-6.3,2-12.6,4.2-19,5.8c-3.1,0.8-6.4,2.2-9.5-0.2
		C541.1,682.4,540.9,682,540.7,681.7z"/>
	<path class="st2" d="M422.7,735.1c-11.5-3.4-23-6.8-34.5-10.2c-3.2-2.9-3.4-6.7-3.4-10.6c-0.1-36.4-0.2-72.7,0-109.1
		c0.1-9.8,1.1-10.6,10.8-10.5c8.6,0.1,17.2-0.4,25.8,0.3c3.2,2.2,3.2,5.7,3.3,9c0.2,41.1,0.2,82.3,0,123.4
		C424.6,730.2,424.6,732.9,422.7,735.1z"/>
	<path class="st3" d="M422.7,735.1c-1.5-2.9-1.4-6-1.4-9.1c0-43.4,0-86.8,0-130.2c7.2-1.8,14.4-1.4,21.6-0.3
		c3.2,13.4,2.9,27.3,4.2,40.9c0.7,7.1,3.8,13.7,3.3,20.9c-0.2,3.7,4.1,2.5,5.8,4.3c1.1,3.2,1.7,6.5,1.7,9.9c0,20.4,0.1,40.7,0,61.1
		c0,4.4-0.1,8.8-4.8,11.1C442.6,741.8,432.6,738.6,422.7,735.1z"/>
	<path class="st4" d="M504.7,550.6c-6.3,0-12.5,0-18.8,0c-7.1-1.1-14.2-0.1-21.3-0.5c-2.3-0.1-4.8,0.7-6.9-0.9
		c-2.6-2.7-2.5-6.1-2.5-9.4c-0.2-19.5-0.2-39.1,0-58.6c0-4.2,0.6-8.1,3.8-11.1c2.2-1.7,4.9-1.7,7.5-1.7c12.3-0.3,24.7-0.3,37,0
		c2.8,0.1,5.8-0.1,8,2.2c1.2,1.5,1.3,3.3,0.2,4.6c-4.1,5.4-3.7,11.6-3.7,17.8c0,15.8,0.1,31.5-0.1,47.3
		C508.1,543.9,508.5,548,504.7,550.6z"/>
	<path class="st5" d="M540.6,388.1c-52.4-0.1-104.8-0.2-157.2-0.3c-12,0-23.9-0.1-35.9,0.1c-4.2,0.1-6.3-0.8-6.9-5.7
		c-2.5-22.4-5.3-44.7-8.3-67c-0.8-6.1,0.3-8.5,7.1-8.1c11.9,0.7,23.9,0.3,35.9,0.4c4,2.8,3.4,7.2,3.4,11.2c0.2,17.3,0,34.5,0.1,51.8
		c0.1,10.8,1.7,12.4,12.6,12.5c6.7,0.1,13.4,0,20.1,0.5c13.3-0.7,26.6-0.6,39.9,0c11.5-0.6,23-0.6,34.5,0c9.1-0.5,18.3-0.6,27.4,0
		c9.1-0.5,18.2-0.7,27.3,0c4.3,0.6,9.7-2.3,12,4.1c-0.8,2-2.4,2.9-4.3,3.2C545.4,390.7,542.8,389.9,540.6,388.1z"/>
	<path class="st6" d="M511.9,471.6c-17.3,0-34.5,0-51.8,0c-3.4,2.5-7.2,3.5-11.4,3.4c-9.1-0.1-18.2,0.2-27.2-0.4
		c-11.6,0.6-23.2,0.6-34.8,0c-9.7,0.6-19.4,0.5-29,0.2c-3-0.1-6.3,0.1-8.1-3.2c16.4-8,33.4-14.4,50.2-21.3c45-2.4,90-0.4,134.9-1.1
		c1.9,0,3.9,0.1,5.5,1.3c4.1,7.2,2.9,14.4-0.1,21.6C532.9,476.4,517.9,476.2,511.9,471.6z"/>
	<path class="st7" d="M451.5,386.4c-13.4,0-26.9,0-40.3,0c-3.2-2.2-3.3-5.6-3.4-9c-0.2-20.3-0.2-40.6,0-60.9c0-3.3,0.1-6.8,3.3-9
		c13.4,0,26.9,0,40.3,0c3.2,2.2,3.3,5.6,3.3,9c0.2,20.3,0.2,40.6,0,60.9C454.8,380.7,454.7,384.1,451.5,386.4z"/>
	<path class="st8" d="M513.5,676.1c9.3,0.8,17.8,5.3,27.2,5.6c0,0,0,0.7,0,0.7c3.4,2.1,3.3,5.6,3.4,9c0.2,22.8,0.2,45.6,0,68.3
		c0,3.6-0.3,7.3-3.4,9.8c0,0,0,0.6,0,0.6c-11.5-3.5-23-7.1-34.5-10.6c-2.8-2.4-3.3-5.7-3.4-9.2c-0.2-21.8-0.4-43.6,0.1-65.5
		C503.1,676.4,504.6,675.4,513.5,676.1z"/>
	<path class="st9" d="M349.5,471.6c12.4,0,24.8,0,37.2,0c3.8,2.9,3.4,7.2,3.4,11.2c0.2,17,0,33.9,0.1,50.9
		c0.1,10.3,1.9,12.1,12.1,12.2c6.4,0.1,12.9,0,19.3,0.5c9.3-0.7,18.6-0.5,28-0.3c3.4,0.1,6.7,0.3,9.1,3.3c9.1,0.7,18.3-1.3,27.3,1.2
		c-42.3,0-84.6-0.1-127,0.1c-4.8,0-4.8-3-5-6c-1.1-12.9-2.1-25.7-3.1-38.6c-0.8-10.5-1.7-21-2.5-31.4
		C348.3,473.4,348.1,472.2,349.5,471.6z"/>
	<path class="st9" d="M442.9,595.5c-7.2,0.1-14.4,0.2-21.6,0.3c-7.7-0.1-15.3-0.3-23-0.3c-10.1,0-10.1,0-10.1,9.9
		c0,39.8,0,79.7,0,119.5c-16.2-3.7-16.5-3.7-17.9-19.3c-3.3-35.1-6.2-70.2-9.3-105.3c-0.3-3.6-0.1-5.9,4.6-5.9
		c24.9,0.2,49.8,0.1,74.7,0.1C441.1,594.6,442,595.2,442.9,595.5z"/>
	<path class="st10" d="M411.2,307.5c0,26.3,0,52.6,0,78.9c-8.9,0-17.8-0.3-26.6,0.2c-7.1,0.4-9.7-1.9-9.6-9.3
		c0.4-23.3,0.1-46.5,0.1-69.8C387.2,307.5,399.2,307.5,411.2,307.5z"/>
	<path class="st8" d="M511.9,471.6c9.1,0,18.2,0,27.4,0c1.6,0.2,2.5,1.2,3.2,2.5c1.5,2.6,1.6,5.5,1.6,8.3c0.1,19.5,0.2,39,0,58.6
		c0,3.5,0.1,7.3-3.4,9.6c0,0,0,0.6,0,0.6c-12-0.2-24-0.4-36-0.6c0-21.7,0.2-43.4-0.1-65.1C504.5,479.1,506.1,474.5,511.9,471.6z"/>
	<path class="st4" d="M451.5,386.4c0-26.3,0-52.6,0-78.9c11.5,0,23,0,34.5,0c3.2,2.2,3.3,5.6,3.3,9c0.2,20.3,0.2,40.6,0,60.9
		c0,3.4-0.2,6.8-3.3,9C474.5,386.4,463,386.4,451.5,386.4z"/>
	<path class="st4" d="M513.5,676.1c-5.7,0.2-7.5,3-7.5,8.7c0.3,24.9,0.1,49.8,0.1,74.6c-10.6-3.1-21.2-6.2-31.8-9.4
		c-2.9-3-3.2-6.8-3.2-10.6c-0.1-21.2-0.2-42.5,0.1-63.7c0-3.5-0.4-7.3,3.4-9.6C487.6,669.2,500.8,671.8,513.5,676.1z"/>
	<path class="st11" d="M486,386.4c0-26.3,0-52.6,0-78.9c9.1,0,18.2,0,27.3,0c3.2,2.2,3.3,5.6,3.3,9c0.2,20.3,0.2,40.6,0,60.9
		c0,3.4-0.2,6.8-3.3,9C504.3,386.4,495.2,386.4,486,386.4z"/>
	<path class="st8" d="M513.4,386.4c0-26.3,0-52.6,0-78.9c9.1-0.2,18.2-0.3,27.3-0.5c0,0,0,0.6,0,0.6c3.3,2.2,3.3,5.6,3.4,9
		c0.2,20.3,0.2,40.6,0,60.9c0,3.4-0.2,6.7-3.3,9C531.7,386.4,522.5,386.4,513.4,386.4z"/>
	<path class="st12" d="M474.5,666.2c-0.1,28-0.1,56-0.2,83.9c-7.1-2.1-14.3-4.3-21.4-6.4c1.2-3.7,1.5-7.5,1.5-11.3
		c-0.1-21.7-0.1-43.5-0.1-65.2c0-2-1-4.4,1.8-5.6C462.4,662.5,468.6,664,474.5,666.2z"/>
	<path class="st13" d="M411.2,445.8c4.6-2.4,9.2-4.9,14.4-5.7c12.6-2.1,25.2-0.7,37.8-0.9c23.2-0.2,46.4-0.1,69.5,0
		c7.5,0,8.4,1.3,6.9,8.3c-2.3,2.4-5.4,1.8-8.1,1.8c-37.5,0-75-0.1-112.5,0C416.5,449.3,412.2,450.7,411.2,445.8z"/>
	<path class="st14" d="M411.2,445.8c3.1,1.8,6.5,1.3,9.8,1.3c39.4,0,78.8,0,118.2,0c0.2,0.2,0.5,0.5,0.7,0.7
		c0.6,1.4,0.5,2.6-0.7,3.6c-43.2,0-86.4,0-129.6,0c-3.3,0-6.7,0.5-9.9-1.1C403.6,448.8,407.4,447.3,411.2,445.8z"/>
	<path class="st15" d="M445.8,431.4c5.3-2,10.5-3.9,15.8-5.9c25.5-3.2,51.2-0.7,76.7-1.6c1,0,1.9,0.3,2.7,0.7c2.7,2.3,2.4,5,1.3,7.9
		c-0.4,0.9-1,1.6-1.9,2.1c-29.3,0.2-58.7,0-88,0C449.9,434.8,446.5,435.6,445.8,431.4z"/>
	<path class="st16" d="M539.3,447c0.2-6.3-4.3-5.8-8.4-5.8c-32,0-64.1,0-96.1,0c-3.1,0-6.2,0.5-9.1-1.2c3.4-2.4,7.2-3.8,11.2-5
		c31.2-0.5,62.4-0.1,93.6-0.2c3.9,0,8-0.6,11.4,2.3c2.5,3.1,2.3,6.2,0.1,9.4C541.1,447.3,540.3,447.4,539.3,447L539.3,447z"/>
	<path class="st17" d="M540.7,438.4c-3.3-1.7-7-1.4-10.5-1.4c-27.9,0-55.8,0-83.8,0c-3.3,0-6.8,0.6-9.6-1.9c3-1.2,6-2.4,8.9-3.6
		c2.9,1.7,6,1.2,9.1,1.2c25.1,0,50.2,0,75.2,0c3.6,0,7.2-0.2,10.5,1.4C542,435.5,542,436.9,540.7,438.4z"/>
	<path class="st18" d="M540.7,425.4c-2.4,1.2-5,1.5-7.7,1.5c-21.5,0-43,0-64.5,0c-2.4,0-4.8,0.1-6.9-1.4c4.6-2.5,9.2-4.8,14.4-5.7
		c15.4-1.9,30.8-0.5,46.2-0.8c6.3-0.1,12.7-0.3,19-0.9C543.2,420.7,543.2,423.1,540.7,425.4z"/>
	<path class="st19" d="M540.6,418.2c-1.7,1.8-3.7,2.9-6.3,2.9c-18.1,0-36.2,0-54.3-0.1c-1.4,0-2.7-0.8-4.1-1.2
		c3.9-2.7,8.3-4.4,12.9-5.7c14.3-0.2,28.5-0.3,42.8-0.2c2.5,0,4.1-1,4.6-3.5c0.5-2.2,1.5-3.8,3.9-4.2c0.9,0.2,1.6,0.7,2.1,1.4
		C544.1,411.6,545,415.3,540.6,418.2z"/>
	<path class="st20" d="M539.3,411c0.1,3.8-1.6,5.8-5.5,5.7c-13.9,0-27.8,0-41.6,0c-1.7,0-3.5-0.1-3.2-2.6c3.4-1.4,6.8-2.8,10.2-4.3
		c10.5-2.1,21.2-1.7,31.9-1.7C534.1,408.1,537.2,408.2,539.3,411z"/>
	<path class="st21" d="M539.3,411c-10.9,0-21.7,0-32.6,0c-2.6,0-5.2,0.2-7.6-1.2c4.8-2,9.6-3.9,14.4-5.9c5.7-0.1,11.2-1.9,16.8-2.3
		c5.1-0.4,6.3-5.2,8.9-8.4c0.6-0.4,1.2-0.9,1.7-1.3c0.4,0.3,0.8,0.5,1.2,0.8c2.5,5,3.4,9.8-1.4,14.1
		C540.1,408.2,539.7,409.6,539.3,411z"/>
	<path class="st22" d="M539.1,393.2c0.4,12.1,0.4,12.2-11.8,12c-4.6-0.1-9.5,1.1-13.9-1.2C522,400.4,530.5,396.8,539.1,393.2z"/>
	<path class="st23" d="M540.6,388.1c2.5,0,5-0.1,7.5-0.1c-0.1,5.4-3.3,5.9-7.5,4.7l-0.2-0.5c0,0,0.5-0.2,0.5-0.2
		C540.7,390.6,540.7,389.4,540.6,388.1z"/>
	<path class="st24" d="M706.3,721.1c-9.4,3.5-19,6.3-28.8,8.4c-4.6,1.7-6.7-0.5-7.4-4.9c-0.5-3.3-0.5-6.7-0.5-10
		c0-75.7,0-151.5,0.1-227.2c0-4.9-1.1-10.2,2.8-14.4c11.3-1.4,22.7-1,34-0.2c4,3.8,3,8.9,3.1,13.6c0.1,46.1,0,92.1,0.1,138.2
		c0,31.5-1.3,63-2.8,94.5C706.9,719.8,706.6,720.5,706.3,721.1z"/>
	<path class="st25" d="M622.8,659.2c8.5-0.9,10.6-5.9,10.9-14c1.2-28.7,3-57.3,5.1-86c0.5-6.9-1.7-9-8.2-8.3
		c-2.6,0.3-5.2-0.2-7.9-0.3c-3.1-2.3-3.3-5.6-3.3-9c-0.2-20-0.2-40.1,0-60.1c0-3.1,0.2-6.3,2.8-8.6c11.3-1.4,22.6-1,34-0.2
		c3.6,3.1,3,7.4,3.1,11.4c0.2,19.7,0.1,39.4,0.1,59.1c0,58.8,0,117.7,0,176.5c0,5.3,0.4,10.6-1.8,15.6c-11.3,4.1-22.9,7.5-34.7,10.1
		c-3.5-1.7-3.3-5.1-3.3-8.1c-0.3-23-0.3-46,0-69C619.4,664.9,619.9,661.6,622.8,659.2z"/>
	<path class="st26" d="M657.5,735.4c-2.4-3.2-1.6-6.9-1.6-10.4c0-84,0-167.9,0-251.9c5.8-1.3,11.5-1.3,17.3,0
		c0,82.2,0,164.5,0.1,246.7c0,3.6-2,8.7,4.3,9.8C671.1,732.3,664.4,734.1,657.5,735.4z"/>
	<path class="st14" d="M540.6,392.6c2.1-2.3,5.7-2,7.5-4.7c1.4,0,2.8,0,4.2,0c2.1-3.5,5.6-3.2,8.9-3.3c6.6-0.2,13.3,0.2,19.9-0.9
		c15.4,1.5,31,1.5,46.4,1.9c32.7,0.7,65.5,0.2,98.2,0.3c3.2,0,6.8-1,9.3,2.2c-15.6,7.2-31.1,14.7-47.6,19.9
		c-9.4,2-18.9,2.3-28.5,2.3c-35.2-0.1-70.3,0-105.5-0.1c-4.4,0-9.3,0.9-12.6-3.5c0,0-0.3,0.1-0.3,0.1
		C540.6,402,540.6,397.3,540.6,392.6z"/>
	<path class="st27" d="M540.9,406.6c45.6,0,91.1,0,136.7,0.1c3.3,0,6.7-0.6,9.9,1.2c-8.8,5.8-19,8.8-28.5,13.1
		c-12,5.3-24.1,10.3-36.2,15.4c-3.7-2.1-7.5-0.5-11.2-0.4c-20.6,0.2-41.1,0.2-61.7,0c-3.4,0-6.7-0.3-9-3.4c0-2.4-0.1-4.8-0.1-7.2
		c0-2.4,0-4.8,0-7.2C540.7,414.4,540.8,410.5,540.9,406.6z"/>
	<path class="st28" d="M706.3,721.1c0-82.7-0.1-165.4-0.1-248.1c7.6-1.3,15.2-1.2,22.8,0c-1.9,23.4-3.7,46.7-5.7,70.1
		c-2.8,32.4-5.8,64.8-8.7,97.2c-1,2.5,0.1,5.4-1,7.9c-0.1,2.7-0.2,5.3-0.4,8c-1.2,2.9,0.3,6.2-1.1,9.1c-0.1,2.7-0.3,5.5-0.4,8.2
		c-1,2.5,0.1,5.4-1,7.9c-0.1,2.7-0.2,5.3-0.4,8c-1.2,2.9,0.3,6.2-1.1,9.1c-0.1,2.7-0.3,5.5-0.4,8.2c-1,2.5,0.1,5.4-1,7.9
		C707.9,716.8,708.8,719.3,706.3,721.1z"/>
	<path class="st25" d="M628.5,307.5c12,0,24,0,36,0c3.2,2.2,3.3,5.6,3.3,9c0.2,20.5,0.2,41,0,61.5c0,3.1-0.2,6.2-2.8,8.6
		c-12.3,1.3-24.6,1-36.8,0.2c-2.7-2.2-3-5.4-3-8.5c-0.2-20.8-0.3-41.6,0-62.4C625.2,312.6,625.5,309.5,628.5,307.5z"/>
	<path class="st29" d="M580.9,387.8c-9.5,0.1-19.1,0.1-28.6,0.2c-3.6-2.3-7.7-1-11.5-1.5c0-26.3-0.1-52.6-0.1-78.9
		c11.5,0,23,0,34.6-0.1c3.7,2.6,3.3,6.7,3.4,10.4c0.2,15.1,0.2,30.1,0,45.2C578.5,371.4,579.2,379.6,580.9,387.8z"/>
	<path class="st30" d="M569.4,674.5c10.8-3.9,22-6.7,33.2-9.5c2.2,2.9,2,6.3,2,9.7c0.1,22.1,0.1,44.1,0,66.2c0,3.6-0.5,7.2-1.7,10.6
		c-10.9,4.1-22.1,7.1-33.4,9.8c-3.2-1.9-3.3-5.1-3.3-8.2c-0.3-23.1-0.2-46.2,0-69.4C566.2,680.2,566.7,676.9,569.4,674.5z"/>
	<path class="st31" d="M683.2,307.5c11.5,0,23,0,34.5,0c3.2,2.2,3.3,5.6,3.3,9c0.2,20.5,0.2,41,0,61.5c0,3.1-0.2,6.2-2.8,8.6
		c-11.8,1.3-23.6,1-35.4,0.2c-2.7-2.2-2.9-5.4-3-8.5c-0.2-20.8-0.3-41.6,0-62.4C679.9,312.6,680.2,309.5,683.2,307.5z"/>
	<path class="st30" d="M683.2,386.5c11.5,0,23,0,34.5,0c6.1-4.5,12.6-4.5,18.5,0c-0.4,0.5-0.8,1.1-1.2,1.6
		c-51.4-0.1-102.8-0.2-154.1-0.3c-4.7-1.4-5.7-4.7-5.7-9.3c0.2-23.7,0.1-47.3,0.1-71c10.6,0,21.1,0,31.7,0c3.8,2.6,3.4,6.7,3.4,10.5
		c0.2,17.5,0,35,0.1,52.6c0.1,10.3,1,11.3,11.2,12.7c2.7,0.4,5.1,1.1,6.9,3.3c12,0,24,0,36,0C670.6,382,677.1,382,683.2,386.5z"/>
	<path class="st30" d="M729,473c-7.6,0-15.2,0-22.8,0c-11,0-22.1,0-33.1,0c-5.8,0-11.5,0-17.3,0c-11,0-22.1,0-33.1,0
		c-1.9,2.4-4.7,3-7.6,3.4c-7.3,1.1-8.9,2.8-9,10.2c-0.3,17.6,0,35.3-0.2,52.9c0,4,0.4,8.2-3.4,11.1c-10.1,0-20.1,0-30.2-0.1
		c-2.9-2-3.3-5.1-3.3-8.3c-0.3-20.5-0.3-41,0-61.5c0-2.4,0.3-4.8,1.7-6.8c2.3-3.2,5.9-1,8.7-2.3c48.4-0.1,96.7-0.2,145.1-0.2
		C726.1,471.6,728,470.9,729,473z"/>
	<path class="st32" d="M569.4,674.5c0,28.9,0.1,57.8,0.1,86.7c-9.4,3.5-19,6.3-28.8,8.3c0-29,0-58.1,0-87.1
		C550.2,679.4,559.6,676.3,569.4,674.5z"/>
	<path class="st33" d="M602.9,751.3c-1.8-2.2-1.8-4.9-1.8-7.5c0-23.7,0-47.5,0-71.2c0-2.7,0.2-5.3,1.4-7.7
		c6.7-1.9,13.5-3.8,20.2-5.7c0,28.8,0,57.5,0,86.3C616.4,748.3,609.7,750,602.9,751.3z"/>
	<path class="st28" d="M736.2,386.5c-6.2,0-12.3,0-18.5,0c0-26.3,0-52.7,0-79c7.4-0.1,14.9-0.2,22.3-0.2c2.3,0,4.9-0.5,4.4,3.5
		c-2.5,24.1-4.9,48.2-7.3,72.2C737,384.2,736.6,385.3,736.2,386.5z"/>
	<path class="st33" d="M628.5,386.5c-21.6,0-21.6,0-21.6-21.5c0-19.2,0-38.4,0-57.6c7.2,0,14.4,0,21.6,0
		C628.5,333.8,628.5,360.2,628.5,386.5z"/>
	<path class="st26" d="M683.2,386.5c-6.2,0-12.5,0-18.7,0c0-26.3,0-52.7,0-79c6.2,0,12.5,0,18.7,0
		C683.2,333.8,683.2,360.2,683.2,386.5z"/>
	<path class="st34" d="M540.8,432.6c24,0,47.9,0,71.9,0c3.8,0,7.9-0.5,10.1,3.8c-10.6,4.4-21.1,8.9-31.7,13.3
		c-10.2-0.3-20.4,1.4-30.7,0.8c-4.3-0.3-8.6,0.1-12.9-0.3c-2.6-0.2-5.4-0.3-6.7-3.2c0-2.9,0-5.8,0-8.7c0-1.4,0-2.9,0-4.3
		C540.7,433.6,540.7,433.1,540.8,432.6z"/>
	<path class="st13" d="M540.7,447c14,0,28,0,41.9,0c3.1,0,6.3-0.2,8.4,2.7c-15.5,6.8-31,13.7-46.5,20.5c0,0.5,0,1.1,0,1.6
		c11.7,0,23.3,0,35,0c-2.2,1.3-4.7,1-7.1,1.1c-1.3,1.4-2.7,3-4.7,2.9c-9.1-0.2-18.5,3.4-26.9-2.9c-0.5-0.5-0.9-0.9-1.4-1.4
		c0-6.7,0-13.5,0-20.2c0-1.4,0-2.9,0-4.3C539.8,447,540.2,447,540.7,447z"/>
	<path class="st24" d="M712.1,665.2c0-3.1-0.6-6.2,1.1-9.1C713.3,659.2,713.4,662.2,712.1,665.2z"/>
	<path class="st24" d="M709.2,698.3c0-3.1-0.6-6.2,1.1-9.1C710.5,692.3,710.5,695.4,709.2,698.3z"/>
	<path class="st24" d="M713.5,648.1c0-2.7-0.4-5.4,1-7.9C714.8,642.9,714.8,645.6,713.5,648.1z"/>
	<path class="st24" d="M710.6,681.3c0-2.7-0.4-5.4,1-7.9C711.9,676.1,712,678.8,710.6,681.3z"/>
	<path class="st24" d="M707.8,714.4c0-2.7-0.4-5.4,1-7.9C709,709.2,709.1,711.9,707.8,714.4z"/>
	<path class="st35" d="M540.7,473c10.6,0,21.1,0,31.7,0c0,25.9,0,51.8,0,77.7c-10.6,0-21.1-0.1-31.7-0.1
		C540.7,524.7,540.7,498.8,540.7,473z"/>
	<path class="st33" d="M602.6,550.7c0-22.9,0.2-45.8-0.1-68.7c-0.1-6.7,1.8-9.9,8.9-9.1c3.8,0.4,7.6,0.1,11.4,0.1
		c0,25.9,0,51.8,0,77.7C616,550.7,609.3,550.7,602.6,550.7z"/>
	<path class="st7" d="M458.7,549.3c-12.5,0-24.9,0-37.4-0.1c-3.2-2.2-3.3-5.7-3.4-9c-0.2-19.9-0.2-39.8,0-59.6
		c0-3.4,0.3-6.8,3.4-9.1c12.9,0,25.9,0,38.8,0c-1.7,3.3-1.4,7-1.4,10.5C458.7,504.5,458.7,526.9,458.7,549.3z"/>
	<path class="st10" d="M421.3,471.6c0,25.9,0,51.8,0,77.7c-9.1,0-18.1-0.2-27.2,0.1c-5.7,0.2-7.5-2.2-7.4-7.6
		c0.2-23.4,0.1-46.8,0.1-70.2C398.3,471.6,409.8,471.6,421.3,471.6z"/>
	<polygon class="st36" points="169.3,170.2 910.7,170.2 910.7,909.8 169.3,909.8 169.3,170.2 	"/>
</g>
<g class="st37">
	<path class="st38" d="M749.3,40.3c28.4,7,52.9,20.1,70.8,44.1c28.4,38.2,29.9,89.4,3.7,129c-25.9,39.2-73.6,58.3-119.1,47.7
		c-46.1-10.7-80.5-49.1-86.1-96.2c-6.7-55.8,28.2-107.1,82.7-121.8c3.1-0.8,6.1-1.9,9.2-2.9C723.5,40.3,736.4,40.3,749.3,40.3z"/>
	<path class="st38" d="M625.3,460.2C609,482,594.4,504.3,581,527.4c-10.7,18.5-20,37.7-28.4,57.3c-6.3,14.6-15.4,26.1-31.4,30.6
		c-5.7,1.6-7.5,6.8-10,11.2C471,697,430.9,767.5,390.7,838c-22.4,39.3-44.7,78.7-67.3,117.9c-3.2,5.5-3.9,9.8-0.9,16
		c9,18.5,4.8,38.5-9.7,51.3c-14.7,12.9-35.9,14.8-52.3,4.6c-16.6-10.4-23.9-29.6-18-49.9c1.9-6.6-0.2-9.2-5.5-12.1
		c-14-7.5-27.7-15.3-41.5-23.2c-17.7-10.1-20.2-18.8-10.2-36.5c31.3-55.5,62.7-110.8,94.1-166.2c13.5-23.9,27-47.8,40.5-71.8
		c9.7-17.2,19.5-19.9,36.6-10.3c20,11.2,40.1,22.3,59.9,33.8c5.8,3.4,8.9,2.9,12.2-3c14.7-26.6,29.6-53.1,44.5-79.5
		c2.3-4,2.7-7.5-0.1-11.7c-9.9-14.8-9.4-30.3-2.7-46.2C494.7,493.3,528,440.8,566,391c24-31.4,49.6-61.3,77.5-89.2
		c42.7-42.7,100.5-46.4,148.4-9.2c24.2,18.8,46.8,39.8,70.8,58.9c36.2,28.6,74.5,53.7,119.9,65.7c10.9,2.9,22.3,3.9,33.2,6.8
		c20.3,5.4,34.5,26.6,32,46.3c-3,23.2-21.1,39.8-43.9,39.9c-12.6,0-25.1-2.5-37.4-4.6c-45.8-8-88.6-23.5-126.3-51.4
		c-1.7-1.3-3.7-3.9-5.7-1.9c-1.2,1.2-1.1,4.3-0.9,6.4c2.1,24.8,4.6,49.5,6.5,74.3c1.7,21.9,4.7,43.7,5.1,65.7
		c0.3,15.4-3.5,29.5-12,42.2c-3.9,5.8-3.4,10.3,0,15.9c57.3,94.4,105.6,193.4,150.7,294c16.2,36.1,0.8,71.8-35.4,81.8
		c-25.9,7.1-52.3-5.4-64.9-31.6c-12.5-25.9-23.9-52.3-36.2-78.3c-30.4-63.8-62.1-126.7-98-187.4c-5.4-9.2-6-9.2-11.3,0.3
		c-36.4,65.6-70,132.6-104.8,199c-12,22.9-24,45.8-36.7,68.3c-14.5,25.7-41,36.9-66.3,29.2c-33.4-10.2-50-47.2-33.7-78.9
		c17.1-33.3,36.1-65.7,54.2-98.6c34.4-62.6,68.7-125.2,103.3-187.7c3.9-7,4.7-12.1-0.8-18.9c-10.2-12.8-13.4-28.5-14.8-44.4
		c-4.1-47-8-93.9-12.1-140.9C626.4,462.1,626,461.6,625.3,460.2z M296.7,991.9c-0.2-7.8-6.8-14.1-14.5-13.8
		c-7.8,0.3-13.7,6.9-13.4,14.9c0.3,7.5,6.3,13,14,13C290.9,1006,296.9,999.8,296.7,991.9z"/>
</g>
</svg>
