<?xml version="1.0" encoding="utf-8"?>
<!-- Generator: Adobe Illustrator 28.2.0, SVG Export Plug-In . SVG Version: 6.00 Build 0)  -->
<svg version="1.1" id="_Шар_2" xmlns="http://www.w3.org/2000/svg" xmlns:xlink="http://www.w3.org/1999/xlink" x="0px" y="0px"
	 viewBox="0 0 1087.1 924.3" style="enable-background:new 0 0 1087.1 924.3;" xml:space="preserve">
<style type="text/css">
	.st0{fill:#734B34;}
</style>
<g>
	<path class="st0" d="M863.3,374.6c-2.8,7.2-8.5,11.4-15.2,14.9c-7.2,3.6-16.8,5.2-20.7,11.9c-3.7,6.4-1,15.4-1,23.3
		c-0.1,67.6,0,135.2-0.1,202.8c0,11.3-6.2,19.3-15.8,20.8c-12.1,1.9-22.3-6.7-22.4-19.1c-0.2-19.3-0.1-38.7-0.1-58
		c0-48,0-96.1,0-144.1c0-6.9-0.1-7-6.3-3.8c-69.9,35.5-139.8,70.9-209.6,106.6c-19.1,9.8-37.5,9.7-56.6,0
		c-92.4-47.2-184.9-94.2-277.5-141.1c-8.4-4.3-14.2-10.1-14.2-20.1c0-10.3,5.7-16.2,14.4-20.6c87-44.1,173.9-88.3,260.9-132.4
		c7.4-3.8,14.7-7.7,22.3-11.2c15.7-7.3,31.6-6.9,46.9,0.9c57.7,29.2,115.3,58.5,173,87.8c35.8,18.2,71.5,36.4,107.3,54.5
		c6.6,3.3,11.9,7.6,14.7,14.5C863.3,366.3,863.3,370.4,863.3,374.6z"/>
	<path class="st0" d="M751.4,569.3c0,22.3,0,44.5,0,66.8c0,7.8-3.2,13.9-10,17.4c-35.1,17.7-69.1,37.7-105.5,52.6
		c-67.6,27.8-134.8,24.9-200.4-7.2c-29.1-14.3-57.9-29.4-86.8-44c-8.5-4.3-12.6-10.7-12.6-20.3c0.2-43.7,0.5-87.4-0.2-131.1
		c-0.2-12.6,10.1-19.9,22.1-13.7c47.1,24.4,94.6,48.1,141.7,72.3c29.6,15.2,58.8,15.1,88.4-0.1c46.6-24,93.4-47.6,140.1-71.3
		c3-1.5,5.9-3.2,9.3-3.5c7.6-0.8,13.9,5.4,13.9,14.1C751.5,523.9,751.4,546.6,751.4,569.3z"/>
</g>
</svg>
