<?xml version="1.0" encoding="utf-8"?>
<!-- Generator: Adobe Illustrator 28.2.0, SVG Export Plug-In . SVG Version: 6.00 Build 0)  -->
<svg version="1.1" id="Шар_1" xmlns="http://www.w3.org/2000/svg" xmlns:xlink="http://www.w3.org/1999/xlink" x="0px" y="0px"
	 viewBox="0 0 1080 1080" style="enable-background:new 0 0 1080 1080;" xml:space="preserve">
<style type="text/css">
	.st0{fill:#403332;}
	.st1{display:none;}
	.st2{display:inline;fill:#00A43C;}
	.st3{fill:#D70027;}
	.st4{fill:#D91639;}
	.st5{fill:#D9173A;}
	.st6{fill:#E4657C;}
	.st7{fill:#E98597;}
	.st8{fill:#E77C8F;}
	.st9{fill:#EA8B9C;}
	.st10{fill:#E57084;}
	.st11{fill:#EFEFEF;}
	.st12{fill:#0052B3;}
</style>
<path class="st0" d="M885.9,541c0.7-1.1,0.7-2.5,0.7-4c0-18.4-0.1-36.9-2.7-55.1c-5.5-38.3-18.6-74.1-37-108.1
	c-20-37.1-46.2-69.3-77.8-97c-37.2-32.7-79.7-56.4-127.1-70.9c-15.1-4.6-30.3-9.1-46.1-10.4c-30.2-2.6-60.4-3-90.7-1.5
	c-10.9,0.6-21.8,0.9-32.6,3c-36.4,7-70.6,19.7-103.1,37.6c-36.1,19.9-67.3,46-94.4,76.7c-23.6,26.7-42.5,56.6-56.4,89.3
	c-11.1,25.9-20.3,52.5-23.4,80.8c-1.1,9.7-0.7,19.5-2.3,29.1c0,2.3,0,4.5,0,6.8c0,0.9,0,1.8,0,2.7c0,2.3,0,4.5,0,6.8
	c0,3.2,0,6.3,0,9.5c0,1.4,0,2.7,0,4.1c0,3.2,0,6.3,0,9.5c0,2.7,0,5.4,0,8.1c0,4.1,0,8.1,0,12.2c0.9,0.9,0.6,2.1,0.7,3.2
	c1.1,13.3,0.9,26.8,3.7,40c7,33.3,18.9,64.7,35.1,94.6c20.1,37.1,46.6,69,78,96.7c31.9,28.1,68.2,49.2,108.1,63.9
	c20.7,7.6,41.7,14.4,63.9,16.1c9.5,0.7,19,0.7,28.5,2.2c3.6,0,7.2,0,10.8,0c2.7,0,5.4,0,8.1,0c6.3,0,12.6,0,18.9,0
	c2.3,0,4.5,0,6.8,0c3.6,0,7.2,0,10.8,0c1.6-1.2,3.5-0.5,5.2-0.7c13.6-1.1,27.2-0.8,40.6-3.7c32.3-7,63.1-18.2,92.3-33.8
	c41.2-21.9,76.5-51.1,105.5-87.2c47.5-59.2,76.1-126,76.3-203.1C886.6,552.6,887.6,546.7,885.9,541z"/>
<g class="st1">
	<path class="st2" d="M749.3,40.3c28.4,7,52.9,20.1,70.8,44.1c28.4,38.2,29.9,89.4,3.7,129c-25.9,39.2-73.6,58.3-119.1,47.7
		c-46.1-10.7-80.5-49.1-86.1-96.2c-6.7-55.8,28.2-107.1,82.7-121.8c3.1-0.8,6.1-1.9,9.2-2.9C723.5,40.3,736.4,40.3,749.3,40.3z"/>
	<path class="st2" d="M625.3,460.2C609,482,594.4,504.3,581,527.4c-10.7,18.5-20,37.7-28.4,57.3c-6.3,14.6-15.4,26.1-31.4,30.6
		c-5.7,1.6-7.5,6.8-10,11.2C471,697,430.9,767.5,390.7,838c-22.4,39.3-44.7,78.7-67.3,117.9c-3.2,5.5-3.9,9.8-0.9,16
		c9,18.5,4.8,38.5-9.7,51.3c-14.7,12.9-35.9,14.8-52.3,4.6c-16.6-10.4-23.9-29.6-18-49.9c1.9-6.6-0.2-9.2-5.5-12.1
		c-14-7.5-27.7-15.3-41.5-23.2c-17.7-10.1-20.2-18.8-10.2-36.5c31.3-55.5,62.7-110.8,94.1-166.2c13.5-23.9,27-47.8,40.5-71.8
		c9.7-17.2,19.5-19.9,36.6-10.3c20,11.2,40.1,22.3,59.9,33.8c5.8,3.4,8.9,2.9,12.2-3c14.7-26.6,29.6-53.1,44.5-79.5
		c2.3-4,2.7-7.5-0.1-11.7c-9.9-14.8-9.4-30.3-2.7-46.2C494.7,493.3,528,440.8,566,391c24-31.4,49.6-61.3,77.5-89.2
		c42.7-42.7,100.5-46.4,148.4-9.2c24.2,18.8,46.8,39.8,70.8,58.9c36.2,28.6,74.5,53.7,119.9,65.7c10.9,2.9,22.3,3.9,33.2,6.8
		c20.3,5.4,34.5,26.6,32,46.3c-3,23.2-21.1,39.8-43.9,39.9c-12.6,0-25.1-2.5-37.4-4.6c-45.8-8-88.6-23.5-126.3-51.4
		c-1.7-1.3-3.7-3.9-5.7-1.9c-1.2,1.2-1.1,4.3-0.9,6.4c2.1,24.8,4.6,49.5,6.5,74.3c1.7,21.9,4.7,43.7,5.1,65.7
		c0.3,15.4-3.5,29.5-12,42.2c-3.9,5.8-3.4,10.3,0,15.9c57.3,94.4,105.6,193.4,150.7,294c16.2,36.1,0.8,71.8-35.4,81.8
		c-25.9,7.1-52.3-5.4-64.9-31.6c-12.5-25.9-23.9-52.3-36.2-78.3c-30.4-63.8-62.1-126.7-98-187.4c-5.4-9.2-6-9.2-11.3,0.3
		c-36.4,65.6-70,132.6-104.8,199c-12,22.9-24,45.8-36.7,68.3c-14.5,25.7-41,36.9-66.3,29.2c-33.4-10.2-50-47.2-33.7-78.9
		c17.1-33.3,36.1-65.7,54.2-98.6c34.4-62.6,68.7-125.2,103.3-187.7c3.9-7,4.7-12.1-0.8-18.9c-10.2-12.8-13.4-28.5-14.8-44.4
		c-4.1-47-8-93.9-12.1-140.9C626.4,462.1,626,461.6,625.3,460.2z M296.7,991.9c-0.2-7.8-6.8-14.1-14.5-13.8
		c-7.8,0.3-13.7,6.9-13.4,14.9c0.3,7.5,6.3,13,14,13C290.9,1006,296.9,999.8,296.7,991.9z"/>
</g>
<g>
	<path class="st3" d="M235.6,543.2c0-2.4,0-4.8,0-7.1c1-2.8,1-5.5,0-8.3c0-1.6,0-3.2,0-4.8c0.7-0.7,0.6-1.5,0.6-2.4
		c0-0.8,0.1-1.7-0.6-2.4c0-1.6,0-3.2,0-4.8c1.6-4.6-0.5-10,2.9-14.3c3.9-2,8.1-1.3,12.2-1.4c77.7,0,155.5,0,233.2,0
		c13.8,0,13.9,0,13.9-13.7c0-77.7,0-155.5,0-233.2c0-4.1-0.7-8.3,1.3-12.3c2.5-3.1,6.2-1.5,9.3-2.4c1.6-0.5,3.5,0.4,5.1-0.7
		c1.6,0,3.2,0,4.8,0c0.7,0.8,1.7,0.5,2.6,0.6c1.1-0.1,2.3,0.3,3.3-0.6c1.2,0,2.4,0,3.6,0c3.2,1,6.3,1,9.5,0c1.6,0,3.2,0,4.8,0
		c3.2,1,6.3,1,9.5,0c1.2,0,2.4,0,3.6,0c0.7,0.7,1.5,0.6,2.4,0.6c0.8,0,1.7,0.1,2.4-0.6c1.2,0,2.4,0,3.6,0c4.1,1.2,8.4,0.3,12.5,1.2
		c1.5,0.3,3.1,0.1,4.1,1.6c2.1,3.9,1.4,8.1,1.4,12.2c0,77.7,0,155.4,0,233.2c0,14.1,0,14.1,14.1,14.1c77.9,0,155.8,0,233.8,0
		c4.1,0,8.4-0.7,12.2,1.7c1.8,1.4,1.6,3.5,1.8,5.4c1.6,23,1.6,46.1,0,69.2c-0.1,1.9,0.1,4-1.6,5.5c-3.9,2.6-8.4,1.8-12.7,1.8
		c-77.4,0.1-154.7,0-232.1,0c-15.4,0-15.4,0-15.4,15.1c0,77.6,0,155.1,0,232.7c0,4.1,0.7,8.4-1.7,12.2c-1.4,1.8-3.5,1.6-5.4,1.8
		c-23.1,1.6-46.1,1.6-69.2,0c-1.9-0.1-4,0.1-5.5-1.6c-2.6-3.9-1.8-8.4-1.8-12.7c-0.1-77.7,0-155.5,0-233.2c0-2.8,0-5.5-0.1-8.3
		c-0.2-3.8-2.2-5.7-6-5.9c-2.8-0.1-5.5-0.1-8.3-0.1c-77.5,0-155.1,0-232.6,0c-4.1,0-8.3,0.7-12.3-1.3c-3-2.7-1.6-6.6-2.3-9.9
		c-0.4-1.9,0.5-3.9-0.6-5.7c0-2,0-4,0-5.9c0.7-0.8,0.7-1.6,0-2.4c0-1.6,0-3.2,0-4.8C236.5,548.8,236.5,546,235.6,543.2z"/>
	<path class="st4" d="M537.3,235.6c-3.2,1.7-6.3,1.9-9.5,0C531,235.6,534.1,235.6,537.3,235.6z"/>
	<path class="st4" d="M551.5,235.6c-3.2,1.9-6.3,1.7-9.5,0C545.2,235.6,548.4,235.6,551.5,235.6z"/>
	<path class="st5" d="M235.6,527.8c1.8,2.8,1.7,5.5,0,8.3C235.6,533.3,235.6,530.6,235.6,527.8z"/>
	<path class="st5" d="M235.6,543.2c1.7,2.8,1.8,5.5,0,8.3C235.6,548.8,235.6,546,235.6,543.2z"/>
	<path class="st6" d="M524.2,235.6c-0.9,1.5-2.3,1.2-3.6,1c-0.8-0.4-0.8-0.7,0-1C521.8,235.6,523,235.6,524.2,235.6z"/>
	<path class="st7" d="M520.7,235.6c0,0.4,0,0.7,0,1c-1,0.1-2,0.3-2.3-1C519.1,235.6,519.9,235.6,520.7,235.6z"/>
	<path class="st6" d="M557.5,236.6c-1,0.1-1.9,0.1-2.4-1c0.8,0,1.6,0,2.4,0c0.5,0.2,0.7,0.4,0.5,0.6
		C557.8,236.4,557.7,236.6,557.5,236.6z"/>
	<path class="st8" d="M557.5,236.6c0-0.3,0-0.7,0-1c0.8,0,1.6,0,2.4,0C559.5,236.8,558.5,236.7,557.5,236.6z"/>
	<path class="st9" d="M235.6,518.3c1.3,0.4,1.1,1.4,1,2.3c-0.3,0.9-0.6,0.9-1,0.1C235.6,519.9,235.6,519.1,235.6,518.3z"/>
	<path class="st10" d="M235.6,520.7c0.3,0,0.7-0.1,1-0.1c0.2,1,0.1,1.9-1,2.4C235.6,522.2,235.6,521.4,235.6,520.7z"/>
	<path class="st10" d="M235.6,556.3c1.3,0.8,1.4,1.6,0,2.4C235.6,557.9,235.6,557.1,235.6,556.3z"/>
	<path class="st11" d="M782,723.8c-3.3,3.5-5.7,7.8-9.7,10.7c-4.4,0.9-6.4-2.6-8.8-5c-24.3-24.1-48.4-48.4-72.6-72.5
		c-10.4-10.3-20.8-20.6-31-31.1c-3-3.1-6.2-4.4-10.5-4.3c-7.5,0.2-15,0-22.7,0.1c0.8,2.6,2.8,3.7,4.3,5.2
		c39.4,39.5,78.9,78.9,118.3,118.3c2.6,2.6,5.9,4.9,5.7,9.3c-10.2,9.4-20.2,19-31.2,27.5c-3.5-1.3-5.9-3.9-8.4-6.4
		c-29.8-29.8-59.6-59.6-89.4-89.4c-1.1-1.1-2-2.4-3.7-3c-1.2,2-0.6,4.2-0.6,6.3c0,44.5,0,89,0,133.5c0,3.5,0.5,7.2-2.5,10
		c-13.2,4.3-26.8,6.2-40.4,8.3c0.1-2.6,0.4-5.1,0.4-7.7c0-82.5,0.1-164.9-0.1-247.4c0-5.7,1.5-7.2,7.2-7.2
		c82.5,0.2,164.9,0.1,247.4,0.1c2.6,0,5.1-0.3,7.7-0.4c-2.4,13.6-3.9,27.3-8.3,40.5c-2.8,3-6.5,2.5-10,2.5c-44.5,0-89,0-133.5,0
		c-2,0-4-0.2-6.1,0.3c-0.1,1.8,1.4,2.6,2.4,3.6c29.9,29.9,59.8,59.9,89.8,89.8C778,717.9,780.7,720.3,782,723.8z"/>
	<path class="st11" d="M246.3,619.3c-3.8-10.7-5.1-21.8-7.2-32.9c-0.5-2.5-0.8-5.1-1.2-7.6c2.6,0.1,5.1,0.4,7.7,0.4
		c82.5,0,164.9,0.1,247.4-0.1c5.7,0,7.2,1.4,7.2,7.2c-0.2,82.5-0.1,164.9-0.1,247.4c0,2.6,0.3,5.1,0.4,7.7
		c-13.6-2.4-27.3-3.9-40.5-8.3c-3-2.8-2.5-6.5-2.5-10c0-44.5,0-89,0-133.5c0-2,0.2-4-0.3-6.1c-1.8-0.1-2.6,1.4-3.6,2.4
		c-29.9,29.9-59.9,59.8-89.8,89.8c-2.5,2.5-4.9,5.2-8.4,6.5c-3.2-3.7-8-5.5-10.7-9.7c-0.9-4.1,2.3-6.1,4.6-8.4
		c22.3-22.4,44.7-44.8,67.1-67.2c11.1-11.1,21.8-22.4,33.3-33c5.8-5.4,8.9-11.1,8-19.2c-0.6-5.9,0-11.8-0.2-18.3
		c-2.1,1.3-3.4,3-4.8,4.4c-39.9,39.9-79.8,79.7-119.6,119.6c-2.3,2.3-4.5,4.4-7.5,5.6c-9.4-10.7-19.6-20.8-28.2-32.1
		c1.3-3.5,3.9-5.9,6.4-8.4c29.8-29.8,59.6-59.6,89.4-89.4c1.1-1.1,2.3-2.1,3.2-3.6c-2.2-1.3-4.4-0.6-6.5-0.6c-44.5,0-89,0-133.5,0
		C252.8,621.8,249.1,622.3,246.3,619.3z"/>
	<path class="st11" d="M297.3,355.5c3.3-3.5,5.7-7.8,9.7-10.7c4.4-0.9,6.4,2.6,8.8,5c24.8,24.7,49.5,49.5,74.3,74.2
		c9.8,9.8,19.6,19.5,29.3,29.4c3,3,6.2,4.4,10.5,4.3c7.9-0.2,15.8,0,24.2-0.1c-1.3-2.3-3-3.6-4.5-5C409.9,412.7,370,372.9,330.2,333
		c-2.3-2.4-5.2-4.4-5.5-8.2c9.7-9.8,20.1-18.8,30.8-27.5c3.5,1.3,5.9,3.9,8.4,6.4c29.8,29.8,59.6,59.6,89.4,89.4
		c1.1,1.1,2,2.4,3.7,3c1.2-2,0.5-4.2,0.5-6.3c0-44.5,0-89,0-133.6c0-3.5-0.5-7.2,2.5-10c13.1-4.4,26.9-6,40.5-8.3
		c-0.1,2.6-0.4,5.1-0.4,7.7c0,82.5-0.1,164.9,0.1,247.4c0,5.7-1.5,7.2-7.2,7.2c-82.5-0.2-164.9-0.1-247.4-0.1
		c-2.6,0-5.1,0.3-7.7,0.4c2.4-13.6,3.9-27.3,8.4-40.4c2.8-3,6.5-2.5,10-2.5c44.5,0,89,0,133.6,0c2,0,4,0.2,6.4-0.3
		c-0.4-1.8-1.9-2.8-3.1-4c-30-29.9-59.9-59.9-89.8-89.8C301,361.1,298.6,358.8,297.3,355.5z"/>
	<path class="st11" d="M754.1,325.7c8.5,6.1,14.8,14.4,21.5,22.2c2.2,2.5,4.2,5.1,6.3,7.7c-1.3,3.5-3.9,5.9-6.5,8.4
		c-29.8,29.8-59.6,59.6-89.4,89.4c-1.1,1.1-2.4,2-3,3.7c2,1.2,4.2,0.6,6.3,0.6c44.5,0,89,0,133.5,0c3.5,0,7.2-0.5,10,2.5
		c4.4,13.1,6,26.9,8.3,40.4c-2.6-0.1-5.1-0.4-7.7-0.4c-82.5,0-164.9-0.1-247.4,0.1c-5.7,0-7.2-1.4-7.2-7.2
		c0.2-82.5,0.1-164.9,0.1-247.4c0-2.6-0.3-5.1-0.4-7.7c13.6,2.1,27.3,4.1,40.4,8.3c3,2.8,2.5,6.5,2.5,10c0,44.5,0,89,0,133.6
		c0,2-0.2,4,0.3,6.4c1.8-0.4,2.8-1.9,4-3.1c29.9-30,59.9-59.9,89.8-89.8c2.4-2.4,4.7-4.8,8-6c3.5,3.3,7.8,5.7,10.7,9.7
		c0.9,4.4-2.6,6.4-5,8.8c-24.1,24.2-48.3,48.4-72.5,72.6c-10.3,10.3-20.6,20.7-31.1,31c-3,3-4.5,6.2-4.3,10.5
		c0.2,7.9,0,15.8,0.1,24.2c2.3-1.2,3.6-2.9,5-4.4c39.6-39.5,79.1-79.1,118.7-118.6C747.9,328.7,749.9,325.2,754.1,325.7z"/>
	<path class="st12" d="M723.8,297.3c0.7,2-0.8,2.9-1.9,4c-33.4,33.4-66.8,66.8-100.2,100.2c-0.5,0.5-1.1,0.9-2,1.6
		c-0.3-1-0.6-1.5-0.6-2c0-51.6,0.1-103.2,0.1-154.8c35.8,9.2,68.3,25.3,98.3,46.7C719.6,294.5,721.7,295.9,723.8,297.3z"/>
	<path class="st12" d="M619.3,833c-0.1-51.6-0.1-103.2-0.1-154.8c0-0.5,0.3-1,0.4-1.6c2.1,0.5,3,2.1,4.2,3.3
		c32.3,32.3,64.6,64.6,96.9,96.9c1.4,1.4,3.9,2.4,3.2,5.2c-24.5,17.8-50.5,32.9-79.2,43.1C636.3,828.1,627.9,831.1,619.3,833z"/>
	<path class="st12" d="M246.3,619.3c51.6,0,103.2-0.1,154.8-0.1c0.5,0,1,0.3,2.1,0.6c-1.6,1.7-2.9,3.1-4.2,4.5c-32,32-64,64-96.1,96
		c-1.5,1.5-2.5,4.3-5.6,3.6c-20.1-27.6-36.4-57.1-46.8-89.8C249,629.1,247.7,624.2,246.3,619.3z"/>
	<path class="st12" d="M833,460.1c-51.6,0-103.2,0.1-154.8,0.1c-0.5,0-1-0.3-2.1-0.6c1.6-1.7,2.9-3.1,4.2-4.4
		c32.1-32.2,64.3-64.3,96.5-96.4c1.4-1.4,2.4-3.9,5.2-3.2c17.2,23.7,31.9,48.8,42.1,76.4C827.5,441.2,830.8,450.4,833,460.1z"/>
	<path class="st12" d="M782,723.8c-2,0.7-2.9-0.8-3.9-1.9c-33.4-33.4-66.8-66.8-100.2-100.2c-0.5-0.5-0.9-1.1-2-2.4
		c53,0,105.1,0,157.2,0c-9,34.7-24.4,66.5-45,95.8C786,717.9,784,720.9,782,723.8z"/>
	<path class="st12" d="M355.5,782c-0.7-2,0.8-2.9,1.9-3.9c33.4-33.4,66.8-66.8,100.2-100.2c0.5-0.5,1.1-0.9,2-1.6
		c0.3,1,0.6,1.5,0.6,2c0,51.6-0.1,103.2-0.1,154.8c-34.5-9-66.1-24.3-95.3-44.6C361.7,786.2,358.6,784.1,355.5,782z"/>
	<path class="st3" d="M754.1,325.7c-1.6,1.4-3.3,2.8-4.8,4.4c-41.5,41.5-83.1,83-124.6,124.6c-1.5,1.5-2.6,3.4-3.9,5.1
		c-0.6-0.3-1.1-0.6-1.7-0.9c0-11.7-0.1-23.4,0.1-35.1c0-2.1,2.2-3.2,3.6-4.5c35.9-36,71.8-71.9,107.8-107.8c1.4-1.4,2.6-2.9,4-4.3
		C741.9,312.3,749.2,317.8,754.1,325.7z"/>
	<path class="st3" d="M754.9,754.5c-7.8-7.6-15.6-15.2-23.3-22.9C696.1,696.1,660.6,660.5,625,625c-1.5-1.5-3.3-2.8-5.7-4.8
		c5.3-2,9.6-1,13.7-1.1c7.9-0.1,16.7-1.9,23.5,0.8c6.6,2.7,11.2,10.2,16.7,15.7c31.6,31.6,63.2,63.2,94.9,94.9
		c1.4,1.4,2.9,2.7,4.3,4C767.7,742.2,760.8,747.8,754.9,754.5z"/>
	<path class="st3" d="M325.6,755.9c-0.8-1.9,0.7-2.9,1.8-4c43.6-43.6,87.2-87.2,130.9-130.8c0.3-0.3,0.6-0.4,1.1-0.6
		c1.7,1.6,0.8,3.7,0.8,5.5c0,10.1,2.6,21.3-0.9,29.9c-3.5,8.6-13.2,14.8-20.3,21.9c-30,30.1-60.1,60.1-90.1,90.2
		c-1.4,1.4-2.7,2.9-4,4.3C337.4,768,332.2,761.1,325.6,755.9z"/>
	<path class="st12" d="M297.3,355.5c2-0.7,2.9,0.8,4,1.9c33.4,33.4,66.8,66.8,100.2,100.2c0.5,0.5,0.9,1.1,2,2.4
		c-53,0-105.1,0-157.2,0c9.3-36,25.4-68.6,47-98.7C294.7,359.4,296,357.5,297.3,355.5z"/>
	<path class="st12" d="M460.1,246.3c0.1,51.6,0.1,103.2,0.1,154.8c0,0.5-0.3,1-0.6,2.1c-1.6-1.5-2.8-2.6-4-3.8
		c-32.3-32.3-64.6-64.6-96.8-96.9c-1.4-1.4-3.9-2.4-3.2-5.2c24.8-18,51.3-33.2,80.3-43.5C443.8,251,451.8,248.1,460.1,246.3z"/>
	<path class="st3" d="M324.7,324.8c44.7,44.9,89.3,89.8,134.7,135.4c-8,0-15.6-0.6-23.1,0.2c-9.7,1-16.3-2.4-23.1-9.4
		c-33.6-34.4-67.8-68.2-101.9-102.2c-1.4-1.4-2.9-2.6-4.3-4C311.8,337.2,318.5,331.2,324.7,324.8z"/>
</g>
</svg>
