<?xml version="1.0" encoding="utf-8"?>
<!-- Generator: Adobe Illustrator 28.2.0, SVG Export Plug-In . SVG Version: 6.00 Build 0)  -->
<svg version="1.1" id="_Шар_2" xmlns="http://www.w3.org/2000/svg" xmlns:xlink="http://www.w3.org/1999/xlink" x="0px" y="0px"
	 viewBox="0 0 1087.1 924.3" style="enable-background:new 0 0 1087.1 924.3;" xml:space="preserve">
<style type="text/css">
	.st0{fill:#734B34;}
</style>
<g>
	<path class="st0" d="M495.8,240.6c67.4,0,134.8,0,202.1,0c9,0,9.1,0,9.1,8.9c0,25.8,0,51.6,0,77.5c0,22.6,12,34.5,34.7,34.6
		c26.2,0,52.5,0.1,78.7-0.1c5.6-0.1,7.6,1.5,7.6,7.4c-0.2,88.4-0.1,176.7-0.2,265.1c0,17.6-13.1,30.7-30.7,30.7
		c-69.1,0.1-138.1,0.1-207.2,0c-7,0-7.1-0.2-4.1-7.2c27.6-64.4-10.5-135.5-76.1-150.7c-62.4-14.5-125.2,28.1-133.9,91.1
		c-2.9,20.9-0.2,41,8.2,60.3c2.7,6.3,2.5,6.6-4.4,6.6c-28.8,0-57.5,0.1-86.3,0c-17.6-0.1-30.6-13.1-30.6-30.7
		c-0.1-120.7-0.1-241.4,0-362.1c0-18.3,13-31.2,31.5-31.2C361.4,240.6,428.6,240.6,495.8,240.6z M484.7,422c38.6,0,77.2,0,115.8,0
		c9.6,0,14.9-3.6,14.7-10c-0.2-5.9-5.4-9.3-14.7-9.3c-77,0-154,0-231,0c-9.7,0-15.1,3.4-15.1,9.6c0,6.2,5.3,9.6,15,9.6
		C407.9,422,446.3,422,484.7,422z M484.6,341.4c37.1,0,74.3,0,111.4,0c2.7,0,5.5,0.1,8.2-0.1c6.7-0.4,10.3-3.8,10.4-9.4
		c0.1-5.7-3.5-9.1-10.1-9.7c-1-0.1-2.1-0.1-3.1-0.1c-77.6,0-155.3,0-232.9,0c-1.9,0-3.8,0-5.6,0.4c-4.9,1.1-7.7,4.1-7.6,9.3
		c0.1,4.9,2.7,7.8,7.3,8.9c2.4,0.5,5,0.6,7.5,0.6C408.2,341.4,446.4,341.4,484.6,341.4z M716.3,583.2c5.9,0,11.8,0.1,17.6,0
		c7.5-0.2,12.4-4.2,12.2-9.9c-0.2-5.5-4.9-9.2-12.1-9.3c-7.3-0.1-14.7-0.2-22,0c-4.3,0.1-6.1-1.4-5.9-5.8c0.2-6.9,0-13.9,0.1-20.8
		c0-5.3-0.7-10.2-6.3-12.6c-5.6-2.4-9.1,1-12.6,4.5c-5.5,5.5-10.9,11-16.5,16.5c-1.1,1.1-2.1,3.2-4,2.2c-1.4-0.7-0.8-2.6-0.9-4.1
		c-0.1-3.8,0.2-7.6-0.4-11.3c-1.4-8.4-9.9-11.6-16-5.7c-13.6,13.1-26.9,26.5-40.1,40.1c-5.1,5.3-3,12.8,3.6,15.2
		c4.2,1.5,7.4-0.2,10.2-3c5.7-5.6,11.2-11.3,17-16.9c1.6-1.5,2.8-4.6,5.3-3.5c2,0.8,0.8,3.8,1,5.8c0.1,2.3,0,4.6,0.1,6.9
		c0.2,4.7,1.7,8.6,6.5,10.5c4.7,1.9,8.1-0.4,11.2-3.5c6.1-6.1,12.2-12.2,18.3-18.2c0.9-0.9,1.7-2.2,3.1-1.7c1.5,0.5,1.1,2.1,1.1,3.3
		c0.1,2.9,0,5.9,0.1,8.8c0.3,8.5,3.9,12.2,12.5,12.4C705,583.3,710.6,583.2,716.3,583.2z"/>
	<path class="st0" d="M485,522.7c50.7,0,91.1,40.5,91,91.2c-0.1,50.8-40.5,91-91.2,91c-50.9,0-91.1-40.6-91-91.9
		C393.8,562.9,434.4,522.7,485,522.7z"/>
	<path class="st0" d="M413.9,749.6c0-14.5,0-29,0-43.4c0-2-1-4.6,1.2-5.7c1.9-1,3.4,1.2,4.8,2.3c19,14.1,40.6,21.1,64,21.3
		c23.9,0.2,45.9-6.7,65.4-20.9c1.6-1.2,3.1-3.7,5.3-2.5c2,1.1,1.1,3.8,1.1,5.8c0.1,28.5,0,57.1,0.1,85.6c0,5.1-0.5,9.7-5.5,12.4
		c-5.2,2.8-9.6,0.7-14-2.3c-15-10.1-30.2-19.8-44.9-30.2c-5-3.5-8.5-3.1-13.2,0.2c-14.8,10.3-30,20.1-45,30.1
		c-4.2,2.8-8.5,4.8-13.5,2.4c-5.4-2.7-5.9-7.5-5.9-12.8C414,777.7,413.9,763.6,413.9,749.6z"/>
	<path class="st0" d="M776.4,342.2c-12.6,0-25.2,0.1-37.8,0c-8.7-0.1-12.3-3.6-12.3-12.2c-0.1-25.6,0-51.2,0-76.8
		c0-1.6-0.7-3.8,1-4.6c2.1-1,3.2,1.4,4.5,2.6c28.5,28.5,57,57,85.5,85.5c1.2,1.3,3.7,2.4,2.7,4.5c-0.9,2-3.4,1.1-5.1,1.1
		C802,342.3,789.2,342.2,776.4,342.2z"/>
</g>
</svg>
