<?xml version="1.0" encoding="utf-8"?>
<!-- Generator: Adobe Illustrator 28.2.0, SVG Export Plug-In . SVG Version: 6.00 Build 0)  -->
<svg version="1.1" id="Шар_1" xmlns="http://www.w3.org/2000/svg" xmlns:xlink="http://www.w3.org/1999/xlink" x="0px" y="0px"
	 viewBox="0 0 1080 1080" style="enable-background:new 0 0 1080 1080;" xml:space="preserve">
<style type="text/css">
	.st0{display:none;}
	.st1{display:inline;fill:#00A43C;}
	.st2{fill:#4CAE50;}
	.st3{fill:#1E87E4;}
	.st4{fill:#439F47;}
	.st5{fill:#3495E9;}
	.st6{fill:#45A25B;}
	.st7{fill:#F34336;}
	.st8{fill:#2195F2;}
	.st9{fill:#FEC007;}
	.st10{fill:#FEB200;}
	.st11{fill:#E43935;}
</style>
<g class="st0">
	<path class="st1" d="M749.3,40.3c28.4,7,52.9,20.1,70.8,44.1c28.4,38.2,29.9,89.4,3.7,129c-25.9,39.2-73.6,58.3-119.1,47.7
		c-46.1-10.7-80.5-49.1-86.1-96.2c-6.7-55.8,28.2-107.1,82.7-121.8c3.1-0.8,6.1-1.9,9.2-2.9C723.5,40.3,736.4,40.3,749.3,40.3z"/>
	<path class="st1" d="M625.3,460.2C609,482,594.4,504.3,581,527.4c-10.7,18.5-20,37.7-28.4,57.3c-6.3,14.6-15.4,26.1-31.4,30.6
		c-5.7,1.6-7.5,6.8-10,11.2C471,697,430.9,767.5,390.7,838c-22.4,39.3-44.7,78.7-67.3,117.9c-3.2,5.5-3.9,9.8-0.9,16
		c9,18.5,4.8,38.5-9.7,51.3c-14.7,12.9-35.9,14.8-52.3,4.6c-16.6-10.4-23.9-29.6-18-49.9c1.9-6.6-0.2-9.2-5.5-12.1
		c-14-7.5-27.7-15.3-41.5-23.2c-17.7-10.1-20.2-18.8-10.2-36.5c31.3-55.5,62.7-110.8,94.1-166.2c13.5-23.9,27-47.8,40.5-71.8
		c9.7-17.2,19.5-19.9,36.6-10.3c20,11.2,40.1,22.3,59.9,33.8c5.8,3.4,8.9,2.9,12.2-3c14.7-26.6,29.6-53.1,44.5-79.5
		c2.3-4,2.7-7.5-0.1-11.7c-9.9-14.8-9.4-30.3-2.7-46.2C494.7,493.3,528,440.8,566,391c24-31.4,49.6-61.3,77.5-89.2
		c42.7-42.7,100.5-46.4,148.4-9.2c24.2,18.8,46.8,39.8,70.8,58.9c36.2,28.6,74.5,53.7,119.9,65.7c10.9,2.9,22.3,3.9,33.2,6.8
		c20.3,5.4,34.5,26.6,32,46.3c-3,23.2-21.1,39.8-43.9,39.9c-12.6,0-25.1-2.5-37.4-4.6c-45.8-8-88.6-23.5-126.3-51.4
		c-1.7-1.3-3.7-3.9-5.7-1.9c-1.2,1.2-1.1,4.3-0.9,6.4c2.1,24.8,4.6,49.5,6.5,74.3c1.7,21.9,4.7,43.7,5.1,65.7
		c0.3,15.4-3.5,29.5-12,42.2c-3.9,5.8-3.4,10.3,0,15.9c57.3,94.4,105.6,193.4,150.7,294c16.2,36.1,0.8,71.8-35.4,81.8
		c-25.9,7.1-52.3-5.4-64.9-31.6c-12.5-25.9-23.9-52.3-36.2-78.3c-30.4-63.8-62.1-126.7-98-187.4c-5.4-9.2-6-9.2-11.3,0.3
		c-36.4,65.6-70,132.6-104.8,199c-12,22.9-24,45.8-36.7,68.3c-14.5,25.7-41,36.9-66.3,29.2c-33.4-10.2-50-47.2-33.7-78.9
		c17.1-33.3,36.1-65.7,54.2-98.6c34.4-62.6,68.7-125.2,103.3-187.7c3.9-7,4.7-12.1-0.8-18.9c-10.2-12.8-13.4-28.5-14.8-44.4
		c-4.1-47-8-93.9-12.1-140.9C626.4,462.1,626,461.6,625.3,460.2z M296.7,991.9c-0.2-7.8-6.8-14.1-14.5-13.8
		c-7.8,0.3-13.7,6.9-13.4,14.9c0.3,7.5,6.3,13,14,13C290.9,1006,296.9,999.8,296.7,991.9z"/>
</g>
<g>
	<path class="st2" d="M510.8,879.9c-7.1-3.1-14.9-2.5-22.4-3.8c-102-17-180.7-69.3-236.8-156c-6-9.2-11.8-18.6-15.7-29
		c4.4-5.4,10.8-8.2,16.3-12.1c17.4-12.5,35.3-24.1,52.8-36.4c1.4-1,2.9-2,4.7-2.2c0.7,0,1.3,0.3,1.8,0.7
		c7.8,11.2,14.4,23.2,23.4,33.7c31.6,36.9,70.5,61.6,118.1,72.4c17.4,3.9,34.9,5,52.6,5.1c3.1,0,6.1,1.5,9.1,0.3
		c15.4,1,30.8,1.7,46.3,0.1c45.9-4.6,85.9-22.4,120.6-52.5c1.5-1.3,3.1-2.5,4.6-3.7c3.2-0.4,5.3,1.8,7.6,3.4
		c22.3,16.1,44.6,32.1,66.8,48.3c1.6,1.2,3.3,2.2,4.2,4.1c0.1,0.7,0.1,1.3-0.2,2c-24,30.2-52.7,55.1-85.3,75.6
		c-37.9,23.9-79.2,38.8-123.1,46.9c-9.8,1.8-19.7,1-29.5,2.9C521.5,879.9,516.1,879.9,510.8,879.9z"/>
	<path class="st3" d="M879.8,569.3c-3.2,7.1-2.6,14.9-3.8,22.3c-10.8,68.6-39.7,128.4-86.8,179.4c-9.4-4.2-17.4-10.3-24.6-17.5
		c-0.1-0.4-0.2-0.8-0.4-1.1c-0.6-3.6,2-5.7,3.8-8.1c34.9-46,56.4-97.6,65.1-154.6c2.2-14.2,3.6-28.5,3.4-42.8
		c-0.2-22.3,1.2-44.6-0.9-66.8c-0.2-2.5,0.9-3.1,3.1-3c12.3,0.4,24.6-0.8,36.9,0.6c1.3,0.4,2.6,0.9,4,1.3c0,24.3,0,48.7,0,73
		c-1.1,2.7-1.1,5.3,0,8C879.8,563.1,879.8,566.2,879.8,569.3z"/>
	<path class="st4" d="M764.7,753.6c8.7,5.1,16.6,11.4,24.6,17.5c-22.5,25.3-48.9,45.8-78,62.9c-38.3,22.6-79.7,36.5-123.6,43.1
		c-6.6,1-13.4,0.6-19.8,2.8c-2.7,0-5.3,0-8,0c-2.2-1.1-4.4-1.1-6.6,0c-8.8,0-17.7,0-26.5,0c7.1-3.5,15-2.7,22.5-3.7
		c26.7-3.9,52.5-11,77.5-21.1c38.7-15.8,73.4-37.9,104-66.6c11.2-10.4,20.9-22,31.3-33C762.8,754.7,763.8,754.2,764.7,753.6z"/>
	<path class="st5" d="M879.8,560c-2.1-2.7-2-5.3,0-8C879.8,554.7,879.8,557.4,879.8,560z"/>
	<path class="st6" d="M553.3,879.9c2.2-2,4.4-2,6.6,0C557.7,879.9,555.5,879.9,553.3,879.9z"/>
	<path class="st7" d="M242.6,376.7c9.1-19,21.4-36,34.8-52.1c54.3-65.1,123.4-105,206.9-119.7c11.9-2.1,24-3.4,36.2-3.8
		c42.1-0.1,81.5,11.3,119.6,28.2c29.3,13,55.8,30.4,80.4,50.8c4.6,3.8,8.6,8.3,13.2,12.1c5.7,4.7,6,9.9,0.9,15.4
		c-5.9,6.3-12.1,12.2-18.2,18.3c-13.3,13.3-26.5,26.6-39.9,39.8c-2,2-3.8,5.4-7.7,3.4c-25.4-18.1-53-31.4-83.7-37.9
		c-22-4.6-44.1-5.7-66.5-3.8c-36.9,0-73.3,3.5-107.3,19.4c-19.1,9-36.6,20.2-52.7,34.1c-16.1,13.9-28.8,30.4-40.6,47.8
		c-0.5,0.5-1.1,0.8-1.8,0.9c-2.4,0.2-4.2-1-6-2.3c-21.1-15.2-42.2-30.4-63.1-45.7C245.3,380.1,243.2,379.1,242.6,376.7z"/>
	<path class="st8" d="M875.9,477.7c-12.8,0-25.6,0-39.2,0c2.2,3.4,2.1,6.6,2.1,9.8c0,19,0.1,38,0,57c-0.3,43.1-9.1,84.6-25.3,124.5
		c-12.2,30.2-29.1,57.7-49,83.4c-17.6-12.5-35.3-25-52.9-37.6c-8.4-6-16.8-12.1-25.3-18.2c22.4-21.9,40.4-46.8,52-76
		c2.2-5.5,7.4-12.5,4.9-16.4c-2.6-4-11-1.3-16.8-1.3c-58.6-0.1-117.2-0.1-175.8-0.1c-9.9,0-10.4-0.5-10.4-10.6
		c0-34.9,0-69.9,0-104.8c0-9.4,0.6-10.1,10.3-10.1c82.1,0,164.1,0,246.2,0c24.1,0,48.2-0.4,72.3-0.6
		C871.2,476.7,873.7,476,875.9,477.7z"/>
	<path class="st9" d="M242.6,376.7c19.5,14,39,28.1,58.6,42.1c4.8,3.4,9.6,6.8,14.5,10.2c0.9,2.9-0.6,5.2-1.9,7.5
		c-20.3,36.1-28.7,75-26.6,116.1c1.4,27.4,8.1,53.7,20.2,78.5c1.5,3.1,4,6,3,9.9c-23.8,16.4-47.7,32.8-71.5,49.2
		c-0.9,0.6-2,0.8-3,1.2c-15.9-30.4-26-62.7-31.3-96.5c-11.4-72.4-0.8-141.6,31.8-207.3C238.2,383.7,240.5,380.2,242.6,376.7z"/>
	<path class="st10" d="M310.4,640.8c-13.3-24.7-21.2-50.9-24.1-78.9c-4.3-40.8,3.1-79.2,20.2-116.1c2.7-5.8,6.1-11.3,9.1-16.9
		c0.4-0.1,0.8-0.1,1.3,0c8.4,2.9,14.3,9.6,21.5,14.3c2.8,1.8,6.5,3,7.4,6.9c-8.1,19.1-14.3,38.7-17.3,59.3
		c-5.2,35.4-1.5,69.8,10.4,103.4c0.8,2.3,1.5,4.6,2.2,6.9c0.3,1.8-0.7,3-2,3.8c-8.1,5.6-16.3,11.1-24.4,16.8c-1.3,0.9-2.8,1.3-4.4,1
		L310.4,640.8z"/>
	<path class="st11" d="M668.8,368.9c2.6,0,3.9-1.9,5.4-3.4c19.5-19.5,39.1-39,58.6-58.6c5.8-5.8,4.9-8.5-1.2-14.4
		c-14.7-14.1-30.7-26.3-47.7-37.5c-35.6-23.4-74.4-39-115.9-47.7c-15.6-3.3-31.5-5.5-47.5-6.4c19-1.4,38-1.2,56.8,1
		c39.4,4.5,77,15.3,112.7,32.9c30.9,15.2,58.8,34.8,83.9,58.3c5.5,5.2,5.7,7.9,0.5,13.1c-25.4,25.5-50.9,50.9-76.4,76.4
		c-5.3,5.3-7.6,5.2-13.3,0.1C679.4,378.1,674.1,373.5,668.8,368.9z"/>
	<path class="st4" d="M310.4,641.4c10.3-7.2,20.5-14.4,30.8-21.6c9.7,21.5,21.2,42,36.9,59.8c32.8,37.3,73.4,61.2,122.4,70.4
		c4.8,0.9,9.5,1.8,14.2,2.7c-11.1,2.4-22.4,1.7-33.4,0.8c-18.1-1.5-36-5.2-53.2-11.5c-28.9-10.6-54.6-26-76.9-47.4
		C334.9,678.8,321.2,661.3,310.4,641.4z"/>
	<path class="st11" d="M345.9,450.1c-9.8-6.9-19.8-13.5-29-21.2c3.6-10.2,11-18,17.6-26.1c18.7-23,41.8-40.8,68.3-54.1
		c22.6-11.3,46.5-18.4,71.7-21.1c14.7-1.6,29.4-1.5,44.1-0.4c-54.2,6.6-100.2,29.3-137.2,69.7C366.8,412.8,355.4,430.8,345.9,450.1z
		"/>
</g>
</svg>
