<?xml version="1.0" encoding="utf-8"?>
<!-- Generator: Adobe Illustrator 28.2.0, SVG Export Plug-In . SVG Version: 6.00 Build 0)  -->
<svg version="1.1" id="Шар_1" xmlns="http://www.w3.org/2000/svg" xmlns:xlink="http://www.w3.org/1999/xlink" x="0px" y="0px"
	 viewBox="0 0 1080 1080" style="enable-background:new 0 0 1080 1080;" xml:space="preserve">
<style type="text/css">
	.st0{display:none;}
	.st1{display:inline;fill:#00A43C;}
	.st2{fill:#D5D5D5;}
</style>
<g class="st0">
	<path class="st1" d="M749.3,40.3c28.4,7,52.9,20.1,70.8,44.1c28.4,38.2,29.9,89.4,3.7,129c-25.9,39.2-73.6,58.3-119.1,47.7
		c-46.1-10.7-80.5-49.1-86.1-96.2c-6.7-55.8,28.2-107.1,82.7-121.8c3.1-0.8,6.1-1.9,9.2-2.9C723.5,40.3,736.4,40.3,749.3,40.3z"/>
	<path class="st1" d="M625.3,460.2C609,482,594.4,504.3,581,527.4c-10.7,18.5-20,37.7-28.4,57.3c-6.3,14.6-15.4,26.1-31.4,30.6
		c-5.7,1.6-7.5,6.8-10,11.2C471,697,430.9,767.5,390.7,838c-22.4,39.3-44.7,78.7-67.3,117.9c-3.2,5.5-3.9,9.8-0.9,16
		c9,18.5,4.8,38.5-9.7,51.3c-14.7,12.9-35.9,14.8-52.3,4.6c-16.6-10.4-23.9-29.6-18-49.9c1.9-6.6-0.2-9.2-5.5-12.1
		c-14-7.5-27.7-15.3-41.5-23.2c-17.7-10.1-20.2-18.8-10.2-36.5c31.3-55.5,62.7-110.8,94.1-166.2c13.5-23.9,27-47.8,40.5-71.8
		c9.7-17.2,19.5-19.9,36.6-10.3c20,11.2,40.1,22.3,59.9,33.8c5.8,3.4,8.9,2.9,12.2-3c14.7-26.6,29.6-53.1,44.5-79.5
		c2.3-4,2.7-7.5-0.1-11.7c-9.9-14.8-9.4-30.3-2.7-46.2C494.7,493.3,528,440.8,566,391c24-31.4,49.6-61.3,77.5-89.2
		c42.7-42.7,100.5-46.4,148.4-9.2c24.2,18.8,46.8,39.8,70.8,58.9c36.2,28.6,74.5,53.7,119.9,65.7c10.9,2.9,22.3,3.9,33.2,6.8
		c20.3,5.4,34.5,26.6,32,46.3c-3,23.2-21.1,39.8-43.9,39.9c-12.6,0-25.1-2.5-37.4-4.6c-45.8-8-88.6-23.5-126.3-51.4
		c-1.7-1.3-3.7-3.9-5.7-1.9c-1.2,1.2-1.1,4.3-0.9,6.4c2.1,24.8,4.6,49.5,6.5,74.3c1.7,21.9,4.7,43.7,5.1,65.7
		c0.3,15.4-3.5,29.5-12,42.2c-3.9,5.8-3.4,10.3,0,15.9c57.3,94.4,105.6,193.4,150.7,294c16.2,36.1,0.8,71.8-35.4,81.8
		c-25.9,7.1-52.3-5.4-64.9-31.6c-12.5-25.9-23.9-52.3-36.2-78.3c-30.4-63.8-62.1-126.7-98-187.4c-5.4-9.2-6-9.2-11.3,0.3
		c-36.4,65.6-70,132.6-104.8,199c-12,22.9-24,45.8-36.7,68.3c-14.5,25.7-41,36.9-66.3,29.2c-33.4-10.2-50-47.2-33.7-78.9
		c17.1-33.3,36.1-65.7,54.2-98.6c34.4-62.6,68.7-125.2,103.3-187.7c3.9-7,4.7-12.1-0.8-18.9c-10.2-12.8-13.4-28.5-14.8-44.4
		c-4.1-47-8-93.9-12.1-140.9C626.4,462.1,626,461.6,625.3,460.2z M296.7,991.9c-0.2-7.8-6.8-14.1-14.5-13.8
		c-7.8,0.3-13.7,6.9-13.4,14.9c0.3,7.5,6.3,13,14,13C290.9,1006,296.9,999.8,296.7,991.9z"/>
</g>
<g>
	<path class="st2" d="M540.2,834.2c-39,0-78.1,0.1-117.1,0c-43.3-0.1-76.4-26.2-86.7-68c-0.1-0.5-0.4-1-0.4-1.5
		c-0.8-43-6.5-86.3,11.2-127.8c24.3-56.9,80.9-95.1,142.8-95.8c34.6-0.4,69.2-0.5,103.8,0c73.5,1.2,140.9,61.4,149.9,134.5
		c3.4,27.7,2.9,55.7,0.9,83.4c-3,41.8-41,74.4-84.2,75.2c-0.5,0-1,0-1.6,0C619.4,834.1,579.8,834.1,540.2,834.2z"/>
	<path class="st2" d="M659.5,395.3c0.2,71.3-53.5,121.3-118.8,121.6C473.1,517.2,419,462,419.4,394.1
		c0.3-63.6,58.2-118.8,124.1-118.5C599.5,275.9,662.1,325.3,659.5,395.3z"/>
	<path class="st2" d="M352.4,491.2c20.2,0,35.9,0.3,51.5-0.1c9.2-0.3,16.9,1.5,22.1,9.9c2.8,4.5,10.7,7.1,9.4,12.2
		c-1.1,4.3-8.8,4.2-13.5,6.3c-70.6,30.9-111.6,84.1-120.5,160.9c-3.1,26.6-2,53.5-0.4,80.3c0.3,4.3,0.5,8.1-5.4,7.9
		c-21.3-0.6-42.7,2-63.9-1.5c-38.3-6.3-67.1-40.1-67-78.9c0.1-23.9-1.9-47.9,1.5-71.7c8.9-63,64.7-116.9,127.6-123.9
		C314.9,490.2,336,492.1,352.4,491.2z"/>
	<path class="st2" d="M728,491.2c20.3,0.9,44.3-1.6,68.1,2.9c68,13.1,119.3,74.4,119.6,143.6c0.1,16.9,0.1,33.8,0,50.7
		c-0.4,43-35.8,79.1-78.9,80.1c-16.4,0.4-32.8,0.2-49.2,0.1c-8.7,0-8.4-0.8-8.2-9.7c1.1-40,4.7-80.2-8.6-119.1
		c-20.5-59.9-60.5-100.9-119.8-123c-9-3.3-8.4-2.8-2.4-10.3c9.7-12,21.3-17,36.8-15.5C698.4,492.2,711.5,491.2,728,491.2z"/>
	<path class="st2" d="M357.9,475c-47-2.3-83.2-22.8-103.5-65.8C235,368,238.6,327.5,267,290.9c38.7-49.9,113.8-58.9,161.9-20.1
		c9.8,7.9,9.8,7.9,1.2,16.7c-44.3,45.1-57.2,111.8-32.2,169.9c3,7,2.4,10.5-5.3,12.1c-4.8,1-9.5,2.8-14.4,3.6
		C371.6,474.2,364.9,475.4,357.9,475z"/>
	<path class="st2" d="M836.1,353.9c-1.2,98.4-85.6,135.3-147.4,115.8c-9.9-3.1-9.9-3.2-5.8-12.8c24.7-59,11.1-126.6-34.8-171.3
		c-5.1-5-5.1-7.6,0.4-12c38-30.4,79.7-35.9,123.7-16.2C815.9,277.2,834.2,314.2,836.1,353.9z"/>
</g>
</svg>
