<?xml version="1.0" encoding="utf-8"?>
<!-- Generator: Adobe Illustrator 28.2.0, SVG Export Plug-In . SVG Version: 6.00 Build 0)  -->
<svg version="1.1" id="Шар_1" xmlns="http://www.w3.org/2000/svg" xmlns:xlink="http://www.w3.org/1999/xlink" x="0px" y="0px"
	 viewBox="0 0 1080 1080" style="enable-background:new 0 0 1080 1080;" xml:space="preserve">
<style type="text/css">
	.st0{display:none;}
	.st1{display:inline;fill:#00A43C;}
	.st2{fill:#E34D26;}
	.st3{fill:#F06529;}
	.st4{fill:#EAEAEA;}
	.st5{fill:#FEFEFE;}
</style>
<g class="st0">
	<path class="st1" d="M749.3,40.3c28.4,7,52.9,20.1,70.8,44.1c28.4,38.2,29.9,89.4,3.7,129c-25.9,39.2-73.6,58.3-119.1,47.7
		c-46.1-10.7-80.5-49.1-86.1-96.2c-6.7-55.8,28.2-107.1,82.7-121.8c3.1-0.8,6.1-1.9,9.2-2.9C723.5,40.3,736.4,40.3,749.3,40.3z"/>
	<path class="st1" d="M625.3,460.2C609,482,594.4,504.3,581,527.4c-10.7,18.5-20,37.7-28.4,57.3c-6.3,14.6-15.4,26.1-31.4,30.6
		c-5.7,1.6-7.5,6.8-10,11.2C471,697,430.9,767.5,390.7,838c-22.4,39.3-44.7,78.7-67.3,117.9c-3.2,5.5-3.9,9.8-0.9,16
		c9,18.5,4.8,38.5-9.7,51.3c-14.7,12.9-35.9,14.8-52.3,4.6c-16.6-10.4-23.9-29.6-18-49.9c1.9-6.6-0.2-9.2-5.5-12.1
		c-14-7.5-27.7-15.3-41.5-23.2c-17.7-10.1-20.2-18.8-10.2-36.5c31.3-55.5,62.7-110.8,94.1-166.2c13.5-23.9,27-47.8,40.5-71.8
		c9.7-17.2,19.5-19.9,36.6-10.3c20,11.2,40.1,22.3,59.9,33.8c5.8,3.4,8.9,2.9,12.2-3c14.7-26.6,29.6-53.1,44.5-79.5
		c2.3-4,2.7-7.5-0.1-11.7c-9.9-14.8-9.4-30.3-2.7-46.2C494.7,493.3,528,440.8,566,391c24-31.4,49.6-61.3,77.5-89.2
		c42.7-42.7,100.5-46.4,148.4-9.2c24.2,18.8,46.8,39.8,70.8,58.9c36.2,28.6,74.5,53.7,119.9,65.7c10.9,2.9,22.3,3.9,33.2,6.8
		c20.3,5.4,34.5,26.6,32,46.3c-3,23.2-21.1,39.8-43.9,39.9c-12.6,0-25.1-2.5-37.4-4.6c-45.8-8-88.6-23.5-126.3-51.4
		c-1.7-1.3-3.7-3.9-5.7-1.9c-1.2,1.2-1.1,4.3-0.9,6.4c2.1,24.8,4.6,49.5,6.5,74.3c1.7,21.9,4.7,43.7,5.1,65.7
		c0.3,15.4-3.5,29.5-12,42.2c-3.9,5.8-3.4,10.3,0,15.9c57.3,94.4,105.6,193.4,150.7,294c16.2,36.1,0.8,71.8-35.4,81.8
		c-25.9,7.1-52.3-5.4-64.9-31.6c-12.5-25.9-23.9-52.3-36.2-78.3c-30.4-63.8-62.1-126.7-98-187.4c-5.4-9.2-6-9.2-11.3,0.3
		c-36.4,65.6-70,132.6-104.8,199c-12,22.9-24,45.8-36.7,68.3c-14.5,25.7-41,36.9-66.3,29.2c-33.4-10.2-50-47.2-33.7-78.9
		c17.1-33.3,36.1-65.7,54.2-98.6c34.4-62.6,68.7-125.2,103.3-187.7c3.9-7,4.7-12.1-0.8-18.9c-10.2-12.8-13.4-28.5-14.8-44.4
		c-4.1-47-8-93.9-12.1-140.9C626.4,462.1,626,461.6,625.3,460.2z M296.7,991.9c-0.2-7.8-6.8-14.1-14.5-13.8
		c-7.8,0.3-13.7,6.9-13.4,14.9c0.3,7.5,6.3,13,14,13C290.9,1006,296.9,999.8,296.7,991.9z"/>
</g>
<g>
	<path class="st2" d="M540.1,165.5c108.3,0,216.5,0,324.8-0.1c5.4,0,6.9,1.2,6.4,6.7c-3.6,37.2-6.8,74.3-10.2,111.5
		c-2.5,28.1-4.9,56.2-7.4,84.2c-3.3,37.4-6.7,74.7-10.1,112.1c-2.9,32.1-5.7,64.3-8.6,96.4c-3.4,37.8-6.8,75.5-10.1,113.3
		c-2.9,32.1-5.7,64.3-8.6,96.4c-1.5,17-3.2,34.1-4.5,51.1c-0.3,3.8-2.5,4.3-5.1,5c-29.4,8.1-58.8,16.3-88.2,24.4
		c-56.2,15.5-112.3,31.1-168.5,46.7c-6.8,1.9-13.3,1.8-20.1-0.1c-40.6-11.3-81.2-22.5-121.9-33.7c-44.8-12.3-89.5-24.7-134.3-36.8
		c-4-1.1-5.5-2.5-5.8-6.8c-4.5-52.3-9.2-104.6-13.9-156.9c-5.7-63.1-11.4-126.2-17.1-189.4c-4.5-50.3-8.8-100.7-13.3-151.1
		c-4.9-54.4-9.8-108.8-14.8-163.2c-0.9-9.8-0.9-9.8,8.6-9.8C325.1,165.5,432.6,165.5,540.1,165.5z"/>
	<path class="st3" d="M540.6,303.1c0-25.3,0.1-50.6-0.1-75.9c0-4.5,1-6,5.8-6c86.6,0.1,173.3,0.1,259.9,0c4.3,0,4.8,1.1,4.4,5.2
		c-1.9,20-3,40.1-5,60.1c-1.7,17.3-3.3,34.6-4.7,51.9c-1.9,23.3-4.6,46.5-6.8,69.7c-1.4,15.4-2.3,30.8-3.6,46.2
		c-1.7,19.4-3.9,38.8-5.7,58.2c-1.4,14.8-2.3,29.7-3.7,44.5c-1.4,15.4-3,30.7-4.5,46.1c-0.9,10.2-1.6,20.4-2.5,30.6
		c-1.4,15.8-3,31.5-4.4,47.3c-0.9,10.2-1.7,20.4-2.6,30.6c-1.4,16-3,31.9-4.5,47.9c-0.9,10.6-2,21.2-2.4,31.8
		c-0.2,4.2-1.3,6.3-5.4,7.4c-54,14.9-107.9,29.9-161.8,44.9c-15.7,4.4-31.3,8.8-47,13.4c-3.9,1.1-5.7,1-5.7-4.1
		c0.3-24.5,0.1-49,0.1-73.5c0-2.3,0.5-4.7-1.2-6.7c0.3-0.7,0.7-1.2,1.3-1.6c15.8-5.4,32.1-9.3,48.2-13.8
		c37.1-10.4,74.2-20.8,111.5-30.8c5.9-1.6,8.3-4.7,8.8-10.5c2.1-27.9,4.9-55.8,7.3-83.6c2.5-28.3,5-56.5,7.7-84.8
		c2.1-22.3,3.9-44.5,6.1-66.8c0.7-7.1-0.3-7.9-7.8-7.9c-57.2,0-114.5,0-171.7,0c-3.3,0-6.6,0.4-9.8-1c-0.6-0.4-1.1-1-1.4-1.7
		c-1.1-3-0.8-6.1-0.8-9.2c0-21.4,0-42.7,0-64.1c0-7.4-0.5-7.9-8-7.9c-32.5,0-64.9,0-97.4-0.1c-3.2,0-6.7,0.6-9.5-1.7
		c0.8-3.9,4.1-3,6.5-3.1c7.6-0.3,15.1-0.1,22.7-0.1c29.1,0.1,58.2-0.2,87.3,0.2c38.1-0.3,76.3-0.1,114.4-0.1c25.5,0,51,0,76.5,0
		c6.6,0,7.5-0.7,8.2-7.1c2.2-21.6,3.9-43.3,6.1-65c0.2-1.9,0.2-3.9-1-5.6c-2.4-2.5-5.5-1.6-8.3-1.6c-62,0-124,0-186-0.1
		C546.9,304.7,543.4,305.6,540.6,303.1z"/>
	<path class="st4" d="M540.6,303.1c2.3,0.1,4.6,0.3,7,0.3c64.3,0,128.6,0,192.9,0.1c2.2,0,4.6-0.9,6.7,0.8c-3.2,2.7-7,1.8-10.6,1.8
		c-61.1,0.1-122.2,0-183.3,0c-10.8,0-10.8,0-10.8,10.9c0,20,0,40,0,60.1c0,3.1,0.3,6.3-1.9,8.9c-36.8,0.1-73.6,0.1-110.5,0.2
		c-2,0-4.3-0.9-6.1,0.8c3.5,9.3,2.8,19.1,3.8,28.7c1.5,15.1,2.7,30.2,4.2,45.2c0.8,8.3,1.1,8.3,9.2,8.3c29.9,0,59.9,0,89.8,0
		c3.3,0,6.7-0.6,9.6,1.6l-0.1,0.4c1.9,1.8,1.9,4.2,1.9,6.5c0.1,23.3,0.1,46.5,0,69.8c0,1.9-0.1,3.9-1,5.7c-0.3,0.3-0.5,0.6-0.8,0.9
		c-2.3-0.1-4.7-0.3-7-0.3c-57.8,0-115.6-0.1-173.4,0.1c-4.7,0-6.5-0.7-6.9-6.1c-5-58.1-10.5-116.1-15.8-174.1c-2-21.7-3.7-43.4-6-65
		c-0.6-5.5,2-5.4,5.9-5.4c65.2,0.1,130.4,0.1,195.6,0C535.5,303.5,538,303.2,540.6,303.1z"/>
	<path class="st4" d="M540.6,772.2c-0.4,0.2-0.8,0.4-1.2,0.5c-37.8-10.6-75.5-21.2-113.3-31.8c-17.4-4.8-34.8-9.5-52.3-14.2
		c-2.7-0.7-4.8-1.3-5.1-5.1c-3.4-40.5-7-80.9-10.7-121.3c-0.4-4.4,0.9-5.2,4.9-5.1c24.5,0.2,49,0.2,73.6,0c4.6,0,5.8,1.5,6.1,5.9
		c1.3,18.8,3.1,37.6,4.7,56.3c0.2,2.5,0.7,4.3,3.7,5.1c29.3,7.7,58.6,15.6,87.8,23.3c0.5,0.1,1.2,0,1.7-0.1c0.9-0.3,1.4,0.1,1.7,0.9
		c0.4,26.7,0.2,53.4,0.1,80C542.3,768.8,542,770.7,540.6,772.2z"/>
	<path class="st3" d="M541.7,686.2c-0.4-0.1-0.8-0.2-1.2-0.4c0-43.9,0-87.7,0.1-131.6c0,0-0.1-0.4-0.1-0.4c2.4-1.8,5.2-1.5,7.9-1.5
		c28.6,0,57.2,0,85.8,0c9.1,0,10.3,1.7,9.4,10.9c-2.4,24.2-4.5,48.3-6.6,72.5c-0.6,6.8-1.2,13.5-1.9,20.3c-0.6,5.2-3,7.9-8.1,9.2
		c-21.1,5.5-42.1,11.4-63.1,16.9c-5.1,1.3-10.1,2.9-15.2,4.1C546.3,686.6,544,687.5,541.7,686.2z"/>
	<path class="st5" d="M541.7,686.2c28.7-7.7,57.3-15.5,86-23.1c3.8-1,5.2-2.5,5.5-6.5c2.8-32.3,5.8-64.6,8.9-96.8
		c0.4-4.5-0.6-5.9-5.4-5.8c-32.1,0.1-64.1,0-96.2-0.1c0-27.5,0-54.9,0-82.4c3.7-0.1,7.4-0.2,11.1-0.2c58.4,0,116.8,0,175.2-0.1
		c4.5,0,6,0.9,5.5,5.7c-3.2,33.3-6.1,66.6-9.1,99.9c-2.5,27.9-4.9,55.8-7.5,83.6c-1.8,20.5-3.8,41-5.6,61.6
		c-0.2,2.4-0.8,3.9-3.4,4.6C651.4,741.7,596,757,540.6,772.2c0-26.6,0-53.2,0-79.8C540.6,690.2,540.4,688.1,541.7,686.2z"/>
	<path class="st5" d="M540.6,386.1c0-24.9,0.2-49.8-0.1-74.7c-0.1-5.5,1.3-7.2,7-7.2c66.6,0.2,133.1,0.1,199.7,0.1
		c0.7,11.5-1.6,22.8-2.4,34.1c-1,14.3-2.9,28.6-3.9,42.9c-0.3,4.7-2.2,5.1-6.1,5.1c-31.5-0.1-63,0-94.5-0.1
		C607,386.2,573.8,386.1,540.6,386.1z"/>
	<path class="st2" d="M540.6,471c-35.4,0.1-70.7,0.2-106.1,0.3c-2.2,0-3.6-0.2-3.8-3c-2.3-26.3-4.7-52.6-7-78.8
		c-0.1-0.7,0.2-1.5,0.3-2.3c36.7,0,73.4,0.1,110.2-0.1c5.1,0,6.6,1.3,6.5,6.5C540.4,419.3,540.6,445.1,540.6,471z"/>
</g>
</svg>
