<?xml version="1.0" encoding="utf-8"?>
<!-- Generator: Adobe Illustrator 28.2.0, SVG Export Plug-In . SVG Version: 6.00 Build 0)  -->
<svg version="1.1" id="Шар_1" xmlns="http://www.w3.org/2000/svg" xmlns:xlink="http://www.w3.org/1999/xlink" x="0px" y="0px"
	 viewBox="0 0 1080 1080" style="enable-background:new 0 0 1080 1080;" xml:space="preserve">
<style type="text/css">
	.st0{display:none;}
	.st1{display:inline;fill:#00A43C;}
	.st2{fill:#734B34;}
	.st3{fill:#403332;}
</style>
<g class="st0">
	<path class="st1" d="M749.3,40.3c28.4,7,52.9,20.1,70.8,44.1c28.4,38.2,29.9,89.4,3.7,129c-25.9,39.2-73.6,58.3-119.1,47.7
		c-46.1-10.7-80.5-49.1-86.1-96.2c-6.7-55.8,28.2-107.1,82.7-121.8c3.1-0.8,6.1-1.9,9.2-2.9C723.5,40.3,736.4,40.3,749.3,40.3z"/>
	<path class="st1" d="M625.3,460.2C609,482,594.4,504.3,581,527.4c-10.7,18.5-20,37.7-28.4,57.3c-6.3,14.6-15.4,26.1-31.4,30.6
		c-5.7,1.6-7.5,6.8-10,11.2C471,697,430.9,767.5,390.7,838c-22.4,39.3-44.7,78.7-67.3,117.9c-3.2,5.5-3.9,9.8-0.9,16
		c9,18.5,4.8,38.5-9.7,51.3c-14.7,12.9-35.9,14.8-52.3,4.6c-16.6-10.4-23.9-29.6-18-49.9c1.9-6.6-0.2-9.2-5.5-12.1
		c-14-7.5-27.7-15.3-41.5-23.2c-17.7-10.1-20.2-18.8-10.2-36.5c31.3-55.5,62.7-110.8,94.1-166.2c13.5-23.9,27-47.8,40.5-71.8
		c9.7-17.2,19.5-19.9,36.6-10.3c20,11.2,40.1,22.3,59.9,33.8c5.8,3.4,8.9,2.9,12.2-3c14.7-26.6,29.6-53.1,44.5-79.5
		c2.3-4,2.7-7.5-0.1-11.7c-9.9-14.8-9.4-30.3-2.7-46.2C494.7,493.3,528,440.8,566,391c24-31.4,49.6-61.3,77.5-89.2
		c42.7-42.7,100.5-46.4,148.4-9.2c24.2,18.8,46.8,39.8,70.8,58.9c36.2,28.6,74.5,53.7,119.9,65.7c10.9,2.9,22.3,3.9,33.2,6.8
		c20.3,5.4,34.5,26.6,32,46.3c-3,23.2-21.1,39.8-43.9,39.9c-12.6,0-25.1-2.5-37.4-4.6c-45.8-8-88.6-23.5-126.3-51.4
		c-1.7-1.3-3.7-3.9-5.7-1.9c-1.2,1.2-1.1,4.3-0.9,6.4c2.1,24.8,4.6,49.5,6.5,74.3c1.7,21.9,4.7,43.7,5.1,65.7
		c0.3,15.4-3.5,29.5-12,42.2c-3.9,5.8-3.4,10.3,0,15.9c57.3,94.4,105.6,193.4,150.7,294c16.2,36.1,0.8,71.8-35.4,81.8
		c-25.9,7.1-52.3-5.4-64.9-31.6c-12.5-25.9-23.9-52.3-36.2-78.3c-30.4-63.8-62.1-126.7-98-187.4c-5.4-9.2-6-9.2-11.3,0.3
		c-36.4,65.6-70,132.6-104.8,199c-12,22.9-24,45.8-36.7,68.3c-14.5,25.7-41,36.9-66.3,29.2c-33.4-10.2-50-47.2-33.7-78.9
		c17.1-33.3,36.1-65.7,54.2-98.6c34.4-62.6,68.7-125.2,103.3-187.7c3.9-7,4.7-12.1-0.8-18.9c-10.2-12.8-13.4-28.5-14.8-44.4
		c-4.1-47-8-93.9-12.1-140.9C626.4,462.1,626,461.6,625.3,460.2z M296.7,991.9c-0.2-7.8-6.8-14.1-14.5-13.8
		c-7.8,0.3-13.7,6.9-13.4,14.9c0.3,7.5,6.3,13,14,13C290.9,1006,296.9,999.8,296.7,991.9z"/>
</g>
<g>
	<path class="st2" d="M158.1,641.3c0-150,0-300,0-450c2.7-0.1,5.5-0.3,8.2-0.3c247.6,0,495.2,0,742.8,0c12.6,0,12.6,0,12.6,12.8
		c0,141.8,0,283.6,0,425.4c0,2-0.1,4,0,6c0.3,4.8-2,6.8-6.6,6.6c-2.2-0.1-4.5,0-6.7,0c-246.6,0-493.2,0-739.8,0
		C165.1,641.8,161.6,641.5,158.1,641.3z M753.4,529.9c-23.1,0-46.1,0.1-69.2-0.1c-6.4-0.1-9.1,2.1-8.8,8.6c0.3,8.7,0.2,17.4,0,26
		c-0.1,5.6,2,8.1,7.8,8.1c46.4-0.1,92.8-0.1,139.2,0c5.9,0,7.8-2.8,7.7-8.2c-0.2-8.4-0.3-16.9,0-25.3c0.3-6.7-2.2-9.3-9.1-9.2
		C798.6,530.1,776,529.9,753.4,529.9z M495,482.9c19.1,0,38.2-0.2,57.3,0.1c6.6,0.1,9.6-1.7,9.3-8.8c-0.5-8.7-0.3-17.4,0-26
		c0.2-5.8-2.2-8-7.9-7.9c-39.2,0.1-78.4,0.1-117.5,0c-5.8,0-7.9,2.5-7.7,8.1c0.3,8.7,0.4,17.4,0,26c-0.3,6.5,2.3,8.7,8.7,8.6
		C456.3,482.7,475.6,482.9,495,482.9z M314.9,482.9c19.6,0,39.2-0.1,58.8,0.1c5.2,0,7.8-1.8,7.7-7.3c-0.2-9.4-0.1-18.9,0-28.3
		c0.1-5.1-2.4-7.1-7.3-7.1c-39.2,0.1-78.4,0.1-117.6,0c-5.5,0-7.5,2.6-7.4,7.8c0.1,8.7,0.3,17.4-0.1,26c-0.3,6.9,2.7,9,9.3,8.9
		C277.2,482.7,296.1,482.9,314.9,482.9z M764,482.9c19.3,0,38.7-0.1,58,0.1c5.6,0.1,8.2-2,8.1-7.8c-0.2-8.9-0.2-17.9,0-26.8
		c0.1-5.6-2.1-8.2-7.9-8.1c-38.9,0.1-77.9,0.1-116.8,0c-5.3,0-7.7,2.1-7.6,7.5c0.2,8.4,0,16.9,0,25.3c0,9.4,0.4,9.8,9.6,9.8
		C726.3,482.9,745.2,482.9,764,482.9z M299.9,384.7c0.8-0.6,2.1-1.3,3.2-2.3c7.6-7.5,15.1-15.1,22.7-22.6c3.3-3.2,2.6-5.8-0.4-8.7
		c-6.6-6.4-12.8-13.2-19.6-19.4c-4.2-3.9-3.7-6.6,0.2-10.3c6.7-6.3,13-13,19.5-19.4c3.1-3,3.3-5.6,0.1-8.7
		c-7.5-7.2-14.8-14.6-22.1-22.1c-2.9-3-5.2-2.8-8.1,0.1c-16.9,17.1-33.9,34.1-51.1,51c-3.5,3.5-3.1,5.9,0.2,9.2
		c16.9,16.7,33.7,33.6,50.6,50.5C296.3,383.2,297.4,384.7,299.9,384.7z M533.2,268.6c-1.2,0.8-2.4,1.2-3.3,2
		c-8.1,8-16.2,16.1-24.3,24.2c-2.7,2.7-1.2,4.8,0.9,6.9c6.3,6.3,12.4,13,19,18.9c5.3,4.7,4.7,8.1-0.2,12.6
		c-6.4,5.8-12.2,12.3-18.5,18.3c-3.2,3.1-3.3,5.5,0,8.6c7.3,7,14.6,14.2,21.6,21.6c3.4,3.5,5.8,3.4,9.2,0c16.6-16.8,33.3-33.5,50-50
		c3.7-3.7,3.4-6.4-0.1-10c-16.8-16.6-33.4-33.3-50.1-50C536.2,270.6,534.8,269.7,533.2,268.6z M465.3,296.6
		c-0.5-2.6-2.2-3.7-3.8-4.8c-7.9-6-16-11.8-23.8-17.9c-4-3.2-6.7-2.8-9.8,1.4c-19.4,26.1-38.9,52.1-58.5,78
		c-2.7,3.6-2.5,5.9,1.2,8.5c7.9,5.6,15.7,11.3,23.2,17.4c4.7,3.8,7.7,3.5,11.4-1.5c18.9-25.5,38-50.9,57-76.3
		C463.4,299.8,464.3,298,465.3,296.6z M572.4,572.5c16.1,0,32.2-0.1,48.3,0.1c5.7,0.1,8.1-2.1,7.9-7.9c-0.3-9.2-0.2-18.3,0-27.5
		c0.1-5-1.8-7.3-7-7.2c-32.2,0.1-64.5,0.1-96.7,0c-5,0-7.2,2-7.1,7.1c0.2,8.4,0,16.9,0,25.3c0,9.8,0.3,10.2,9.9,10.2
		C542.6,572.5,557.5,572.5,572.4,572.5z M393.9,572.5c15.6,0,31.2-0.1,46.9,0.1c5.7,0.1,8.1-2.3,8-8c-0.2-9.2-0.1-18.3,0-27.5
		c0-5-2.2-7.2-7.2-7.1c-32,0.1-64,0.1-95.9,0c-4.7,0-6.7,2.1-6.7,6.8c0.1,9.2,0.2,18.4-0.1,27.5c-0.2,6.1,2.2,8.4,8.3,8.3
		C362.6,572.3,378.3,572.5,393.9,572.5z M629.7,482.9c4.7,0,9.4-0.1,14.1,0c5,0.2,7.3-2,7.1-7c-0.2-4.7,0-9.4,0-14.1
		c0-21.5,0-21.6-21.7-21.5c-23.7,0.1-21-2.9-21,20.9C608.2,486.6,605.1,482.5,629.7,482.9z M291.8,551.4c0-4.9-0.1-9.9,0-14.8
		c0.1-4.8-2.2-6.7-6.8-6.6c-9.6,0.1-19.3,0.1-28.9,0c-4.6,0-6.9,1.9-6.9,6.6c0,9.6,0.1,19.3,0,28.9c0,5,2.4,7.1,7.3,7
		c9.4-0.1,18.8-0.1,28.2,0c4.9,0.1,7.4-1.9,7.2-7C291.7,560.8,291.8,556.1,291.8,551.4z"/>
	<path class="st3" d="M158.1,684.5c4.7,0,9.4,0.1,14.2,0.1c244.6,0,489.2,0,733.8,0c19.2,0,15.4,0.3,15.5,15.7
		c0.2,21.9,0.1,43.7,0.1,65.6c0,10.7-0.1,10.8-10.8,10.8c-49.4,0-98.8,0-148.3,0c-37,0-74,0-111,0c-9.8,0-10,0.3-6.3,9.5
		c6.1,15.2,12.6,30.3,18.1,45.7c2.8,8,7.2,10.6,15.4,10.1c11.1-0.6,22.3,0,33.5-0.2c5.7-0.1,8.1,2.2,8,7.9
		c-0.2,10.4-0.2,20.9,0,31.3c0.1,5.8-2.5,8-8.1,7.9c-8.4-0.2-16.9,0-25.3,0c-105,0-210.1,0-315.1,0c-12.7,0-12.7,0-12.8-12.8
		c0-7.9,0-15.9,0-23.8c0.1-9.8,0.5-10.2,10-10.3c11.7-0.1,23.3-0.2,35,0.1c5.6,0.1,8.6-1.9,10.6-7.1c6.4-16.7,13.2-33.2,19.9-49.8
		c3.1-7.7,2.6-8.3-5.8-8.4c-46.4,0-92.9,0-139.3,0c-43.7,0-87.4,0.1-131.1,0.1C158.1,746.1,158.1,715.3,158.1,684.5z"/>
</g>
</svg>
