<?xml version="1.0" encoding="utf-8"?>
<!-- Generator: Adobe Illustrator 28.2.0, SVG Export Plug-In . SVG Version: 6.00 Build 0)  -->
<svg version="1.1" id="Шар_1" xmlns="http://www.w3.org/2000/svg" xmlns:xlink="http://www.w3.org/1999/xlink" x="0px" y="0px"
	 viewBox="0 0 1080 1080" style="enable-background:new 0 0 1080 1080;" xml:space="preserve">
<style type="text/css">
	.st0{display:none;}
	.st1{display:inline;fill:#00A43C;}
	.st2{fill:#D2B52A;}
	.st3{fill:#FAD625;}
	.st4{fill:#ECEFEF;}
	.st5{fill:#ECD14C;}
	.st6{fill:#EED55E;}
	.st7{fill:#EDD668;}
	.st8{fill:#EEDA78;}
	.st9{fill:#ECD359;}
	.st10{fill:#EEDA75;}
	.st11{fill:#EBCF43;}
	.st12{fill:#E8CC44;}
	.st13{fill:#EFDC7F;}
	.st14{fill:#FEFEFE;}
</style>
<g class="st0">
	<path class="st1" d="M749.3,40.3c28.4,7,52.9,20.1,70.8,44.1c28.4,38.2,29.9,89.4,3.7,129c-25.9,39.2-73.6,58.3-119.1,47.7
		c-46.1-10.7-80.5-49.1-86.1-96.2c-6.7-55.8,28.2-107.1,82.7-121.8c3.1-0.8,6.1-1.9,9.2-2.9C723.5,40.3,736.4,40.3,749.3,40.3z"/>
	<path class="st1" d="M625.3,460.2C609,482,594.4,504.3,581,527.4c-10.7,18.5-20,37.7-28.4,57.3c-6.3,14.6-15.4,26.1-31.4,30.6
		c-5.7,1.6-7.5,6.8-10,11.2C471,697,430.9,767.5,390.7,838c-22.4,39.3-44.7,78.7-67.3,117.9c-3.2,5.5-3.9,9.8-0.9,16
		c9,18.5,4.8,38.5-9.7,51.3c-14.7,12.9-35.9,14.8-52.3,4.6c-16.6-10.4-23.9-29.6-18-49.9c1.9-6.6-0.2-9.2-5.5-12.1
		c-14-7.5-27.7-15.3-41.5-23.2c-17.7-10.1-20.2-18.8-10.2-36.5c31.3-55.5,62.7-110.8,94.1-166.2c13.5-23.9,27-47.8,40.5-71.8
		c9.7-17.2,19.5-19.9,36.6-10.3c20,11.2,40.1,22.3,59.9,33.8c5.8,3.4,8.9,2.9,12.2-3c14.7-26.6,29.6-53.1,44.5-79.5
		c2.3-4,2.7-7.5-0.1-11.7c-9.9-14.8-9.4-30.3-2.7-46.2C494.7,493.3,528,440.8,566,391c24-31.4,49.6-61.3,77.5-89.2
		c42.7-42.7,100.5-46.4,148.4-9.2c24.2,18.8,46.8,39.8,70.8,58.9c36.2,28.6,74.5,53.7,119.9,65.7c10.9,2.9,22.3,3.9,33.2,6.8
		c20.3,5.4,34.5,26.6,32,46.3c-3,23.2-21.1,39.8-43.9,39.9c-12.6,0-25.1-2.5-37.4-4.6c-45.8-8-88.6-23.5-126.3-51.4
		c-1.7-1.3-3.7-3.9-5.7-1.9c-1.2,1.2-1.1,4.3-0.9,6.4c2.1,24.8,4.6,49.5,6.5,74.3c1.7,21.9,4.7,43.7,5.1,65.7
		c0.3,15.4-3.5,29.5-12,42.2c-3.9,5.8-3.4,10.3,0,15.9c57.3,94.4,105.6,193.4,150.7,294c16.2,36.1,0.8,71.8-35.4,81.8
		c-25.9,7.1-52.3-5.4-64.9-31.6c-12.5-25.9-23.9-52.3-36.2-78.3c-30.4-63.8-62.1-126.7-98-187.4c-5.4-9.2-6-9.2-11.3,0.3
		c-36.4,65.6-70,132.6-104.8,199c-12,22.9-24,45.8-36.7,68.3c-14.5,25.7-41,36.9-66.3,29.2c-33.4-10.2-50-47.2-33.7-78.9
		c17.1-33.3,36.1-65.7,54.2-98.6c34.4-62.6,68.7-125.2,103.3-187.7c3.9-7,4.7-12.1-0.8-18.9c-10.2-12.8-13.4-28.5-14.8-44.4
		c-4.1-47-8-93.9-12.1-140.9C626.4,462.1,626,461.6,625.3,460.2z M296.7,991.9c-0.2-7.8-6.8-14.1-14.5-13.8
		c-7.8,0.3-13.7,6.9-13.4,14.9c0.3,7.5,6.3,13,14,13C290.9,1006,296.9,999.8,296.7,991.9z"/>
</g>
<g>
	<path class="st2" d="M241.6,515.3c-2.3-25-4.7-50-7-75c-3.3-35.3-6.5-70.5-9.7-105.8c-2.8-30.8-5.5-61.6-8.3-92.4
		c-2.2-23.8-4.2-47.7-6.6-71.5c-0.4-3.8,0.4-4.8,4.3-4.8c150.2,0.1,300.4,0.2,450.6,0.2c66.5,0,133.1,0.1,199.6-0.1
		c4.8,0,6,0.8,5.5,6c-2.8,27.1-5,54.3-7.5,81.5c-3.2,35.8-6.5,71.5-9.7,107.3c-2.4,27.2-4.8,54.3-7.3,81.5
		c-3.2,35.4-6.4,70.9-9.6,106.3c-2.8,30.6-5.5,61.3-8.3,91.9c-3.2,35.9-6.5,71.9-9.7,107.8c-2.5,27.8-5.1,55.6-7.3,83.5
		c-0.4,4.9-1.7,7.4-6.9,8.9c-57.3,15.9-114.5,32.2-171.8,48.4c-29.1,8.2-58.2,16.3-87.3,24.5c-3.1,0.9-6,1.1-9.2,0.2
		c-86-24.4-172.1-48.7-258.1-72.8c-4.3-1.2-5.5-3.1-5.9-7.4c-5.1-58.8-10.5-117.6-15.9-176.4c-1.6-17.6-3.5-41.4-8.2-89
		C244.9,545.9,243,527.6,241.6,515.3z"/>
	<path class="st3" d="M542.2,860.9c-1.8-1.4-1.1-3.4-1.1-5.1c0-208.2,0-416.4-0.1-624.5c0-4.2,0.9-5.7,5.4-5.7
		c86.7,0.1,173.3,0.1,260,0.1c3.5,0,5.1-0.1,4.5,4.7c-1.7,13.1-2.2,26.4-3.3,39.6c-1.5,16.3-3.2,32.6-4.8,48.9
		c-0.8,9.1-1.4,18.1-2.2,27.2c-1.2,13.5-2.6,27-3.8,40.5c-0.8,8.7-1.4,17.5-2.2,26.2c-1.2,14-2.6,28-3.8,42
		c-0.8,9.1-1.4,18.2-2.2,27.2c-1.2,13.5-2.5,27-3.8,40.5c-0.8,8.4-1.4,16.8-2.2,25.2c-1.3,14-2.6,28-3.8,42
		c-0.8,8.9-1.4,17.8-2.2,26.7c-1.2,13.7-2.6,27.3-3.8,41c-0.8,9.1-1.4,18.1-2.2,27.2c-1.2,13.5-2.5,27-3.8,40.5
		c-0.8,8.6-1.4,17.1-2.2,25.7c-1.2,13.8-2.6,27.7-3.8,41.5c0,0.5-0.1,1-0.1,1.5c-0.7,8.9-0.7,8.9-9.2,11.2
		c-6.6,1.7-13.1,3.4-19.7,5.1c-2.3,0.8-4.8,1.1-7,2l0,0c-2.3,0.8-4.8,1.1-7,2c-2.5,1.1-5.2,1.7-7.9,2c-2.3,0.8-4.8,1.1-7,2l0,0
		c-15,4-29.9,8.1-44.8,12.3c-4.8,1.3-9.7,2.3-14.3,4.1c-11.6,2.7-23.2,5.7-34.7,8.9c-10.9,3-21.8,5.9-32.7,8.9
		c-1.8,0.1-3.4,1.3-5.2,1.3c-4.4,1.3-8.8,2.4-13.2,3.8C552.6,858.2,547.6,860.6,542.2,860.9z"/>
	<path class="st4" d="M515.3,531.3c0,71.5,0,143.1,0,214.6c0,6,0,5.9-5.5,4.4c-60.6-16.4-121.2-32.8-181.9-49
		c-4.6-1.2-5.8-3.1-5.8-7.7c0.1-22.3-0.2-44.6-0.4-66.9c0-6.1-0.1-6.1,6-4.5c38.5,10.5,76.9,21.1,115.4,31.6c6,1.6,6,1.6,6-4.8
		c0.1-96.8,0.2-193.7,0.4-290.5c0-14.5,0.3-28.9,0.3-43.4c0-3.2,0.6-4.7,4.3-4.7c18.8,0.2,37.6,0.3,56.4,0c4.8-0.1,4.8,2.2,4.8,5.7
		c-0.1,65.7,0,131.4,0,197.2C515.3,519.3,515.3,525.3,515.3,531.3z"/>
	<path class="st5" d="M657.8,829.9c14.9-4.5,29.7-9.1,45-11.9c-8.6,3.8-18,5.1-26.9,8c-5.6,1.8-11.4,3.3-17.1,4.9
		C658.3,830.6,658,830.3,657.8,829.9z"/>
	<path class="st6" d="M608.9,842.9c11.4-3.9,23.2-6.6,35-9c0.3,0.2,0.4,0.4,0.3,0.6c-0.1,0.2-0.2,0.3-0.3,0.3c-11.3,3-22.6,6-34,9
		C609.6,843.5,608.9,843.5,608.9,842.9z"/>
	<path class="st7" d="M608.9,842.9c0.3,0.3,0.7,0.6,1,0.9c-11,3-22,6-33,8.9c-0.4-0.2-0.8-0.5-1-0.9
		C586.7,848.2,597.8,845.5,608.9,842.9z"/>
	<path class="st8" d="M542.2,860.9c5.2-1.7,10.3-3.4,15.8-4.1c1.1-0.6,1.1,0.1,1,0.9c-4.6,1.2-9.2,2.4-13.7,3.7
		C544.1,861.7,543,862.2,542.2,860.9z"/>
	<path class="st9" d="M643.8,834.8c0-0.3,0-0.7,0-1c4.3-2.4,9.2-2.9,13.9-4c0.3,0.3,0.7,0.6,1,0.9
		C653.8,832.1,648.8,833.5,643.8,834.8z"/>
	<path class="st10" d="M558.9,857.7c-0.3-0.3-0.7-0.6-1-0.9c4.2-1.8,8.6-2.9,13.1-3.8c0.3,0.2,0.4,0.4,0.3,0.5
		c-0.1,0.2-0.2,0.2-0.4,0.2C567.2,856,562.9,856.1,558.9,857.7z"/>
	<path class="st11" d="M724.7,811.9c2-1.7,4.5-2.1,7-2C729.7,811.6,727.3,812,724.7,811.9z"/>
	<path class="st12" d="M717.7,813.9c2.1-1.6,4.5-2.1,7-2C722.7,813.6,720.2,814,717.7,813.9z"/>
	<path class="st5" d="M702.7,817.9c2-1.7,4.5-2.1,7-2C707.7,817.6,705.3,818,702.7,817.9z"/>
	<path class="st13" d="M571,853.8c0-0.3,0-0.5,0-0.8c1.6-0.4,3.3-0.8,4.9-1.2c0.3,0.3,0.6,0.6,1,0.9
		C574.9,853.1,572.9,853.4,571,853.8z"/>
	<path class="st14" d="M566.7,454.1c0-45.8,0-91.5-0.1-137.3c0-3.9,0.6-5.4,5.1-5.5c66.9-0.2,133.7-0.5,200.6-1
		c4.7,0,6.1,0.8,5.6,5.9c-2,22.5-3.5,45.1-4.9,67.7c-0.2,4-1.6,4.9-5.3,4.9c-42.9,0.1-85.8,0.4-128.7,0.5c-4.7,0-6.2,0.9-6.1,5.9
		c0.2,34.6,0.2,69.2,0,103.8c0,4.4,0.9,5.7,5.5,5.2c40.1-4.7,80.2-9.1,120.4-13.7c3.8-0.4,5.3,0.2,4.9,4.5
		c-2.7,30.1-5.2,60.3-7.6,90.5c-2.1,25.7-4.2,51.4-6.3,77.1c-1.1,13.1-2.3,26.2-3,39.3c-0.2,4.1-2.9,4.3-5.6,4.9
		c-40.4,10.4-80.8,20.9-121.1,31.3c-15.6,4-31.2,8-46.8,12.3c-4.2,1.2-5.4,0.6-5.4-4c-0.2-22.6-0.6-45.2-1.1-67.9
		c-0.1-3.7,0.9-5.2,4.5-6.1c39.7-10.3,79.4-20.9,119.1-31.2c4.2-1.1,5.8-2.7,5.8-7.2c0.2-17.8,0.9-35.6,1.6-53.4
		c0.2-3.9-0.9-4.9-4.8-4.2c-39.5,6.8-79,13.4-118.4,20.3c-4.3,0.7-5.5,0.1-5.5-4.3c0-26.3-0.4-52.6-0.5-78.9
		c-0.1-19.8,0-39.6,0-59.4C568,454.1,567.4,454.1,566.7,454.1z"/>
</g>
</svg>
