<?xml version="1.0" encoding="utf-8"?>
<!-- Generator: Adobe Illustrator 28.2.0, SVG Export Plug-In . SVG Version: 6.00 Build 0)  -->
<svg version="1.1" id="_Шар_2" xmlns="http://www.w3.org/2000/svg" xmlns:xlink="http://www.w3.org/1999/xlink" x="0px" y="0px"
	 viewBox="0 0 1087.1 924.3" style="enable-background:new 0 0 1087.1 924.3;" xml:space="preserve">
<style type="text/css">
	.st0{fill:#734B34;}
</style>
<g>
	<path class="st0" d="M833,438c0,15.8,0,31.6,0,47.4c-0.7,5.8-1.4,11.6-2.2,17.3c-10.3,67.1-39.7,124.6-89.7,170.5
		C669.3,739,584.5,764.2,489,746c-160.8-30.6-264.6-188.6-227.3-348c25.6-109.2,95.2-180.3,202-214.7c18.3-5.9,37.4-8.4,56.4-10.8
		c15.8,0,31.6,0,47.4,0c13.2,1.9,26.5,3.1,39.4,6.4c109,28,180.8,95.6,215.2,202.7C828.1,400,830.6,419,833,438z M545.6,404.5
		c-17.7,0-35.4,0-53.1,0c-14.2,0-14.2,0-16.4,14.2c0,0.2-0.1,0.4-0.1,0.6c-5.5,31.5-4,62.9,1.2,94.2c0.7,4.4,2.7,5.5,6.7,5.5
		c16.6-0.1,33.1-0.1,49.7-0.1c23.3,0,46.7,0,70,0c3.1,0,6.1,0.2,6.8-4c2.8-16.5,7.2-32.7,7.7-49.5c0.5-17.6-1.7-34.9-4.3-52.2
		c-1.3-8.7-1.3-8.7-10.1-8.7C584.3,404.5,564.9,404.5,545.6,404.5z M721.1,404.5c-13.7,0-27.5,0-41.2,0c-8,0-8.2,0-8,8.3
		c0.2,7.3,0.7,14.7,1.3,22c2.1,26.1,1.8,52.2-0.8,78.3c-0.5,4.9,1.1,5.9,5.4,5.9c28.4-0.1,56.8-0.1,85.3,0c4.4,0,6.4-1.7,7.5-5.8
		c9.2-34.4,9.1-68.7,0-103.1c-1.1-4.2-3.3-5.7-7.6-5.6C749,404.7,735.1,404.5,721.1,404.5z M369.9,518.9c13.7,0,27.5,0,41.2,0
		c6.9,0,7.5-0.5,7.2-7.5c-0.7-16.3-1.9-32.7-2.3-49c-0.4-16.9,0-33.9,2-50.7c0.8-6.3-0.2-7.2-6.6-7.2c-27.7,0-55.3,0.1-83-0.1
		c-5.2,0-7.4,2-8.5,6.7c-2.4,9.7-4.4,19.4-5.3,29.4c-2.1,24.5-1.2,48.8,5.6,72.7c1.3,4.5,3.6,5.9,8.1,5.8
		C342,518.8,356,518.9,369.9,518.9z M543.8,345.2c15.8,0,31.6,0,47.4,0c6.2,0,6.5-0.4,4.7-6.5c-10.6-36.9-28.2-70.4-49-102.4
		c-2.4-3.7-3.9-3-6,0.2c-20.7,32.1-37.6,66-49.1,102.5c-1.5,4.9-0.5,6.4,4.6,6.3C512.2,345.1,528,345.2,543.8,345.2z M544.3,578.3
		c-16,0-32,0.1-48-0.1c-5-0.1-6.2,1.4-4.7,6.3c10.8,37,28.4,70.7,49.3,102.9c2.1,3.2,3.6,3.1,5.7-0.1c20.8-32.2,37.8-66.3,49.3-103
		c1.6-5.2-0.1-6.2-4.8-6.1C575.6,578.4,560,578.3,544.3,578.3z M622.1,244.4c-0.1,3,1.1,4.6,1.9,6.2c14.2,28.7,26.8,58,34.6,89.2
		c1.1,4.4,3.7,5.4,7.8,5.4c21.6-0.1,43.3,0,64.9-0.1c3.1,0,7.7,1.5,9-1c1.5-2.8-2.1-6-3.8-8.8c-20-31.7-47.1-55.9-79.4-74.5
		C646,254.5,634.7,248.7,622.1,244.4z M465.6,679.1c0.2-3-1.1-4.5-1.9-6.2c-14.2-28.7-26.8-58-34.6-89.2c-1.1-4.4-3.7-5.4-7.8-5.4
		c-21.6,0.1-43.3,0-64.9,0.1c-3.1,0-7.7-1.6-9,0.9c-1.6,2.8,2.1,6,3.8,8.8c21,33.2,49.6,58.2,83.8,77
		C444.8,670.3,454.6,675.4,465.6,679.1z M622.4,679c1.5-0.5,2.6-0.8,3.6-1.2c23.3-9.6,44.8-22.2,64.4-38
		c19.4-15.8,35.8-34.3,48.6-55.9c3.1-5.3,2.9-5.6-2.9-5.6c-23.3,0-46.6,0.1-69.9-0.1c-4.3,0-6.5,1.5-7.5,5.7
		c-7.8,31.1-19.6,60.7-34.4,89.2C623.3,674.8,621.9,676.3,622.4,679z M466.1,245.2c-2.2-0.7-3.3,0.1-4.5,0.6
		C415,265.6,377.1,296,349.8,339c-1,1.5-2.9,3-2,5c1,2,3.4,1.2,5.1,1.2c22.8,0.1,45.6-0.1,68.3,0.1c4.9,0,7-1.8,8.1-6.4
		c5-20.3,12.3-39.9,20.8-59C455.3,268.3,460.7,257,466.1,245.2z"/>
</g>
</svg>
