<?xml version="1.0" encoding="utf-8"?>
<!-- Generator: Adobe Illustrator 28.2.0, SVG Export Plug-In . SVG Version: 6.00 Build 0)  -->
<svg version="1.1" id="_Шар_2" xmlns="http://www.w3.org/2000/svg" xmlns:xlink="http://www.w3.org/1999/xlink" x="0px" y="0px"
	 viewBox="0 0 1087.1 924.3" style="enable-background:new 0 0 1087.1 924.3;" xml:space="preserve">
<style type="text/css">
	.st0{fill:#403332;}
	.st1{fill:#734B34;}
</style>
<g>
	<path class="st0" d="M149.7,418.4c0-79.6,0-159.1,0-238.7c0-30.2,9-57,29.9-79.2c20.5-21.8,45.7-34.5,76-34.7
		c80.7-0.3,161.4-0.2,242.2,0c26.3,0,49.9,8.9,68.6,27c48.2,46.7,95.9,94,143.2,141.6c19.6,19.7,28.6,44.8,29,72.4
		c0.6,42.2-0.1,84.5,0.4,126.7c0.1,9.9-6,10.1-12.4,11.6c-60.9,14.3-99.4,51.7-114.7,112.4c-5.4,21.3-4.9,43.1,0.1,64.5
		c1.6,6.8,0.7,10.9-5.3,15.3c-44.2,32.5-75.1,74.9-91.7,127.3c-1.9,6-5.1,8.3-11.2,8.3c-80.4-0.1-160.9,0.7-241.3-0.3
		c-57-0.7-99-35.7-110.1-88.7c-1.8-8.8-2.5-17.7-2.5-26.7C149.7,577.5,149.7,498,149.7,418.4z M443.9,378.9
		C443.9,378.9,443.9,378.9,443.9,378.9c23.1,0,46.3,0.1,69.4,0c20.5,0,41.1,0.3,61.6-0.3c17.3-0.5,29.5-13.9,29.5-31.1
		c0-18.9-13.9-32.2-34.4-32.2c-48.3-0.1-96.6-0.1-144.9-0.1c-35.6,0-71.1-0.1-106.7,0.1c-19.1,0.1-33.3,12.6-34.3,29.8
		c-1.2,19.4,12.4,33.7,33.2,33.8C359.4,379.1,401.6,378.9,443.9,378.9z M380.1,458.7c-20.8,0-41.6,0-62.4,0
		c-6.1,0-12.1,0.5-17.6,3.7c-12.2,7-18.7,21.4-15.5,34.7c3.6,14.9,16.1,25,32.3,25.1c41.9,0.2,83.8,0.3,125.7,0
		c19.6-0.1,33.3-13.9,33.2-32.5c-0.1-18.3-13.4-30.8-33.3-31C421.7,458.6,400.9,458.7,380.1,458.7z"/>
	<path class="st1" d="M754,858.6c-43.4,0-86.8,0.1-130.2,0c-35.9-0.1-59.6-30.8-49.6-65.5c12.8-44.6,39.4-79.3,77.9-105.1
		c5.6-3.7,8.8-2.6,13.3,1.7c25.3,24,55.8,35.9,90.5,35.6c33.7-0.3,63.4-11.9,88-35.3c5.3-5,8.9-5.3,14.7-1.3
		c37.5,25.6,63.2,59.8,76.3,103.3c10.6,35.2-12.9,66.6-49.8,66.6C841.4,858.6,797.7,858.6,754,858.6z"/>
	<path class="st1" d="M754.8,506.5c46.3,0,83.1,36.8,83,83.2c-0.1,45.9-37.5,83.1-83.6,82.9c-46-0.2-82.5-37.4-82.4-84
		C671.9,542.8,708.6,506.5,754.8,506.5z"/>
</g>
</svg>
