<?xml version="1.0" encoding="utf-8"?>
<!-- Generator: Adobe Illustrator 28.2.0, SVG Export Plug-In . SVG Version: 6.00 Build 0)  -->
<svg version="1.1" id="Шар_1" xmlns="http://www.w3.org/2000/svg" xmlns:xlink="http://www.w3.org/1999/xlink" x="0px" y="0px"
	 viewBox="0 0 1080 1080" style="enable-background:new 0 0 1080 1080;" xml:space="preserve">
<style type="text/css">
	.st0{display:none;}
	.st1{display:inline;fill:#00A43C;}
	.st2{fill:#D5D5D5;}
</style>
<g class="st0">
	<path class="st1" d="M749.3,40.3c28.4,7,52.9,20.1,70.8,44.1c28.4,38.2,29.9,89.4,3.7,129c-25.9,39.2-73.6,58.3-119.1,47.7
		c-46.1-10.7-80.5-49.1-86.1-96.2c-6.7-55.8,28.2-107.1,82.7-121.8c3.1-0.8,6.1-1.9,9.2-2.9C723.5,40.3,736.4,40.3,749.3,40.3z"/>
	<path class="st1" d="M625.3,460.2C609,482,594.4,504.3,581,527.4c-10.7,18.5-20,37.7-28.4,57.3c-6.3,14.6-15.4,26.1-31.4,30.6
		c-5.7,1.6-7.5,6.8-10,11.2C471,697,430.9,767.5,390.7,838c-22.4,39.3-44.7,78.7-67.3,117.9c-3.2,5.5-3.9,9.8-0.9,16
		c9,18.5,4.8,38.5-9.7,51.3c-14.7,12.9-35.9,14.8-52.3,4.6c-16.6-10.4-23.9-29.6-18-49.9c1.9-6.6-0.2-9.2-5.5-12.1
		c-14-7.5-27.7-15.3-41.5-23.2c-17.7-10.1-20.2-18.8-10.2-36.5c31.3-55.5,62.7-110.8,94.1-166.2c13.5-23.9,27-47.8,40.5-71.8
		c9.7-17.2,19.5-19.9,36.6-10.3c20,11.2,40.1,22.3,59.9,33.8c5.8,3.4,8.9,2.9,12.2-3c14.7-26.6,29.6-53.1,44.5-79.5
		c2.3-4,2.7-7.5-0.1-11.7c-9.9-14.8-9.4-30.3-2.7-46.2C494.7,493.3,528,440.8,566,391c24-31.4,49.6-61.3,77.5-89.2
		c42.7-42.7,100.5-46.4,148.4-9.2c24.2,18.8,46.8,39.8,70.8,58.9c36.2,28.6,74.5,53.7,119.9,65.7c10.9,2.9,22.3,3.9,33.2,6.8
		c20.3,5.4,34.5,26.6,32,46.3c-3,23.2-21.1,39.8-43.9,39.9c-12.6,0-25.1-2.5-37.4-4.6c-45.8-8-88.6-23.5-126.3-51.4
		c-1.7-1.3-3.7-3.9-5.7-1.9c-1.2,1.2-1.1,4.3-0.9,6.4c2.1,24.8,4.6,49.5,6.5,74.3c1.7,21.9,4.7,43.7,5.1,65.7
		c0.3,15.4-3.5,29.5-12,42.2c-3.9,5.8-3.4,10.3,0,15.9c57.3,94.4,105.6,193.4,150.7,294c16.2,36.1,0.8,71.8-35.4,81.8
		c-25.9,7.1-52.3-5.4-64.9-31.6c-12.5-25.9-23.9-52.3-36.2-78.3c-30.4-63.8-62.1-126.7-98-187.4c-5.4-9.2-6-9.2-11.3,0.3
		c-36.4,65.6-70,132.6-104.8,199c-12,22.9-24,45.8-36.7,68.3c-14.5,25.7-41,36.9-66.3,29.2c-33.4-10.2-50-47.2-33.7-78.9
		c17.1-33.3,36.1-65.7,54.2-98.6c34.4-62.6,68.7-125.2,103.3-187.7c3.9-7,4.7-12.1-0.8-18.9c-10.2-12.8-13.4-28.5-14.8-44.4
		c-4.1-47-8-93.9-12.1-140.9C626.4,462.1,626,461.6,625.3,460.2z M296.7,991.9c-0.2-7.8-6.8-14.1-14.5-13.8
		c-7.8,0.3-13.7,6.9-13.4,14.9c0.3,7.5,6.3,13,14,13C290.9,1006,296.9,999.8,296.7,991.9z"/>
</g>
<g>
	<path class="st2" d="M509.8,195.1c19.7,0,39.4,0,59.2,0c4.6,0.7,9.3,1.5,13.9,2.1c74,9.5,138.3,39.8,192.4,90.8
		c89.3,84.3,119.4,190.2,107.1,309.3c-5.5,53.1-36.2,91.1-87.6,108c-50.8,16.7-95.9,3.9-133.6-33.9c-4.2-4.2-6.4-4.2-10.8-0.5
		c-40.1,33.4-86.2,47.1-137.8,39.1c-99.4-15.5-164.1-111.9-141.6-210c16.6-72.2,80.3-127.6,153.5-133.1
		c45.6-3.4,86.4,9.3,122.1,37.9c4.3,3.4,8.5,5.1,14,5c15-0.3,30,0,45-0.1c4.6,0,6.5,1.5,6.4,6.2c-0.2,8.7,0,17.5,0,26.2
		c0,45.9-0.2,91.9,0.1,137.8c0.1,25.2,17.8,43.8,41.7,44.8c21.4,0.8,39.8-16,42.1-39.9c2.8-29.1,2-58.2-2.7-87.1
		c-21.5-133.9-147.1-233.9-291.1-213c-132.5,19.2-227.3,137.2-219.5,268.8c3.3,54.8,21.4,103.8,55.9,146.3
		c51.9,63.9,119.9,96.1,202,96.9c42.5,0.4,82.9-10.2,120.6-30.6c7.7-4.1,7.7-4.1,12.2,3.6c11.6,20,23.1,39.9,34.6,59.9
		c4.7,8.2,4.8,8.3-3.8,12.9c-71.3,38.1-147.2,52-226.3,35.8c-139-28.5-229-112.7-271.1-248.1c-6.3-20.4-9-41.5-11.5-62.6
		c0-19.3,0-38.5,0-57.8c1.6-10.8,2.6-21.8,4.9-32.5c30-138.3,112.9-228.4,247.8-270.6C468,200.4,488.9,197.9,509.8,195.1z
		 M539.2,624.8c46.3,0.2,85.7-38.5,85.5-85.2c-0.3-47.3-36.5-85.2-84.8-85.5c-47.7-0.3-85.2,36.8-85.8,85.2
		C453.4,585.7,492.7,624.6,539.2,624.8z"/>
</g>
</svg>
