<?xml version="1.0" encoding="utf-8"?>
<!-- Generator: Adobe Illustrator 28.2.0, SVG Export Plug-In . SVG Version: 6.00 Build 0)  -->
<svg version="1.1" id="Шар_1" xmlns="http://www.w3.org/2000/svg" xmlns:xlink="http://www.w3.org/1999/xlink" x="0px" y="0px"
	 viewBox="0 0 1080 1080" style="enable-background:new 0 0 1080 1080;" xml:space="preserve">
<style type="text/css">
	.st0{display:none;}
	.st1{display:inline;fill:#00A43C;}
	.st2{fill:#403332;}
	.st3{fill:#734B34;}
</style>
<g class="st0">
	<path class="st1" d="M749.3,40.3c28.4,7,52.9,20.1,70.8,44.1c28.4,38.2,29.9,89.4,3.7,129c-25.9,39.2-73.6,58.3-119.1,47.7
		c-46.1-10.7-80.5-49.1-86.1-96.2c-6.7-55.8,28.2-107.1,82.7-121.8c3.1-0.8,6.1-1.9,9.2-2.9C723.5,40.3,736.4,40.3,749.3,40.3z"/>
	<path class="st1" d="M625.3,460.2C609,482,594.4,504.3,581,527.4c-10.7,18.5-20,37.7-28.4,57.3c-6.3,14.6-15.4,26.1-31.4,30.6
		c-5.7,1.6-7.5,6.8-10,11.2C471,697,430.9,767.5,390.7,838c-22.4,39.3-44.7,78.7-67.3,117.9c-3.2,5.5-3.9,9.8-0.9,16
		c9,18.5,4.8,38.5-9.7,51.3c-14.7,12.9-35.9,14.8-52.3,4.6c-16.6-10.4-23.9-29.6-18-49.9c1.9-6.6-0.2-9.2-5.5-12.1
		c-14-7.5-27.7-15.3-41.5-23.2c-17.7-10.1-20.2-18.8-10.2-36.5c31.3-55.5,62.7-110.8,94.1-166.2c13.5-23.9,27-47.8,40.5-71.8
		c9.7-17.2,19.5-19.9,36.6-10.3c20,11.2,40.1,22.3,59.9,33.8c5.8,3.4,8.9,2.9,12.2-3c14.7-26.6,29.6-53.1,44.5-79.5
		c2.3-4,2.7-7.5-0.1-11.7c-9.9-14.8-9.4-30.3-2.7-46.2C494.7,493.3,528,440.8,566,391c24-31.4,49.6-61.3,77.5-89.2
		c42.7-42.7,100.5-46.4,148.4-9.2c24.2,18.8,46.8,39.8,70.8,58.9c36.2,28.6,74.5,53.7,119.9,65.7c10.9,2.9,22.3,3.9,33.2,6.8
		c20.3,5.4,34.5,26.6,32,46.3c-3,23.2-21.1,39.8-43.9,39.9c-12.6,0-25.1-2.5-37.4-4.6c-45.8-8-88.6-23.5-126.3-51.4
		c-1.7-1.3-3.7-3.9-5.7-1.9c-1.2,1.2-1.1,4.3-0.9,6.4c2.1,24.8,4.6,49.5,6.5,74.3c1.7,21.9,4.7,43.7,5.1,65.7
		c0.3,15.4-3.5,29.5-12,42.2c-3.9,5.8-3.4,10.3,0,15.9c57.3,94.4,105.6,193.4,150.7,294c16.2,36.1,0.8,71.8-35.4,81.8
		c-25.9,7.1-52.3-5.4-64.9-31.6c-12.5-25.9-23.9-52.3-36.2-78.3c-30.4-63.8-62.1-126.7-98-187.4c-5.4-9.2-6-9.2-11.3,0.3
		c-36.4,65.6-70,132.6-104.8,199c-12,22.9-24,45.8-36.7,68.3c-14.5,25.7-41,36.9-66.3,29.2c-33.4-10.2-50-47.2-33.7-78.9
		c17.1-33.3,36.1-65.7,54.2-98.6c34.4-62.6,68.7-125.2,103.3-187.7c3.9-7,4.7-12.1-0.8-18.9c-10.2-12.8-13.4-28.5-14.8-44.4
		c-4.1-47-8-93.9-12.1-140.9C626.4,462.1,626,461.6,625.3,460.2z M296.7,991.9c-0.2-7.8-6.8-14.1-14.5-13.8
		c-7.8,0.3-13.7,6.9-13.4,14.9c0.3,7.5,6.3,13,14,13C290.9,1006,296.9,999.8,296.7,991.9z"/>
</g>
<g>
	<path class="st2" d="M605.5,138.1c4,16.3,5.6,32.9,8.1,49.4c1,6.5,3.4,9.9,10.1,11.7c26.7,7.1,51.9,17.8,75.7,31.6
		c4.9,2.9,8.5,2.3,12.7-0.9c11.9-9,24.1-17.5,35.9-26.6c4.5-3.4,7.6-3.8,11.9,0.6c32,32.3,64.2,64.5,96.5,96.5
		c4.3,4.3,4.3,7.3,0.7,11.9c-9.2,12-17.9,24.5-27,36.6c-3.1,4.1-3.2,7.6-0.6,12.1c13.8,23.9,24.5,49.1,31.6,75.7
		c1.8,6.6,5,9.3,11.6,10.1c14.5,1.7,28.9,4.3,43.4,6.4c4.6,0.7,6.7,2.8,6.7,7.7c-0.1,43.9-0.1,87.8-0.1,131.8c0,1.7,0.7,4.1-1.2,5
		c-2.4,1.2-3.7-1.4-5.1-2.7c-35.3-32.8-76.6-53.2-124.3-60.4c-5.7-0.9-11.4-1.6-17.1-1.9c-5.5-0.2-6.9-3-7.1-8
		c-2.3-52.1-19.6-98.7-52.4-139.1c-40.6-49.9-92.9-79.7-156.9-87.1c-75.5-8.7-141.2,13.9-195.6,66.6
		c-40.4,39.2-63.4,87.5-69.7,143.8C280,629.4,359.3,737,470.8,765.6c17.5,4.5,35.3,7.2,53.4,7.3c6.4,0,8.8,2.6,9.3,8.6
		c4.5,51.7,25.6,95.9,60.2,134.1c1.6,1.8,5.1,3.4,3.7,6.2c-1.3,2.5-4.8,1.3-7.2,1.3c-42.4,0.1-84.7-0.1-127.1,0.2
		c-7.1,0.1-9.6-2.5-10.4-9.2c-1.8-14.2-4.3-28.4-6.3-42.6c-0.8-5.7-3.5-8.4-9.2-9.9c-26.7-7-51.9-17.7-75.8-31.4
		c-5.1-3-8.8-2.8-13.4,0.7c-12.1,9.2-24.5,17.9-36.6,27c-4.1,3.1-6.9,3.1-10.7-0.6c-32.4-32.7-65-65.2-97.6-97.6
		c-3.9-3.8-3.5-6.7-0.5-10.7c9.2-12.1,17.9-24.5,27-36.6c3.2-4.2,3.8-7.8,0.9-12.8c-14-24.1-24.7-49.6-31.8-76.5
		c-1.6-6.1-4.9-8.3-10.7-9.2c-16.7-2.6-33.7-4.2-50.2-8.2c0-50.2,0-100.4,0-150.6c16.2-4,32.9-5.6,49.4-8.1c6.5-1,9.9-3.3,11.7-10
		c7.1-26.6,17.8-51.8,31.6-75.7c2.8-4.9,2.5-8.4-0.8-12.7c-9.1-12.1-17.8-24.5-27-36.5c-3.4-4.4-3.2-7.3,0.8-11.3
		c32.4-32.2,64.8-64.5,96.9-97c4-4.1,7-4,11.3-0.7c11.8,9,24.1,17.5,35.9,26.6c4.8,3.7,8.7,3.9,14.1,0.8
		c23.6-13.7,48.6-24.2,75-31.1c6.4-1.7,8.9-4.7,9.8-11c2.5-16.7,4.2-33.6,8.2-50.1C505.1,138.1,555.3,138.1,605.5,138.1z"/>
	<path class="st3" d="M759.4,941.9c-93.3,1.2-182-74.8-181.9-182.2c0.1-101.8,81.2-182.1,182.3-182.1
		c107.7,0.1,182.6,89,182.3,182.9C941.7,860.1,858.8,943.4,759.4,941.9z M737.5,709.8c0,21.7,0.1,43.4-0.1,65.1
		c0,5.1,1.4,7.6,7.1,7.6c29.8-0.2,59.6-0.1,89.4,0c4.7,0,6.6-1.8,6.5-6.5c-0.2-10.2-0.3-20.4,0.1-30.6c0.3-6.4-2.5-8.1-8.4-8
		c-13.3,0.3-26.7-0.2-40,0.2c-7.6,0.3-9.9-2.5-9.9-10c0.3-27.4,0-54.9,0.2-82.3c0-6.1-1.9-8.5-8.1-8.3c-9.1,0.4-18.3,0.4-27.4,0
		c-7-0.3-9.7,1.9-9.6,9.3C737.8,667.5,737.5,688.7,737.5,709.8z"/>
	<path class="st3" d="M543.7,395.6c-95.9,0-159.5,69.7-152.5,152.2c5.4,63.4,56.6,116.9,119.6,125.1c10.5,1.4,20.8,1.5,31.3,1
		c5.5-0.2,6.4,1.6,4.6,6.4c-5.1,13.5-9,27.3-11.2,41.6c-1,6.3-5.2,6.4-9.8,6.2c-34.3-1.6-66.6-10.2-95.8-28.6
		c-51.5-32.4-81.9-78.9-90.9-139c-15.1-100.9,58-199.9,159-215.8c108.9-17.2,206.5,54.2,223.6,163.5c1,6.4,1.2,13,1.9,19.5
		c0.6,5.5-1.8,8.2-7.2,9.1c-13.5,2.2-26.5,6.1-39,11.4c-6.9,2.9-8.1,0.4-7.8-6c1.7-31.4-6.1-60.2-24.1-85.9
		C617.4,416.4,578.7,396.4,543.7,395.6z"/>
	<path class="st3" d="M530.2,440.5c51.3,0,94.3,42.7,94.4,93.7c0.1,52-43,95.2-94.8,95.1c-51-0.1-94-43.1-94-94.3
		C435.7,483.4,478.6,440.5,530.2,440.5z"/>
</g>
</svg>
