<?xml version="1.0" encoding="utf-8"?>
<!-- Generator: Adobe Illustrator 28.2.0, SVG Export Plug-In . SVG Version: 6.00 Build 0)  -->
<svg version="1.1" id="Шар_1" xmlns="http://www.w3.org/2000/svg" xmlns:xlink="http://www.w3.org/1999/xlink" x="0px" y="0px"
	 viewBox="0 0 1080 1080" style="enable-background:new 0 0 1080 1080;" xml:space="preserve">
<style type="text/css">
	.st0{display:none;}
	.st1{display:inline;fill:#00A43C;}
	.st2{fill:#D5D5D5;}
</style>
<g class="st0">
	<path class="st1" d="M749.3,40.3c28.4,7,52.9,20.1,70.8,44.1c28.4,38.2,29.9,89.4,3.7,129c-25.9,39.2-73.6,58.3-119.1,47.7
		c-46.1-10.7-80.5-49.1-86.1-96.2c-6.7-55.8,28.2-107.1,82.7-121.8c3.1-0.8,6.1-1.9,9.2-2.9C723.5,40.3,736.4,40.3,749.3,40.3z"/>
	<path class="st1" d="M625.3,460.2C609,482,594.4,504.3,581,527.4c-10.7,18.5-20,37.7-28.4,57.3c-6.3,14.6-15.4,26.1-31.4,30.6
		c-5.7,1.6-7.5,6.8-10,11.2C471,697,430.9,767.5,390.7,838c-22.4,39.3-44.7,78.7-67.3,117.9c-3.2,5.5-3.9,9.8-0.9,16
		c9,18.5,4.8,38.5-9.7,51.3c-14.7,12.9-35.9,14.8-52.3,4.6c-16.6-10.4-23.9-29.6-18-49.9c1.9-6.6-0.2-9.2-5.5-12.1
		c-14-7.5-27.7-15.3-41.5-23.2c-17.7-10.1-20.2-18.8-10.2-36.5c31.3-55.5,62.7-110.8,94.1-166.2c13.5-23.9,27-47.8,40.5-71.8
		c9.7-17.2,19.5-19.9,36.6-10.3c20,11.2,40.1,22.3,59.9,33.8c5.8,3.4,8.9,2.9,12.2-3c14.7-26.6,29.6-53.1,44.5-79.5
		c2.3-4,2.7-7.5-0.1-11.7c-9.9-14.8-9.4-30.3-2.7-46.2C494.7,493.3,528,440.8,566,391c24-31.4,49.6-61.3,77.5-89.2
		c42.7-42.7,100.5-46.4,148.4-9.2c24.2,18.8,46.8,39.8,70.8,58.9c36.2,28.6,74.5,53.7,119.9,65.7c10.9,2.9,22.3,3.9,33.2,6.8
		c20.3,5.4,34.5,26.6,32,46.3c-3,23.2-21.1,39.8-43.9,39.9c-12.6,0-25.1-2.5-37.4-4.6c-45.8-8-88.6-23.5-126.3-51.4
		c-1.7-1.3-3.7-3.9-5.7-1.9c-1.2,1.2-1.1,4.3-0.9,6.4c2.1,24.8,4.6,49.5,6.5,74.3c1.7,21.9,4.7,43.7,5.1,65.7
		c0.3,15.4-3.5,29.5-12,42.2c-3.9,5.8-3.4,10.3,0,15.9c57.3,94.4,105.6,193.4,150.7,294c16.2,36.1,0.8,71.8-35.4,81.8
		c-25.9,7.1-52.3-5.4-64.9-31.6c-12.5-25.9-23.9-52.3-36.2-78.3c-30.4-63.8-62.1-126.7-98-187.4c-5.4-9.2-6-9.2-11.3,0.3
		c-36.4,65.6-70,132.6-104.8,199c-12,22.9-24,45.8-36.7,68.3c-14.5,25.7-41,36.9-66.3,29.2c-33.4-10.2-50-47.2-33.7-78.9
		c17.1-33.3,36.1-65.7,54.2-98.6c34.4-62.6,68.7-125.2,103.3-187.7c3.9-7,4.7-12.1-0.8-18.9c-10.2-12.8-13.4-28.5-14.8-44.4
		c-4.1-47-8-93.9-12.1-140.9C626.4,462.1,626,461.6,625.3,460.2z M296.7,991.9c-0.2-7.8-6.8-14.1-14.5-13.8
		c-7.8,0.3-13.7,6.9-13.4,14.9c0.3,7.5,6.3,13,14,13C290.9,1006,296.9,999.8,296.7,991.9z"/>
</g>
<g>
	<path class="st2" d="M331.7,884.3c-14-4.2-26.6-10.5-35.7-22.5c-8.3-10.8-13.2-22.8-13.1-36.6c0-8.5,0.1-17,0-25.5
		c-0.1-4.3,1.5-6.2,5.9-5.9c2,0.1,4,0,6,0c163.5,0,327,0,490.5,0c2.7,0,5.4,0,8.1,0.1c2,0.1,3.7,0.9,3.6,3.1
		c-0.4,17.8,2.9,35.8-5.4,52.9c-9,18.5-24,28.9-43.2,34.4C609.4,884.3,470.6,884.3,331.7,884.3z"/>
	<path class="st2" d="M540.4,390.7c90.3,0,180.5,0,270.8,0c30.1,0,54.2,19.8,60.2,49.3c0.8,3.9,0.9,8,0.9,12
		c0.1,80.4,0.1,160.8,0,241.2c0,34.8-26.5,61.2-61.3,61.2c-180.7,0.1-361.5,0.1-542.2,0c-34.8,0-61.2-26.5-61.2-61.3
		c-0.1-80.4-0.1-160.8,0-241.2c0-34.7,26.5-61.1,61.4-61.2C359.5,390.6,449.9,390.7,540.4,390.7z M520.6,665c0,0,0-0.1,0-0.1
		c6.9,0,13.9,0.2,20.8,0c22.6-0.7,41.5-9.6,55.3-27.4c25.3-32.8,27.2-69.6,14.6-107.6c-9.1-27.3-28.1-44.9-56.8-50.6
		c-16.8-3.3-33.9-1.6-50.9-1.7c-19.3-0.1-26.4,7-26.3,26.4c0.2,46.3,0.6,92.7,0.9,139c0,1.1,0,2.2,0.1,3.4
		c0.6,11.2,7.7,18.3,18.8,18.6C504.9,665.2,512.8,665,520.6,665z M306.2,574.7c0,24.2,0,48.3,0,72.5c0,3.8-0.1,7.6,1.5,11.2
		c3.4,7.7,12.4,12.7,20.2,11.2c9.7-1.8,16.5-9.1,16.7-19c0.3-13,0.4-26,0-38.9c-0.3-7,2.3-8.9,8.9-8.7c9.1,0.3,18.3,0.6,27.4-1.3
		c30.8-6.3,51.4-33.6,49.8-66.3c-1.4-28.5-25.8-53.4-55.2-56.9c-15-1.7-29.9-0.8-44.9-0.9c-18-0.2-25.4,7.3-25.3,25.2
		C305.5,526.8,304.8,550.8,306.2,574.7z M670.8,571.4c0,24.4,0,48.8,0,73.2c0,9.6,3.4,17.2,12.5,21.1c13.1,5.6,26.5-4.2,26.8-19.8
		c0.3-16.1,0.3-32.3,0-48.4c-0.1-6.3,2.2-8.2,8.2-8c9.2,0.4,18.4,0.2,27.5,0.1c12.2-0.1,20.6-7.9,20.9-19.1
		c0.3-10.9-8.4-19.1-20.5-19.3c-9.4-0.1-18.8-0.3-28.2,0c-5.6,0.2-8.3-1.6-7.9-7.6c0.4-6.7,0.5-13.5,0-20.1c-0.6-7,2.4-8.9,8.9-8.7
		c11.6,0.3,23.3,0.3,34.9-0.2c10.1-0.4,16.9-7.9,17.2-17.9c0.4-11.9-7.7-20.3-20-20.4c-18.8-0.2-37.6-0.1-56.4,0
		c-16.2,0-23.8,7.6-23.8,23.9C670.8,523.9,670.8,547.6,670.8,571.4z"/>
	<path class="st2" d="M536.6,351.3c-81.3,0-162.6,0-243.8,0c-9.9,0-9.9,0-9.9-9.9c0-28.4-0.1-56.9,0-85.3
		c0.2-33.5,26.8-60.2,60.2-60.2c88.4-0.1,176.9,0.2,265.3-0.2c31.7-0.1,58,11,79.7,33.8c27.7,29.3,55.4,58.6,83,87.9
		c7.4,7.9,13.2,16.9,17.5,26.9c2.8,6.5,2.4,7-4.9,7c-52.4,0-104.8,0-157.2,0C596.6,351.3,566.6,351.3,536.6,351.3z"/>
	<path class="st2" d="M516.7,571.5c0-15.9,0.2-31.7-0.1-47.6c-0.1-5.3,1.8-7.2,7-6.9c5.1,0.3,10.3,0.2,15.4,0.1
		c16.1-0.3,27.6,7.1,33.9,21.6c9.3,21.5,9.5,43.5,0,65c-6.6,14.9-18.6,22.4-34.9,22.8c-4,0.1-8,0.1-12.1,0.1c-9,0-9.1-0.1-9.1-8.8
		C516.7,602.3,516.7,586.9,516.7,571.5C516.7,571.5,516.7,571.5,516.7,571.5z"/>
	<path class="st2" d="M344.7,540.9c0-5.8,0.2-11.6-0.1-17.4c-0.3-5.1,1.9-6.7,6.7-6.5c5.6,0.3,11.2,0,16.8,0.1
		c12.4,0.3,22.5,9.2,24.1,21c1.5,11-6.7,22.3-18.5,25.4c-8.1,2.1-16.5,1.1-24.7,1.1c-3.6,0-4.3-2.5-4.3-5.5
		C344.8,553,344.7,546.9,344.7,540.9C344.7,540.9,344.7,540.9,344.7,540.9z"/>
</g>
</svg>
