<?xml version="1.0" encoding="utf-8"?>
<!-- Generator: Adobe Illustrator 28.2.0, SVG Export Plug-In . SVG Version: 6.00 Build 0)  -->
<svg version="1.1" id="Шар_1" xmlns="http://www.w3.org/2000/svg" xmlns:xlink="http://www.w3.org/1999/xlink" x="0px" y="0px"
	 viewBox="0 0 1080 1080" style="enable-background:new 0 0 1080 1080;" xml:space="preserve">
<style type="text/css">
	.st0{display:none;}
	.st1{display:inline;fill:#00A43C;}
	.st2{fill:#6C77AE;}
	.st3{fill:#F79B0E;}
	.st4{fill:#9099C1;}
	.st5{fill:#56639F;}
	.st6{fill:#8F98C1;}
	.st7{fill:#828CBA;}
	.st8{fill:#8C96C0;}
	.st9{fill:#8A93BE;}
	.st10{fill:#8791BD;}
	.st11{fill:#8C95C0;}
	.st12{fill:#818BB9;}
	.st13{fill:#F8AB32;}
	.st14{fill:#FCDEAE;}
	.st15{fill:#939BC2;}
</style>
<g class="st0">
	<path class="st1" d="M749.3,40.3c28.4,7,52.9,20.1,70.8,44.1c28.4,38.2,29.9,89.4,3.7,129c-25.9,39.2-73.6,58.3-119.1,47.7
		c-46.1-10.7-80.5-49.1-86.1-96.2c-6.7-55.8,28.2-107.1,82.7-121.8c3.1-0.8,6.1-1.9,9.2-2.9C723.5,40.3,736.4,40.3,749.3,40.3z"/>
	<path class="st1" d="M625.3,460.2C609,482,594.4,504.3,581,527.4c-10.7,18.5-20,37.7-28.4,57.3c-6.3,14.6-15.4,26.1-31.4,30.6
		c-5.7,1.6-7.5,6.8-10,11.2C471,697,430.9,767.5,390.7,838c-22.4,39.3-44.7,78.7-67.3,117.9c-3.2,5.5-3.9,9.8-0.9,16
		c9,18.5,4.8,38.5-9.7,51.3c-14.7,12.9-35.9,14.8-52.3,4.6c-16.6-10.4-23.9-29.6-18-49.9c1.9-6.6-0.2-9.2-5.5-12.1
		c-14-7.5-27.7-15.3-41.5-23.2c-17.7-10.1-20.2-18.8-10.2-36.5c31.3-55.5,62.7-110.8,94.1-166.2c13.5-23.9,27-47.8,40.5-71.8
		c9.7-17.2,19.5-19.9,36.6-10.3c20,11.2,40.1,22.3,59.9,33.8c5.8,3.4,8.9,2.9,12.2-3c14.7-26.6,29.6-53.1,44.5-79.5
		c2.3-4,2.7-7.5-0.1-11.7c-9.9-14.8-9.4-30.3-2.7-46.2C494.7,493.3,528,440.8,566,391c24-31.4,49.6-61.3,77.5-89.2
		c42.7-42.7,100.5-46.4,148.4-9.2c24.2,18.8,46.8,39.8,70.8,58.9c36.2,28.6,74.5,53.7,119.9,65.7c10.9,2.9,22.3,3.9,33.2,6.8
		c20.3,5.4,34.5,26.6,32,46.3c-3,23.2-21.1,39.8-43.9,39.9c-12.6,0-25.1-2.5-37.4-4.6c-45.8-8-88.6-23.5-126.3-51.4
		c-1.7-1.3-3.7-3.9-5.7-1.9c-1.2,1.2-1.1,4.3-0.9,6.4c2.1,24.8,4.6,49.5,6.5,74.3c1.7,21.9,4.7,43.7,5.1,65.7
		c0.3,15.4-3.5,29.5-12,42.2c-3.9,5.8-3.4,10.3,0,15.9c57.3,94.4,105.6,193.4,150.7,294c16.2,36.1,0.8,71.8-35.4,81.8
		c-25.9,7.1-52.3-5.4-64.9-31.6c-12.5-25.9-23.9-52.3-36.2-78.3c-30.4-63.8-62.1-126.7-98-187.4c-5.4-9.2-6-9.2-11.3,0.3
		c-36.4,65.6-70,132.6-104.8,199c-12,22.9-24,45.8-36.7,68.3c-14.5,25.7-41,36.9-66.3,29.2c-33.4-10.2-50-47.2-33.7-78.9
		c17.1-33.3,36.1-65.7,54.2-98.6c34.4-62.6,68.7-125.2,103.3-187.7c3.9-7,4.7-12.1-0.8-18.9c-10.2-12.8-13.4-28.5-14.8-44.4
		c-4.1-47-8-93.9-12.1-140.9C626.4,462.1,626,461.6,625.3,460.2z M296.7,991.9c-0.2-7.8-6.8-14.1-14.5-13.8
		c-7.8,0.3-13.7,6.9-13.4,14.9c0.3,7.5,6.3,13,14,13C290.9,1006,296.9,999.8,296.7,991.9z"/>
</g>
<g>
	<path class="st2" d="M463.9,656.5c9.8-20.9,16.2-41.9,20.5-63.5c2.9-14.8,4.8-29.7,5.9-44.7c1-14.2,1-28.4,0.6-42.6
		c-0.5-20.4-2.7-40.6-5.9-60.8c-5.3-34.1-13.5-67.4-25.2-99.8c-13.5-37.3-31.3-72.2-56.2-103.2c-14-17.5-34.9-38.8-59.7-52.6
		c6.1,0,11.7-0.4,17.2,0.1c25.4,2,50.3,6.8,74.8,14.1c55.3,16.5,104.8,43.7,148.5,81.1c83.9,71.7,137.3,162.1,162.7,269.3
		c2.2,9.1,3.8,18.3,5.1,27.6c0.3,2.4,0.2,2.8-2.3,2.2c-12.6-3.2-25.4-5.7-38.3-7.3c-20.4-2.6-40.9-2.9-61.4-1.5
		c-21.5,1.5-42.6,5.4-63.3,11.5c-45.8,13.5-86.3,36.6-121.3,69.1C465.3,655.5,465,655.7,463.9,656.5z"/>
	<path class="st3" d="M949.7,592.2c-70.5,27-121.4,74.9-152.5,143.7c-1.2,2.6-2.2,3.4-5.2,2.9c-12.9-2-25.9-3.2-38.9-4
		c-18.1-1.1-36.2-1.8-54.4-1.6c-28.4,0.3-56.7,2.1-85,5.1c-59.5,6.5-117.6,20-175,36.5c-55.7,16-110.2,35.2-163.1,58.9
		c-0.5,0.2-1.1,0.4-2.2,0.9c7.2-24.6,5.6-48.2-5.6-70.8c-11.1-22.6-28.8-38.1-53.4-47.4c6.3-1.1,11.5-2,16.8-2.9
		c29.3-5,58.6-10,87.9-15c27.4-4.7,54.8-9.3,82.3-14c27.7-4.7,55.3-9.4,83-14.1c26.2-4.4,52.4-8.8,78.5-13.3
		c26-4.4,52.1-8.9,78.1-13.4c27.5-4.7,55.1-9.3,82.6-14c27.4-4.7,54.8-9.3,82.3-14c24.7-4.2,49.4-8.4,74-12.6
		c21.7-3.7,43.4-7.4,65.1-11.1c1.2-0.2,2.5-0.3,3.8-0.4C949.7,591.1,949.8,591.5,949.7,592.2z"/>
	<path class="st4" d="M359.2,429.7c-1.2-8.1-2.4-16.2-3.6-24.3c-4.6-31.2-12.3-61.7-22.5-91.6c-15-43.7-35.4-84.8-61.5-122.9
		c-0.6-0.9-1.2-1.9-2.2-3.4c7.6,2.1,14.4,4.7,21.1,7.6c53.7,23.4,94.1,61.2,121.7,112.6c20.2,37.6,33.1,77.9,42.3,119.5
		c4.9,22.4,8.3,45,10,67.8c0.2,2.8,0.9,5.5,0.5,8.3c-0.6,2.9-0.1,5.9-0.2,8.8c0.3,0.5,0.8-0.2,0.4,0.1c-0.2,0.1-0.3,0-0.3-0.2
		c-0.2-1.5-0.5-2.9,0.3-4.3c1.1,2.8,0.6,5.7,0.6,8.6c-0.7,5-0.1,10.1,0.1,15.1c0.3,9.7-0.4,19.4-0.4,29.2c-0.2,4.7-1.2,9.4-0.5,14.2
		c-0.4,8.6-1.5,17.1-2.6,25.6c-0.3,2.2-1.4,2.5-3.3,2.6c-39.7,2.5-74.8,16.4-105.2,42.2c-7.2,6.1-13.6,12.8-20.3,20.2
		c2.7-8.8,5.4-17.1,7.8-25.4c6.7-22.7,11.8-45.8,15.1-69.2c0.1-0.5,0.4-0.9,0.5-1.4c1.4-3.6,1.4-7.5,1.9-11.2
		c1.7-13.3,2.8-26.6,3.5-39.9c0.1-6.5,0.9-12.9,0.1-19.4c0-4.1,0-8.2,0-12.3c0.8-7.5,0-15-0.1-22.5c-0.5-7.8-0.9-15.7-1.7-23.5
		c-0.4-1.9-0.1-3.7-0.2-5.6c0,0.6,0.1,1.2-0.5,1.7c-0.8-1.3-0.6-2.7-0.5-4.1c0.6-1.6,0.2-3.3,0.2-5
		C359.6,428.3,359.9,429.1,359.2,429.7z"/>
	<path class="st5" d="M1031.1,842.7c-22.9-5.6-45.9-11.2-69-16.3c-36.7-8-73.5-15.3-110.6-21.2c-27.9-4.4-55.9-8.1-84-10.3
		c-24.3-1.9-48.6-2.1-73-1.3c-17.4,0.6-34.7,1.2-52,2.7c-20.5,1.8-41,4.5-61.3,8c-45.9,8-90.7,20.3-134.6,36
		c-27.4,9.8-54,21.5-81.4,31.3c-21.7,7.8-43.7,14.3-66.5,17.8c-21.4,3.3-42.9,4-64.4,1.4c-51.6-6.3-97.9-26.9-142.1-53.1
		c-16-9.5-31.4-19.9-46.3-31.3c1.6-1,2.7,0.3,3.8,0.8c38.4,17.1,78.1,30.7,119.4,38.9c16.1,3.2,32.5,4.9,48.9,6.5
		c11,1,22,1.7,33,1.9c25.2,0.6,49.7-3.1,73.5-11.5c31.5-11.1,62.7-22.7,94.2-33.8c46.9-16.5,94.9-29.1,143.9-37.9
		c23.4-4.2,47-7.4,70.7-9.5c23-2,46-3,69.1-3c50.1,0.1,99.4,6.8,147.9,19.4c62.3,16.2,122.9,37,181.5,63.7
		C1032,842.6,1031.9,843,1031.1,842.7z"/>
	<path class="st6" d="M363.1,518.5c-1,7.2-0.8,14.5-1.6,21.7c-1.1,9.7-1.8,19.4-3.6,29c-0.2,0.8-0.1,1.7-0.2,2.7
		c-1-0.8-0.5-1.8-0.7-2.6c0.4-6.9,1.5-13.6,2.5-20.4c0.7-1.3-0.1-2.7,0.6-4c0.1-1.5,0.1-2.9,0.2-4.4c0.6-1.3-0.1-2.7,0.5-4
		c0.1-1.7,0.1-3.4,0.2-5.2c0.6-1.5-0.1-3.2,0.5-4.8c0.1-2.2,0.1-4.4,0.2-6.6c0.4-0.5,0.2-1.2,0.6-1.7
		C362.6,518.2,362.9,518.3,363.1,518.5z"/>
	<path class="st7" d="M465,561.1c0-13.6,0-27.2,0-40.8c0-1.3-0.5-2.8,0.6-4c1,14.9,1,29.9,0,44.8C465.5,561.5,465.3,561.5,465,561.1
		z"/>
	<path class="st8" d="M360.8,440.2c1.3,4,1.1,8.3,1.5,12.4c0.3,3.7-0.1,7.5,0.8,11.2c-0.2,0.3-0.5,0.3-0.8,0.2
		c-0.5-0.5-0.2-1.2-0.6-1.7c-0.1-2.2-0.1-4.4-0.2-6.7c-0.7-1.8,0.1-3.7-0.6-5.5c-0.1-1.5-0.1-3-0.2-4.4c-0.7-1.5,0.1-3.2-0.6-4.7
		c0-0.3,0-0.5,0-0.8C360.4,439.8,360.6,439.8,360.8,440.2z"/>
	<path class="st9" d="M362.3,463.8c0.3,0,0.5,0,0.8,0c0,6.4,0,12.8,0,19.2c0,1.2,0.4,2.5-0.6,3.6c-0.1-5.2-0.1-10.5-0.2-15.7
		C361.8,468.4,361.7,466.1,362.3,463.8z"/>
	<path class="st10" d="M363.1,518.5c-0.3,0-0.5,0-0.8,0c-0.6-2.1-0.5-4.2-0.1-6.3c0.1-4.5,0.1-9,0.2-13.4c1.4,4.1,0.4,8.4,0.6,12.6
		C363.2,513.8,363.1,516.1,363.1,518.5z"/>
	<path class="st11" d="M465,561.1c0.2,0,0.4,0,0.6,0c0,0.5,0,1.1,0,1.6c-0.7,2.3,0.2,4.7-0.6,7c-0.1,1.7-0.1,3.4-0.2,5.1
		C463.9,570.2,463.8,565.7,465,561.1z"/>
	<path class="st12" d="M465.1,507.7c-0.4,1.5,0.3,3.2-0.8,5.3c0.2-3.7-0.8-6.7,0.6-9.7C465,504.8,465.1,506.3,465.1,507.7z"/>
	<path class="st4" d="M362.3,463.8c0,2.3-0.1,4.7-0.1,7c-1-2.8-0.6-5.7-0.6-8.5C361.9,462.8,362.1,463.3,362.3,463.8z"/>
	<path class="st4" d="M362.2,512.2c0,2.1,0.1,4.2,0.1,6.3c-0.2,0.5-0.4,1-0.6,1.5C361.7,517.4,361.2,514.8,362.2,512.2z"/>
	<path class="st10" d="M360.8,440.2c-0.2,0-0.4,0-0.6,0c-0.1-1.2-0.2-2.4-0.2-3.6c0.1-0.8,0.2-1.6,0.3-2.4c0.2,0,0.4,0,0.6,0
		C360.8,436.2,360.8,438.2,360.8,440.2z"/>
	<path class="st4" d="M465.1,569.7c0.1-2.3-0.7-4.8,0.6-7C465.7,565.1,466.1,567.4,465.1,569.7z"/>
	<path class="st10" d="M359.2,429.7c0.3-0.8-0.2-1.8,0.7-2.7c0,2,0.7,3.8-0.5,5.5C359.3,431.6,359.2,430.6,359.2,429.7z"/>
	<path class="st4" d="M360.9,450.1c1.2,1.7,0.4,3.7,0.6,5.5C360.5,453.8,360.9,452,360.9,450.1z"/>
	<path class="st4" d="M360.2,441c1.2,1.4,0.5,3.1,0.6,4.7C359.8,444.2,360.1,442.6,360.2,441z"/>
	<path class="st4" d="M361.5,526.7c-0.1,1.6,0.6,3.3-0.5,4.8C360.9,529.8,360.6,528.2,361.5,526.7z"/>
	<path class="st13" d="M949.7,592.2c-0.3-0.2-0.5-0.5-0.8-0.7c0.9-0.9,2.1-0.7,3.1-0.8c0.7-0.2,1,0,0.6,0.7
		C951.6,591.7,950.7,591.9,949.7,592.2z"/>
	<path class="st4" d="M360.7,536.6c-0.1,1.3,0.5,2.8-0.5,4C360.1,539.2,359.9,537.8,360.7,536.6z"/>
	<path class="st4" d="M359.9,544.9c-0.1,1.4,0.6,2.8-0.6,4C359.3,547.6,359.1,546.2,359.9,544.9z"/>
	<path class="st14" d="M952.6,591.4c-0.2-0.2-0.4-0.5-0.6-0.7c0.6-0.7,1.9-1.1,2.2-0.4C954.5,591.1,953.3,591.2,952.6,591.4z"/>
	<path class="st15" d="M1031.1,842.7c0.2-0.2,0.5-0.5,0.7-0.7c0.6,0.3,1.3,0.5,2.1,0.9C1032.7,843.8,1031.9,843.4,1031.1,842.7z"/>
</g>
</svg>
