<?xml version="1.0" encoding="utf-8"?>
<!-- Generator: Adobe Illustrator 28.2.0, SVG Export Plug-In . SVG Version: 6.00 Build 0)  -->
<svg version="1.1" id="Шар_1" xmlns="http://www.w3.org/2000/svg" xmlns:xlink="http://www.w3.org/1999/xlink" x="0px" y="0px"
	 viewBox="0 0 1080 1080" style="enable-background:new 0 0 1080 1080;" xml:space="preserve">
<style type="text/css">
	.st0{display:none;}
	.st1{display:inline;fill:#00A43C;}
	.st2{fill:#D8DDFA;}
	.st3{fill:#3B478E;}
	.st4{fill:#FEFEFE;}
	.st5{fill:#3D4990;}
</style>
<g class="st0">
	<path class="st1" d="M749.3,40.3c28.4,7,52.9,20.1,70.8,44.1c28.4,38.2,29.9,89.4,3.7,129c-25.9,39.2-73.6,58.3-119.1,47.7
		c-46.1-10.7-80.5-49.1-86.1-96.2c-6.7-55.8,28.2-107.1,82.7-121.8c3.1-0.8,6.1-1.9,9.2-2.9C723.5,40.3,736.4,40.3,749.3,40.3z"/>
	<path class="st1" d="M625.3,460.2C609,482,594.4,504.3,581,527.4c-10.7,18.5-20,37.7-28.4,57.3c-6.3,14.6-15.4,26.1-31.4,30.6
		c-5.7,1.6-7.5,6.8-10,11.2C471,697,430.9,767.5,390.7,838c-22.4,39.3-44.7,78.7-67.3,117.9c-3.2,5.5-3.9,9.8-0.9,16
		c9,18.5,4.8,38.5-9.7,51.3c-14.7,12.9-35.9,14.8-52.3,4.6c-16.6-10.4-23.9-29.6-18-49.9c1.9-6.6-0.2-9.2-5.5-12.1
		c-14-7.5-27.7-15.3-41.5-23.2c-17.7-10.1-20.2-18.8-10.2-36.5c31.3-55.5,62.7-110.8,94.1-166.2c13.5-23.9,27-47.8,40.5-71.8
		c9.7-17.2,19.5-19.9,36.6-10.3c20,11.2,40.1,22.3,59.9,33.8c5.8,3.4,8.9,2.9,12.2-3c14.7-26.6,29.6-53.1,44.5-79.5
		c2.3-4,2.7-7.5-0.1-11.7c-9.9-14.8-9.4-30.3-2.7-46.2C494.7,493.3,528,440.8,566,391c24-31.4,49.6-61.3,77.5-89.2
		c42.7-42.7,100.5-46.4,148.4-9.2c24.2,18.8,46.8,39.8,70.8,58.9c36.2,28.6,74.5,53.7,119.9,65.7c10.9,2.9,22.3,3.9,33.2,6.8
		c20.3,5.4,34.5,26.6,32,46.3c-3,23.2-21.1,39.8-43.9,39.9c-12.6,0-25.1-2.5-37.4-4.6c-45.8-8-88.6-23.5-126.3-51.4
		c-1.7-1.3-3.7-3.9-5.7-1.9c-1.2,1.2-1.1,4.3-0.9,6.4c2.1,24.8,4.6,49.5,6.5,74.3c1.7,21.9,4.7,43.7,5.1,65.7
		c0.3,15.4-3.5,29.5-12,42.2c-3.9,5.8-3.4,10.3,0,15.9c57.3,94.4,105.6,193.4,150.7,294c16.2,36.1,0.8,71.8-35.4,81.8
		c-25.9,7.1-52.3-5.4-64.9-31.6c-12.5-25.9-23.9-52.3-36.2-78.3c-30.4-63.8-62.1-126.7-98-187.4c-5.4-9.2-6-9.2-11.3,0.3
		c-36.4,65.6-70,132.6-104.8,199c-12,22.9-24,45.8-36.7,68.3c-14.5,25.7-41,36.9-66.3,29.2c-33.4-10.2-50-47.2-33.7-78.9
		c17.1-33.3,36.1-65.7,54.2-98.6c34.4-62.6,68.7-125.2,103.3-187.7c3.9-7,4.7-12.1-0.8-18.9c-10.2-12.8-13.4-28.5-14.8-44.4
		c-4.1-47-8-93.9-12.1-140.9C626.4,462.1,626,461.6,625.3,460.2z M296.7,991.9c-0.2-7.8-6.8-14.1-14.5-13.8
		c-7.8,0.3-13.7,6.9-13.4,14.9c0.3,7.5,6.3,13,14,13C290.9,1006,296.9,999.8,296.7,991.9z"/>
</g>
<g>
	<path class="st2" d="M307,144.5c100.8,0,201.7,0,302.5,0c3.7,4.4,3,9.6,3,14.7c0,65.1,0,130.1,0,195.2c0,15.4,0,15.5,15.3,15.5
		c79.5,0,158.9,0,238.4,0c5.6,0,11.3-0.2,16.6,2.3c2,1.9,2.4,4.5,2.7,7.1c0.2,1.8,0.2,3.6,0.2,5.4c1.6,165.3,1.8,330.6,1.6,495.9
		c0,5.9-0.5,11.8-2.1,17.6c-6.3,22.8-25,37.3-48.6,37.3c-31.6,0.1-63.3,0-94.9,0c-142.2,0-284.4,0-426.6,0
		c-33.3,0-54.2-20.9-54.3-54.3c-0.1-22.9-0.1-45.8,0-68.7c0-4.3-0.5-8.8,2.5-12.6c4.5-3.4,9.8-2.5,14.9-2.5
		c87.7-0.1,175.4,0,263.1,0c60.2,0,120.4,0,180.6,0c3.6,0,7.2,0.2,10.8-0.2c12.6-1.1,19.5-8.3,20.3-21c0.1-2.1,0.1-4.1,0.1-6.2
		c0-71.8,0-143.5,0-215.3c0-4.9,0.1-9.8-2-14.4c-3.3-7-8.3-11.6-16.6-11.6c-4.1,0-8.2,0-12.3,0c-165.4,0-330.8,0-496.2,0
		c-5.3,0-10.9,1.1-15.7-2.3c-0.3-5.6,4.3-4.7,7.3-4.9c9.2-0.6,18.5-0.2,27.7-0.3c16.6-0.1,15.6,1.4,15.6-15.3
		c0-102.7,0.1-205.5-0.1-308.2c0-16.7,6-30.3,17.7-42C286.5,147.7,296.4,145.6,307,144.5z"/>
	<path class="st3" d="M611,144.5c13.2,13.3,28.2,24.4,42.5,36.4c76.2,63.9,152.5,127.7,228.8,191.6c-2.8,0.1-5.6,0.4-8.5,0.4
		c-84.3,0-168.6,0-253,0c-11.3,0-11.7-0.4-11.7-11.7c0.1-72.2,0.2-144.5,0.3-216.7C610,144.5,610.5,144.5,611,144.5z"/>
	<path class="st3" d="M263.8,800.5c-15.2-0.1-30.3-0.3-45.5-0.4c-17.7-0.1-25.6-7.8-25.6-25.2c0-75.1,0-150.2,0-225.2
		c0-13.6,4.2-19.4,17-24.1c171.8,0,343.5-0.1,515.2-0.1c2.6,0,5.1,0,7.7,0c14.7,0.3,22.9,8.4,23.1,23.1c0.2,20.6,0.1,41.1,0.1,61.7
		c0,54.3,0,108.5,0,162.8c0,19.6-7.5,27.2-27,27.2c-151.7,0-303.4,0-455.1,0C270.4,800.1,267.1,800.4,263.8,800.5z"/>
	<path class="st4" d="M442.6,661.1c0,17.9-0.2,35.9,0.1,53.8c0.1,5.3-1.2,7.3-6.8,6.9c-7.4-0.5-14.9-0.3-22.4-0.1
		c-3.6,0.1-4.9-1-4.9-4.7c0.1-35.5,0.1-70.9,0-106.4c0-3.9,1.6-5,5-4.6c0.8,0.1,1.6,0.1,2.3,0c19.3-3.9,31.9,3.7,41,21.2
		c7.3,14,17.6,26.5,26.6,39.6c0.2,0.4,0.8,0.5,2.1,1.2c0-18.3,0.3-36.1-0.1-54c-0.1-6.2,1.1-8.8,7.9-8.2c6.6,0.6,13.4,0.4,20,0
		c4.9-0.3,6,1.6,6,6.2c-0.2,34.4-0.2,68.9,0,103.3c0,5.2-1.6,6.6-6.6,6.3c-9-0.5-19.3,2.4-26.5-1.3c-6.9-3.5-10.6-13.3-15.5-20.5
		c-9-13.1-17.9-26.2-26.8-39.4C443.6,660.9,443.1,661,442.6,661.1z"/>
	<path class="st4" d="M628.8,655.7c6.9,0,13.9,0.2,20.8-0.1c4.7-0.2,7,0.8,6.8,6.3c-0.4,12.8-0.2,25.7-0.1,38.5c0,3.1-0.8,5.2-3.5,7
		c-24.3,16.5-50.8,20.2-78.7,12.4c-16.6-4.6-26.6-16.8-31.9-32.9c-5-15.4-5-30.9,0.2-46.2c7.7-22.3,24.1-33.8,47.2-36
		c11.5-1.1,23.1-1,34.5,1.4c14.6,3,23.7,12.3,29.2,25.8c1.7,4.3,0,5.4-3.7,6.1c-8.3,1.4-16.7,2.8-25,4.5c-3.2,0.7-4.5-0.5-5.9-3.1
		c-4.4-8-11.8-10.3-20.3-9.7c-9.1,0.6-16.5,4.7-20,13.4c-5.5,13.9-5.4,28.2,0.1,42.1c3.5,8.7,11.1,12.5,20.1,13.2
		c8.2,0.7,15.6-1.9,22.9-5.3c4.9-2.3,3.6-6.3,3.6-9.9c-0.1-4.9-4-2.5-6.4-3.1c-0.2-0.1-0.5,0-0.8,0c-18.1-0.3-19.6-2.3-17-20.6
		c0.5-3.7,2.5-3.8,5.3-3.8C613.9,655.8,621.4,655.7,628.8,655.7z"/>
	<path class="st4" d="M291.7,663.6c0-17.2,0.2-34.4-0.1-51.6c-0.1-4.8,1.5-6.1,6.1-6c18.7,0.2,37.5-0.2,56.3,0.2
		c28.9,0.7,44.6,25.9,32.7,52.4c-6.2,13.9-18.3,18.7-32.4,19.8c-6.9,0.5-13.9,0.5-20.8,0.2c-4.4-0.2-5.9,1.3-5.8,5.7
		c0.2,10.3-0.2,20.6,0.2,30.8c0.2,5.6-1.7,7-7,6.7c-7.7-0.4-15.4-0.4-23.1,0c-5.3,0.3-6.3-1.8-6.3-6.6
		C291.9,698.1,291.7,680.8,291.7,663.6z"/>
	<path class="st5" d="M327.2,642.5c1.9-5.1-4.2-13.9,8-13.2c13.5,0.8,19.6,4.1,19.7,13.1c0.1,9.1-6,12.6-20.2,13.2
		C322.1,656.2,329.9,646.7,327.2,642.5z"/>
</g>
</svg>
