<?xml version="1.0" encoding="utf-8"?>
<!-- Generator: Adobe Illustrator 28.2.0, SVG Export Plug-In . SVG Version: 6.00 Build 0)  -->
<svg version="1.1" id="Шар_1" xmlns="http://www.w3.org/2000/svg" xmlns:xlink="http://www.w3.org/1999/xlink" x="0px" y="0px"
	 viewBox="0 0 1080 1080" style="enable-background:new 0 0 1080 1080;" xml:space="preserve">
<style type="text/css">
	.st0{display:none;}
	.st1{display:inline;fill:#00A43C;}
	.st2{fill:#B04795;}
	.st3{fill:#AB66AD;}
	.st4{fill:#952C86;}
	.st5{fill:#FEFEFE;}
	.st6{fill:#782379;}
	.st7{fill:#962E87;}
</style>
<g class="st0">
	<path class="st1" d="M749.3,40.3c28.4,7,52.9,20.1,70.8,44.1c28.4,38.2,29.9,89.4,3.7,129c-25.9,39.2-73.6,58.3-119.1,47.7
		c-46.1-10.7-80.5-49.1-86.1-96.2c-6.7-55.8,28.2-107.1,82.7-121.8c3.1-0.8,6.1-1.9,9.2-2.9C723.5,40.3,736.4,40.3,749.3,40.3z"/>
	<path class="st1" d="M625.3,460.2C609,482,594.4,504.3,581,527.4c-10.7,18.5-20,37.7-28.4,57.3c-6.3,14.6-15.4,26.1-31.4,30.6
		c-5.7,1.6-7.5,6.8-10,11.2C471,697,430.9,767.5,390.7,838c-22.4,39.3-44.7,78.7-67.3,117.9c-3.2,5.5-3.9,9.8-0.9,16
		c9,18.5,4.8,38.5-9.7,51.3c-14.7,12.9-35.9,14.8-52.3,4.6c-16.6-10.4-23.9-29.6-18-49.9c1.9-6.6-0.2-9.2-5.5-12.1
		c-14-7.5-27.7-15.3-41.5-23.2c-17.7-10.1-20.2-18.8-10.2-36.5c31.3-55.5,62.7-110.8,94.1-166.2c13.5-23.9,27-47.8,40.5-71.8
		c9.7-17.2,19.5-19.9,36.6-10.3c20,11.2,40.1,22.3,59.9,33.8c5.8,3.4,8.9,2.9,12.2-3c14.7-26.6,29.6-53.1,44.5-79.5
		c2.3-4,2.7-7.5-0.1-11.7c-9.9-14.8-9.4-30.3-2.7-46.2C494.7,493.3,528,440.8,566,391c24-31.4,49.6-61.3,77.5-89.2
		c42.7-42.7,100.5-46.4,148.4-9.2c24.2,18.8,46.8,39.8,70.8,58.9c36.2,28.6,74.5,53.7,119.9,65.7c10.9,2.9,22.3,3.9,33.2,6.8
		c20.3,5.4,34.5,26.6,32,46.3c-3,23.2-21.1,39.8-43.9,39.9c-12.6,0-25.1-2.5-37.4-4.6c-45.8-8-88.6-23.5-126.3-51.4
		c-1.7-1.3-3.7-3.9-5.7-1.9c-1.2,1.2-1.1,4.3-0.9,6.4c2.1,24.8,4.6,49.5,6.5,74.3c1.7,21.9,4.7,43.7,5.1,65.7
		c0.3,15.4-3.5,29.5-12,42.2c-3.9,5.8-3.4,10.3,0,15.9c57.3,94.4,105.6,193.4,150.7,294c16.2,36.1,0.8,71.8-35.4,81.8
		c-25.9,7.1-52.3-5.4-64.9-31.6c-12.5-25.9-23.9-52.3-36.2-78.3c-30.4-63.8-62.1-126.7-98-187.4c-5.4-9.2-6-9.2-11.3,0.3
		c-36.4,65.6-70,132.6-104.8,199c-12,22.9-24,45.8-36.7,68.3c-14.5,25.7-41,36.9-66.3,29.2c-33.4-10.2-50-47.2-33.7-78.9
		c17.1-33.3,36.1-65.7,54.2-98.6c34.4-62.6,68.7-125.2,103.3-187.7c3.9-7,4.7-12.1-0.8-18.9c-10.2-12.8-13.4-28.5-14.8-44.4
		c-4.1-47-8-93.9-12.1-140.9C626.4,462.1,626,461.6,625.3,460.2z M296.7,991.9c-0.2-7.8-6.8-14.1-14.5-13.8
		c-7.8,0.3-13.7,6.9-13.4,14.9c0.3,7.5,6.3,13,14,13C290.9,1006,296.9,999.8,296.7,991.9z"/>
</g>
<g>
	<path class="st2" d="M207.6,731.7c-6.4-10-8.6-21.2-8.6-32.8c-0.1-106-0.2-211.9,0-317.9c0.1-24.8,10.8-44.1,32.7-56.7
		c90.8-52.4,181.7-104.7,272.5-157.2c8-4.6,16.9-6.8,25.2-10.3c7,0,14,0,21,0c42.3,15.8,78.8,42.1,117.7,63.9
		c58.3,32.6,115.8,66.5,173.7,99.8c12.2,7,23.8,14.6,30.4,27.8c-4.2,5.9-11,8.3-16.9,11.7C819,381,782.7,402,746.3,423
		c-3.4,1.9-6.6,4.6-11,3.7c-3.2-1.8-4.8-5-6.7-7.9c-38.9-57.8-92.4-92.9-162-101.3c-57.3-6.9-110.2,6.2-157,40.2
		c-50.6,36.7-81.8,86-91.2,148.1c-7,46-1,90.4,19.9,132.5c2.4,4.9,5.9,9.3,6.2,15.1c-6.6,6.1-14.9,9.7-22.6,14.1
		c-35.6,20.5-71.1,41-106.7,61.5C212.8,730.2,210.6,731.9,207.6,731.7z"/>
	<path class="st3" d="M207.6,731.7c18.6-12.4,38.5-22.6,57.7-34c22.9-13.5,46-26.6,69-39.8c3-1.7,5.9-3.8,9.5-4.2
		c5.7,2.2,7.4,7.9,10.4,12.2c32.5,46.2,75.4,78.3,130.5,91.5c74.7,17.8,142.4,2.1,201.5-47.4c15.8-13.3,29.7-28.8,40.9-46.4
		c2.4-3.7,4.3-7.9,8.3-10.4c4.1-1.3,7.3,1.1,10.4,2.9c40,23.2,80.1,46.4,120.1,69.6c2.5,1.5,5.5,2.6,6.2,6
		c-5.4,11.6-15,19-25.7,25.2c-72.8,42-145.7,83.9-218.5,125.9c-17,9.8-34.1,19.5-51,29.5c-25.1,14.8-49.7,14.4-74.8-0.2
		c-89.6-51.8-179.3-103.4-269-155.1C222.6,750.7,213,743.3,207.6,731.7z"/>
	<path class="st4" d="M872.3,731.6c-27.4-16-54.9-31.9-82.3-47.9c-13.7-8-27.5-15.9-41.2-23.9c-4.1-2.4-8-5-12.7-6.1
		c-19.3-10.3-37.8-21.8-56.8-32.6c-14.3-8.1-28.1-16.8-42.7-24.3c-31.5-17.9-62.6-36.4-94.1-54.3c-1.1-0.6-2.1-1.3-2.8-2.4
		c-0.2-2.9,2.2-3.7,4-4.7c31-17.9,61.8-36,93-53.5c30-17.6,60.3-34.5,90.2-52.2c2.7-1.6,5.5-3.5,8.9-3.5c26.3-15,52.6-30,78.9-45
		c19.2-10.9,38.4-21.9,57.5-32.8c6.5,9.3,8.7,20.1,8.7,31c0.2,107.1,0.2,214.1,0,321.2C880.9,711.6,878.8,722.3,872.3,731.6z"/>
	<path class="st5" d="M735.9,426.3c-27.4,16-54.9,32-82.3,48c-5.3,3.1-10.8,5.9-16.3,8.9c-3.6-0.8-4.9-4-6.8-6.6
		c-41.1-57.8-123.6-63.5-171.8-11.7c-32,34.4-39.3,86.3-14.8,129.8c27.2,46.9,82.6,67.9,133.3,49.6c21.7-7.8,40-21,53.2-40.5
		c2.1-3.1,3.6-6.6,7.3-8.2c23.3,13.3,46.6,26.6,69.9,39.9c7.8,4.4,15.5,9,23.2,13.5c2.1,1.2,4.8,1.8,5.3,4.7
		c-18.4,29.9-41.5,55.3-70.8,74.8c-104.9,69.7-246.9,40.3-315.4-65.4c-2-3.1-4.1-6.3-6.1-9.4c-15.1-27.6-25.5-56.6-28.7-88.1
		c-6.2-60.5,8-115.6,45.5-163.4c50.5-64.3,117.8-94.3,199.1-87.5C636.9,321.2,695.3,360.4,735.9,426.3z"/>
	<path class="st2" d="M442.4,595.5c-22.8-34.9-19.5-87.9,7.8-123.6c48.6-63.6,145.8-58.4,187.1,11.2c-21.4,12.4-42.7,24.9-64.1,37.3
		c-11.1,6.5-22.2,13-33.2,19.5c-0.8,3.1-3.7,3.8-6,5.2c-27.4,16.1-55.2,31.7-82.7,47.7C448.6,594.4,446,596.9,442.4,595.5z"/>
	<path class="st6" d="M442.4,595.5c25.2-14.4,50.3-28.8,75.5-43.2c7.3-4.2,14.7-8.2,22-12.4c12,4.4,22.2,12,33.2,18.2
		c21.6,12.2,43,24.9,64.5,37.4c-35.5,68-135,77-184.2,16.6C449.2,607,444.8,601.9,442.4,595.5z"/>
	<path class="st5" d="M800.9,595.1c-1.7,0-3.5-0.2-5.2,0c-4.6,0.6-5.9-1.3-5.9-5.9c0-12.4-0.2-12.4-12.5-12.4c-0.2,0-0.5,0-0.7,0
		c-13.2,0-13.4,0-13.6,12.8c-0.1,4.3-1.5,5.9-5.6,5.4c-0.7-0.1-1.5,0-2.2,0c-13.8,0.1-14.1,0.1-14.5-13.4c-0.2-5-2.8-4.8-6.2-4.8
		c-12-0.2-12.1-0.3-12-12.3c0.1-11.4-1.4-10.4,9.8-9.9c7.1,0.3,9.4-2.1,8.4-8.7c-0.2-1.5,0-3,0-4.5c0-13.6,0-13.6-13.5-14.6
		c-0.7-0.1-1.8,0.2-2.2-0.2c-5.2-5.4-1.3-12-2.4-18c-0.7-4,2.1-4.4,5.2-4.2c0.5,0,1,0,1.5,0c11.3-0.2,11.6-0.2,11.2-11.4
		c-0.2-5.9,1.9-7.6,7.2-6.7c0.2,0,0.5,0,0.7,0c13.7,0,13.8,0,14.5,13.5c0.2,3.5,1.1,5,4.7,4.7c2.5-0.2,5,0,7.5,0
		c13.9,0,13.9,0,15-13.7c0.1-1.6-0.5-4.1,1.9-4.2c6.2-0.3,12.4-0.2,18.7,0c1.5,0,1.8,1.5,1.8,2.8c0,2,0.3,4,0,6
		c-1.3,7.5,1.5,10.7,9.1,9.2c8-1.6,10.2,2.2,9,9.4c-0.1,0.5,0,1,0,1.5c0,11.4,0,11.8-11.2,11.4c-5.7-0.2-7.5,1.6-7,7.1
		c0.5,4.9,0.4,10,0,14.9c-0.4,4.8,1.6,5.8,6,5.8c12.2,0,12.2,0.2,12.2,12.8c-0.1,10.7,1.3,9.6-9.6,9.4c-5.7-0.1-9.3,0.1-8.7,7.7
		C812.9,595.1,812.3,595.1,800.9,595.1z"/>
	<path class="st7" d="M789.9,541.2c0,13.4,0,13.4-13.1,13.4c-14.1,0-14.1,0-14.1-13.9c0-13.7,0-13.7,13.5-13.7
		C789.9,526.9,789.9,526.9,789.9,541.2z"/>
</g>
</svg>
