<?xml version="1.0" encoding="utf-8"?>
<!-- Generator: Adobe Illustrator 28.2.0, SVG Export Plug-In . SVG Version: 6.00 Build 0)  -->
<svg version="1.1" id="_Шар_2" xmlns="http://www.w3.org/2000/svg" xmlns:xlink="http://www.w3.org/1999/xlink" x="0px" y="0px"
	 viewBox="0 0 1087.1 924.3" style="enable-background:new 0 0 1087.1 924.3;" xml:space="preserve">
<style type="text/css">
	.st0{fill:#734B34;}
</style>
<g>
	<path class="st0" d="M235.7,416.3c0-7.2,0-14.4,0-21.6c0.7-2.1,1.3-4.2,2-6.3c7.6-22.3,23.2-35.9,46.3-39.5
		c39.5-6.2,79.1-11.6,118.7-17.2c24.7-3.5,24.7-3.5,35.7-25.9c17.6-35.7,35.1-71.5,53-107.1c10.8-21.4,28.5-32.8,52.6-32.5
		c23.5,0.3,40.7,11.9,51.1,32.9c19.4,38.9,38.6,77.8,57.7,116.8c3.9,8,9.8,12.6,18.8,13.9c40.8,5.7,81.5,11.9,122.3,17.6
		c16.1,2.2,30.9,6.7,42.2,19.2c21.2,23.3,20.3,57.9-2.7,80.7c-30.9,30.5-62.1,60.8-93.3,90.9c-6.9,6.7-9.1,14.2-7.5,23.3
		c6.6,38.2,13.3,76.4,19.8,114.7c2,11.8,4.7,23.6,2.1,35.7c-8,37.4-48.4,56.9-82.8,39.3c-38.4-19.8-76.7-40-114.8-60.3
		c-9.4-5-17.8-5-27.2,0c-38.1,20.3-76.4,40.5-114.8,60.3c-21.2,10.9-42.1,9.1-61-5.1c-19-14.3-25.8-34-21.8-57.3
		c7.3-42.6,14.6-85.1,21.9-127.7c1.5-8.7-0.6-16-7.2-22.3c-29.8-28.8-59.2-57.9-89.1-86.6C247.1,441.9,239,430.6,235.7,416.3z"/>
</g>
</svg>
