<?xml version="1.0" encoding="utf-8"?>
<!-- Generator: Adobe Illustrator 28.2.0, SVG Export Plug-In . SVG Version: 6.00 Build 0)  -->
<svg version="1.1" id="Шар_1" xmlns="http://www.w3.org/2000/svg" xmlns:xlink="http://www.w3.org/1999/xlink" x="0px" y="0px"
	 viewBox="0 0 1080 1080" style="enable-background:new 0 0 1080 1080;" xml:space="preserve">
<style type="text/css">
	.st0{display:none;}
	.st1{display:inline;fill:#00A43C;}
	.st2{fill:#D8DDFA;}
	.st3{fill:#3B478E;}
	.st4{fill:#FEFEFE;}
</style>
<g class="st0">
	<path class="st1" d="M749.3,40.3c28.4,7,52.9,20.1,70.8,44.1c28.4,38.2,29.9,89.4,3.7,129c-25.9,39.2-73.6,58.3-119.1,47.7
		c-46.1-10.7-80.5-49.1-86.1-96.2c-6.7-55.8,28.2-107.1,82.7-121.8c3.1-0.8,6.1-1.9,9.2-2.9C723.5,40.3,736.4,40.3,749.3,40.3z"/>
	<path class="st1" d="M625.3,460.2C609,482,594.4,504.3,581,527.4c-10.7,18.5-20,37.7-28.4,57.3c-6.3,14.6-15.4,26.1-31.4,30.6
		c-5.7,1.6-7.5,6.8-10,11.2C471,697,430.9,767.5,390.7,838c-22.4,39.3-44.7,78.7-67.3,117.9c-3.2,5.5-3.9,9.8-0.9,16
		c9,18.5,4.8,38.5-9.7,51.3c-14.7,12.9-35.9,14.8-52.3,4.6c-16.6-10.4-23.9-29.6-18-49.9c1.9-6.6-0.2-9.2-5.5-12.1
		c-14-7.5-27.7-15.3-41.5-23.2c-17.7-10.1-20.2-18.8-10.2-36.5c31.3-55.5,62.7-110.8,94.1-166.2c13.5-23.9,27-47.8,40.5-71.8
		c9.7-17.2,19.5-19.9,36.6-10.3c20,11.2,40.1,22.3,59.9,33.8c5.8,3.4,8.9,2.9,12.2-3c14.7-26.6,29.6-53.1,44.5-79.5
		c2.3-4,2.7-7.5-0.1-11.7c-9.9-14.8-9.4-30.3-2.7-46.2C494.7,493.3,528,440.8,566,391c24-31.4,49.6-61.3,77.5-89.2
		c42.7-42.7,100.5-46.4,148.4-9.2c24.2,18.8,46.8,39.8,70.8,58.9c36.2,28.6,74.5,53.7,119.9,65.7c10.9,2.9,22.3,3.9,33.2,6.8
		c20.3,5.4,34.5,26.6,32,46.3c-3,23.2-21.1,39.8-43.9,39.9c-12.6,0-25.1-2.5-37.4-4.6c-45.8-8-88.6-23.5-126.3-51.4
		c-1.7-1.3-3.7-3.9-5.7-1.9c-1.2,1.2-1.1,4.3-0.9,6.4c2.1,24.8,4.6,49.5,6.5,74.3c1.7,21.9,4.7,43.7,5.1,65.7
		c0.3,15.4-3.5,29.5-12,42.2c-3.9,5.8-3.4,10.3,0,15.9c57.3,94.4,105.6,193.4,150.7,294c16.2,36.1,0.8,71.8-35.4,81.8
		c-25.9,7.1-52.3-5.4-64.9-31.6c-12.5-25.9-23.9-52.3-36.2-78.3c-30.4-63.8-62.1-126.7-98-187.4c-5.4-9.2-6-9.2-11.3,0.3
		c-36.4,65.6-70,132.6-104.8,199c-12,22.9-24,45.8-36.7,68.3c-14.5,25.7-41,36.9-66.3,29.2c-33.4-10.2-50-47.2-33.7-78.9
		c17.1-33.3,36.1-65.7,54.2-98.6c34.4-62.6,68.7-125.2,103.3-187.7c3.9-7,4.7-12.1-0.8-18.9c-10.2-12.8-13.4-28.5-14.8-44.4
		c-4.1-47-8-93.9-12.1-140.9C626.4,462.1,626,461.6,625.3,460.2z M296.7,991.9c-0.2-7.8-6.8-14.1-14.5-13.8
		c-7.8,0.3-13.7,6.9-13.4,14.9c0.3,7.5,6.3,13,14,13C290.9,1006,296.9,999.8,296.7,991.9z"/>
</g>
<g>
	<path class="st2" d="M842.5,935.9c-179,0-358.1,0-537.1,0c-29-5.5-44.4-24.2-44.5-54.1c0-23.1-0.1-46.2,0-69.4
		c0-4.3-0.7-8.9,3.2-12.2c4.8-2.6,10-1.8,15.1-1.8c146.6,0,293.1,0,439.7,0c4.6,0,9.3,0.2,13.9-0.2c12.3-1.2,19-8.1,20-20.5
		c0.1-1.3,0.1-2.6,0.1-3.9c0.1-73.7,0-147.4,0-221c0-3.4-0.2-6.6-1.3-9.9c-3.1-8.9-8.9-13.4-18.3-13.6c-4.4-0.1-8.7-0.1-13.1-0.1
		c-164.8,0-329.6,0-494.5,0c-5.3,0-10.9,1.1-15.7-2.4c-0.3-5.6,4.3-4.7,7.3-4.9c9.2-0.6,18.5-0.2,27.7-0.3
		c16.6-0.1,15.6,1.4,15.6-15.3c0-102.9,0.1-205.9-0.1-308.8c0-16.7,6-30.4,17.7-42.1c8.1-8.1,18-10.1,28.6-11.3
		c100.8,0,201.7,0,302.5,0c3.7,4.4,3,9.7,3,14.8c0,64.4,0,128.8,0,193.2c0,3.1,0.1,6.2,0,9.3c-0.1,5.8,2.4,8.6,8.3,8.5
		c3.3-0.1,6.7,0,10,0c78.7,0,157.3,0,236,0c5.4,0,10.8-0.1,15.8,2.3c2.2,2.2,2.5,5,2.8,7.8c0.2,1.8,0.1,3.6,0.2,5.4
		c0.9,164.9,2.2,329.8,1.5,494.7c0,4.6,0,9.3-0.9,13.9C882.1,917,867.4,931.1,842.5,935.9z"/>
	<path class="st3" d="M611,144.1c13.2,13.3,28.2,24.5,42.5,36.5c76.2,64.1,152.5,128,228.8,191.9c-2.8,0.1-5.6,0.4-8.5,0.4
		c-84.3,0-168.7,0-253,0c-11.3,0-11.7-0.4-11.7-11.8c0.1-72.4,0.2-144.7,0.3-217.1C610,144.1,610.5,144.1,611,144.1z"/>
	<path class="st3" d="M263.7,801.4c-15.2-0.1-30.3-0.3-45.5-0.4c-17.7-0.1-25.6-7.8-25.6-25.3c0-75.2,0-150.4,0-225.7
		c0-13.7,4.2-19.5,17-24.2c171.8,0,343.5-0.1,515.3-0.1c2.6,0,5.1,0,7.7,0c14.7,0.3,22.9,8.4,23.1,23.1c0.2,20.6,0.1,41.2,0.1,61.8
		c0,54.4,0,108.7,0,163.1c0,19.6-7.5,27.2-27,27.2c-151.7,0-303.4,0-455.1,0C270.4,801,267,801.3,263.7,801.4z"/>
	<path class="st4" d="M624.1,656.4c7.5,0,14.9,0.2,22.4-0.1c4.1-0.1,6,0.9,5.9,5.5c-0.3,13.1-0.2,26.3,0,39.4c0,3.2-1.2,5.2-3.8,6.9
		c-23.3,15.9-48.8,19.9-75.8,13.3c-21.7-5.3-32.7-21.2-37-42.1c-2.5-12.2-2.1-24.7,1.8-36.7c6.7-20.7,20.7-33.2,42.4-36.6
		c13.1-2,26.2-1.8,39.1,0.5c15.1,2.7,24.3,12.3,29.9,26.1c1.4,3.5,0.5,5.2-3.2,5.8c-8.6,1.4-17.2,3-25.8,4.6
		c-2.6,0.5-3.9-0.2-5.5-2.6c-10.4-15.3-33.5-13.6-40.6,3.3c-5.8,13.8-5.4,28.3,0.2,42.2c3.5,8.7,11.2,12.4,20.3,13
		c7.9,0.5,15.1-2,22.2-5.3c5.2-2.4,4.3-6.6,3.9-10.5c-0.5-4.4-4.4-2.5-6.7-2.5c-17.4-0.3-17.2-0.3-17.2-18c0-5,1.2-6.9,6.4-6.6
		C610.2,656.7,617.2,656.4,624.1,656.4z"/>
	<path class="st4" d="M313.9,683.2c1.8-0.2,3.6-0.2,5.4-0.5c6.5-1.1,10.9-0.7,13.1,7.7c2.8,10.6,18.3,14.8,27.8,8.9
		c8-4.9,7.6-14.5-0.9-19.1c-7.1-3.8-15.1-4.9-22.7-7c-7-1.9-13.7-4.2-20-7.8c-10.1-5.8-16.2-14-16.2-26.1c0-12.6,5.5-22.5,16.4-27.7
		c20.8-9.9,42.3-9.8,63.3-0.3c9.6,4.3,13.8,13.4,16.2,23.3c0.8,3.1,0.1,4.7-3.6,4.8c-5.6,0.1-11.3,0.6-16.9,1.2
		c-6.9,0.6-12.8,1.1-16.1-7.8c-2.5-6.8-15.5-8.6-22-4.7c-2.9,1.7-4.6,4.1-4.3,7.6c0.3,3.6,2.9,5.5,5.9,6.4c7.6,2.2,15.4,4,23,6.2
		c5.2,1.5,10.4,3,15.4,5c13.5,5.4,22.4,15,22.9,30c0.5,15.1-5.9,27.7-19.6,34.2c-21.8,10.4-44.5,10-66.3-0.3
		c-11.5-5.4-15.9-17-18.3-29c-0.6-3.1,0.7-4.1,3.7-4.2c4.6-0.1,9.2-0.4,13.9-0.6C313.9,683.3,313.9,683.2,313.9,683.2z"/>
	<path class="st4" d="M471.6,687.7c7.5-24.3,15.2-48.3,22-72.5c2-7.2,5.2-9.3,12.2-8.8c8.6,0.7,17.3,0.2,26.9,0.2
		c-7.4,19.9-14.4,38.9-21.4,57.8c-6.5,17.6-13.1,35.1-19.4,52.8c-1.4,4-3.4,5.5-7.7,5.4c-9.2-0.4-18.5-0.4-27.7,0
		c-4.6,0.2-6.1-1.8-7.6-5.6c-12.9-34.7-25.9-69.3-39.1-103.8c-2.2-5.6-1.3-7,4.6-6.7c7.9,0.4,15.9,0.4,23.9,0
		c5.1-0.3,7.1,1.6,8.5,6.3c7.1,23.6,14.6,47.1,22,70.6C469.3,684.9,469.3,686.5,471.6,687.7z"/>
</g>
</svg>
