<?xml version="1.0" encoding="utf-8"?>
<!-- Generator: Adobe Illustrator 28.2.0, SVG Export Plug-In . SVG Version: 6.00 Build 0)  -->
<svg version="1.1" id="Шар_1" xmlns="http://www.w3.org/2000/svg" xmlns:xlink="http://www.w3.org/1999/xlink" x="0px" y="0px"
	 viewBox="0 0 1080 1080" style="enable-background:new 0 0 1080 1080;" xml:space="preserve">
<style type="text/css">
	.st0{fill:#403332;}
	.st1{display:none;}
	.st2{display:inline;fill:#00A43C;}
	.st3{fill:#3389F2;}
	.st4{fill:#FED944;}
	.st5{fill:#4290E6;}
	.st6{fill:#FEE16A;}
	.st7{fill:#FEE068;}
	.st8{fill:#FEE069;}
	.st9{fill:#98BAC9;}
</style>
<path class="st0" d="M885.9,541c0.7-1.1,0.7-2.5,0.7-4c0-18.4-0.1-36.9-2.7-55.1c-5.5-38.3-18.6-74.1-37-108.1
	c-20-37.1-46.2-69.3-77.8-97c-37.2-32.7-79.7-56.4-127.1-70.9c-15.1-4.6-30.3-9.1-46.1-10.4c-30.2-2.6-60.4-3-90.7-1.5
	c-10.9,0.6-21.8,0.9-32.6,3c-36.4,7-70.6,19.7-103.1,37.6c-36.1,19.9-67.3,46-94.4,76.7c-23.6,26.7-42.5,56.6-56.4,89.3
	c-11.1,25.9-20.3,52.5-23.4,80.8c-1.1,9.7-0.7,19.5-2.3,29.1c0,2.3,0,4.5,0,6.8c0,0.9,0,1.8,0,2.7c0,2.3,0,4.5,0,6.8
	c0,3.2,0,6.3,0,9.5c0,1.4,0,2.7,0,4.1c0,3.2,0,6.3,0,9.5c0,2.7,0,5.4,0,8.1c0,4.1,0,8.1,0,12.2c0.9,0.9,0.6,2.1,0.7,3.2
	c1.1,13.3,0.9,26.8,3.7,40c7,33.3,18.9,64.7,35.1,94.6c20.1,37.1,46.6,69,78,96.7c31.9,28.1,68.2,49.2,108.1,63.9
	c20.7,7.6,41.7,14.4,63.9,16.1c9.5,0.7,19,0.7,28.5,2.2c3.6,0,7.2,0,10.8,0c2.7,0,5.4,0,8.1,0c6.3,0,12.6,0,18.9,0
	c2.3,0,4.5,0,6.8,0c3.6,0,7.2,0,10.8,0c1.6-1.2,3.5-0.5,5.2-0.7c13.6-1.1,27.2-0.8,40.6-3.7c32.3-7,63.1-18.2,92.3-33.8
	c41.2-21.9,76.5-51.1,105.5-87.2c47.5-59.2,76.1-126,76.3-203.1C886.6,552.6,887.6,546.7,885.9,541z"/>
<g class="st1">
	<path class="st2" d="M749.3,40.3c28.4,7,52.9,20.1,70.8,44.1c28.4,38.2,29.9,89.4,3.7,129c-25.9,39.2-73.6,58.3-119.1,47.7
		c-46.1-10.7-80.5-49.1-86.1-96.2c-6.7-55.8,28.2-107.1,82.7-121.8c3.1-0.8,6.1-1.9,9.2-2.9C723.5,40.3,736.4,40.3,749.3,40.3z"/>
	<path class="st2" d="M625.3,460.2C609,482,594.4,504.3,581,527.4c-10.7,18.5-20,37.7-28.4,57.3c-6.3,14.6-15.4,26.1-31.4,30.6
		c-5.7,1.6-7.5,6.8-10,11.2C471,697,430.9,767.5,390.7,838c-22.4,39.3-44.7,78.7-67.3,117.9c-3.2,5.5-3.9,9.8-0.9,16
		c9,18.5,4.8,38.5-9.7,51.3c-14.7,12.9-35.9,14.8-52.3,4.6c-16.6-10.4-23.9-29.6-18-49.9c1.9-6.6-0.2-9.2-5.5-12.1
		c-14-7.5-27.7-15.3-41.5-23.2c-17.7-10.1-20.2-18.8-10.2-36.5c31.3-55.5,62.7-110.8,94.1-166.2c13.5-23.9,27-47.8,40.5-71.8
		c9.7-17.2,19.5-19.9,36.6-10.3c20,11.2,40.1,22.3,59.9,33.8c5.8,3.4,8.9,2.9,12.2-3c14.7-26.6,29.6-53.1,44.5-79.5
		c2.3-4,2.7-7.5-0.1-11.7c-9.9-14.8-9.4-30.3-2.7-46.2C494.7,493.3,528,440.8,566,391c24-31.4,49.6-61.3,77.5-89.2
		c42.7-42.7,100.5-46.4,148.4-9.2c24.2,18.8,46.8,39.8,70.8,58.9c36.2,28.6,74.5,53.7,119.9,65.7c10.9,2.9,22.3,3.9,33.2,6.8
		c20.3,5.4,34.5,26.6,32,46.3c-3,23.2-21.1,39.8-43.9,39.9c-12.6,0-25.1-2.5-37.4-4.6c-45.8-8-88.6-23.5-126.3-51.4
		c-1.7-1.3-3.7-3.9-5.7-1.9c-1.2,1.2-1.1,4.3-0.9,6.4c2.1,24.8,4.6,49.5,6.5,74.3c1.7,21.9,4.7,43.7,5.1,65.7
		c0.3,15.4-3.5,29.5-12,42.2c-3.9,5.8-3.4,10.3,0,15.9c57.3,94.4,105.6,193.4,150.7,294c16.2,36.1,0.8,71.8-35.4,81.8
		c-25.9,7.1-52.3-5.4-64.9-31.6c-12.5-25.9-23.9-52.3-36.2-78.3c-30.4-63.8-62.1-126.7-98-187.4c-5.4-9.2-6-9.2-11.3,0.3
		c-36.4,65.6-70,132.6-104.8,199c-12,22.9-24,45.8-36.7,68.3c-14.5,25.7-41,36.9-66.3,29.2c-33.4-10.2-50-47.2-33.7-78.9
		c17.1-33.3,36.1-65.7,54.2-98.6c34.4-62.6,68.7-125.2,103.3-187.7c3.9-7,4.7-12.1-0.8-18.9c-10.2-12.8-13.4-28.5-14.8-44.4
		c-4.1-47-8-93.9-12.1-140.9C626.4,462.1,626,461.6,625.3,460.2z M296.7,991.9c-0.2-7.8-6.8-14.1-14.5-13.8
		c-7.8,0.3-13.7,6.9-13.4,14.9c0.3,7.5,6.3,13,14,13C290.9,1006,296.9,999.8,296.7,991.9z"/>
</g>
<g>
	<path class="st3" d="M235.5,528.5c0-2,0-4,0-5.9c0.7-0.8,0.7-1.6,0-2.4c0-2,0-4,0-5.9c1.5-8.5,1.1-17.1,2-25.6
		c2.7-24.8,10.8-48.2,20.5-70.9c12.3-28.8,28.9-55,49.5-78.4c23.8-27,51.2-49.9,82.9-67.4c28.5-15.7,58.5-26.8,90.5-33
		c9.5-1.8,19-2.1,28.6-2.6c26.6-1.4,53.1-1,79.6,1.3c13.8,1.2,27.2,5.1,40.4,9.2c41.7,12.7,78.9,33.5,111.6,62.2
		c27.7,24.3,50.7,52.6,68.3,85.1c16.1,29.9,27.7,61.3,32.5,94.9c2.3,16,2.4,32.2,2.3,48.4c0,1.8,0.1,3.6-1.9,4.6
		c-4.6,1.9-9.4,1.2-14.1,1.2c-148.2,0-296.4,0-444.6,0c-45.5,0-91,0-136.5-0.1c-4,0-8.5,1-11.6-2.8c0-1.2,0-2.4,0-3.6
		C236.5,534,236.5,531.3,235.5,528.5z"/>
	<path class="st4" d="M235.5,540.4c202.7,0,405.3,0,608,0c1.7,5.2,0.7,10.5,0.7,15.7c-0.2,67.7-25.3,126.4-67,178.3
		c-25.5,31.7-56.5,57.3-92.6,76.6c-25.7,13.7-52.6,23.6-81,29.7c-11.7,2.5-23.8,2.3-35.6,3.2c-1.5,0.1-3.2-0.5-4.6,0.6
		c-3.2,0-6.3,0-9.5,0c-2-0.9-4-0.9-5.9,0c-5.5,0-11.1,0-16.6,0c-2.4-0.9-4.8-0.9-7.1,0c-3.2,0-6.3,0-9.5,0c-8.3-1.3-16.7-1.3-25-1.9
		c-19.5-1.5-37.9-7.4-56.1-14.1c-35-12.9-66.9-31.4-94.9-56.1C311,748,287.8,720,270.1,687.4c-14.2-26.3-24.6-53.9-30.8-83.1
		c-2.4-11.5-2.3-23.4-3.2-35.1c-0.1-1,0.2-2-0.6-2.8c0-3.6,0-7.1,0-10.7c0.9-2.4,0.9-4.8,0-7.1C235.5,545.9,235.5,543.1,235.5,540.4
		z"/>
	<path class="st5" d="M235.5,528.5c1.7,2.8,1.6,5.5,0,8.3C235.5,534,235.5,531.3,235.5,528.5z"/>
	<path class="st6" d="M235.5,548.7c1.5,2.4,1.7,4.8,0,7.1C235.5,553.4,235.5,551.1,235.5,548.7z"/>
	<path class="st7" d="M524.1,844.4c2.4-1.7,4.8-1.5,7.1,0C528.9,844.4,526.5,844.4,524.1,844.4z"/>
	<path class="st8" d="M547.9,844.4c2-1.4,4-1.6,5.9,0C551.9,844.4,549.9,844.4,547.9,844.4z"/>
	<path class="st9" d="M235.5,520.2c1.3,0.8,1.1,1.6,0,2.4C235.5,521.8,235.5,521,235.5,520.2z"/>
</g>
</svg>
