<?xml version="1.0" encoding="utf-8"?>
<!-- Generator: Adobe Illustrator 28.2.0, SVG Export Plug-In . SVG Version: 6.00 Build 0)  -->
<svg version="1.1" id="Шар_1" xmlns="http://www.w3.org/2000/svg" xmlns:xlink="http://www.w3.org/1999/xlink" x="0px" y="0px"
	 viewBox="0 0 1080 1080" style="enable-background:new 0 0 1080 1080;" xml:space="preserve">
<style type="text/css">
	.st0{display:none;}
	.st1{display:inline;fill:#00A43C;}
	.st2{fill-rule:evenodd;clip-rule:evenodd;fill:#FFFFFF;filter:url(#Adobe_OpacityMaskFilter);}
	.st3{mask:url(#mask0_00000109021902556736988810000010985620760921271726_);}
	.st4{fill:#0065A9;}
	.st5{fill:#007ACC;}
	.st6{fill:#1F9CF0;}
	.st7{opacity:0.25;}
	.st8{fill-rule:evenodd;clip-rule:evenodd;fill:url(#SVGID_1_);}
</style>
<g class="st0">
	<path class="st1" d="M749.3,40.3c28.4,7,52.9,20.1,70.8,44.1c28.4,38.2,29.9,89.4,3.7,129c-25.9,39.2-73.6,58.3-119.1,47.7
		c-46.1-10.7-80.5-49.1-86.1-96.2c-6.7-55.8,28.2-107.1,82.7-121.8c3.1-0.8,6.1-1.9,9.2-2.9C723.5,40.3,736.4,40.3,749.3,40.3z"/>
	<path class="st1" d="M625.3,460.2C609,482,594.4,504.3,581,527.4c-10.7,18.5-20,37.7-28.4,57.3c-6.3,14.6-15.4,26.1-31.4,30.6
		c-5.7,1.6-7.5,6.8-10,11.2C471,697,430.9,767.5,390.7,838c-22.4,39.3-44.7,78.7-67.3,117.9c-3.2,5.5-3.9,9.8-0.9,16
		c9,18.5,4.8,38.5-9.7,51.3c-14.7,12.9-35.9,14.8-52.3,4.6c-16.6-10.4-23.9-29.6-18-49.9c1.9-6.6-0.2-9.2-5.5-12.1
		c-14-7.5-27.7-15.3-41.5-23.2c-17.7-10.1-20.2-18.8-10.2-36.5c31.3-55.5,62.7-110.8,94.1-166.2c13.5-23.9,27-47.8,40.5-71.8
		c9.7-17.2,19.5-19.9,36.6-10.3c20,11.2,40.1,22.3,59.9,33.8c5.8,3.4,8.9,2.9,12.2-3c14.7-26.6,29.6-53.1,44.5-79.5
		c2.3-4,2.7-7.5-0.1-11.7c-9.9-14.8-9.4-30.3-2.7-46.2C494.7,493.3,528,440.8,566,391c24-31.4,49.6-61.3,77.5-89.2
		c42.7-42.7,100.5-46.4,148.4-9.2c24.2,18.8,46.8,39.8,70.8,58.9c36.2,28.6,74.5,53.7,119.9,65.7c10.9,2.9,22.3,3.9,33.2,6.8
		c20.3,5.4,34.5,26.6,32,46.3c-3,23.2-21.1,39.8-43.9,39.9c-12.6,0-25.1-2.5-37.4-4.6c-45.8-8-88.6-23.5-126.3-51.4
		c-1.7-1.3-3.7-3.9-5.7-1.9c-1.2,1.2-1.1,4.3-0.9,6.4c2.1,24.8,4.6,49.5,6.5,74.3c1.7,21.9,4.7,43.7,5.1,65.7
		c0.3,15.4-3.5,29.5-12,42.2c-3.9,5.8-3.4,10.3,0,15.9c57.3,94.4,105.6,193.4,150.7,294c16.2,36.1,0.8,71.8-35.4,81.8
		c-25.9,7.1-52.3-5.4-64.9-31.6c-12.5-25.9-23.9-52.3-36.2-78.3c-30.4-63.8-62.1-126.7-98-187.4c-5.4-9.2-6-9.2-11.3,0.3
		c-36.4,65.6-70,132.6-104.8,199c-12,22.9-24,45.8-36.7,68.3c-14.5,25.7-41,36.9-66.3,29.2c-33.4-10.2-50-47.2-33.7-78.9
		c17.1-33.3,36.1-65.7,54.2-98.6c34.4-62.6,68.7-125.2,103.3-187.7c3.9-7,4.7-12.1-0.8-18.9c-10.2-12.8-13.4-28.5-14.8-44.4
		c-4.1-47-8-93.9-12.1-140.9C626.4,462.1,626,461.6,625.3,460.2z M296.7,991.9c-0.2-7.8-6.8-14.1-14.5-13.8
		c-7.8,0.3-13.7,6.9-13.4,14.9c0.3,7.5,6.3,13,14,13C290.9,1006,296.9,999.8,296.7,991.9z"/>
</g>
<defs>
	<filter id="Adobe_OpacityMaskFilter" filterUnits="userSpaceOnUse" x="181.1" y="183.2" width="717.7" height="713.6">
		<feColorMatrix  type="matrix" values="1 0 0 0 0  0 1 0 0 0  0 0 1 0 0  0 0 0 1 0"/>
	</filter>
</defs>
<mask maskUnits="userSpaceOnUse" x="181.1" y="183.2" width="717.7" height="713.6" id="mask0_00000109021902556736988810000010985620760921271726_">
	<path class="st2" d="M690.2,893.7c11.3,4.4,24.2,4.1,35.6-1.4l147.7-71.1c15.5-7.5,25.4-23.2,25.4-40.4V299.1
		c0-17.2-9.9-32.9-25.4-40.4l-147.7-71.1c-15-7.2-32.5-5.4-45.6,4.1c-1.9,1.4-3.7,2.9-5.3,4.6L392.1,454.2L269,360.8
		c-11.5-8.7-27.5-8-38.1,1.7l-39.5,35.9c-13,11.8-13,32.3,0,44.2L298.1,540l-106.8,97.4c-13,11.9-13,32.4,0,44.2l39.5,35.9
		c10.6,9.7,26.7,10.4,38.1,1.7l123.1-93.5l282.7,257.9C679.3,888.2,684.6,891.5,690.2,893.7z M719.6,377.2L505.1,540l214.5,162.8
		V377.2z"/>
</mask>
<g class="st3">
	<path class="st4" d="M873.5,258.8l-147.8-71.2c-17.1-8.2-37.6-4.8-51,8.7L190.9,637.4c-13,11.9-13,32.4,0,44.2l39.5,35.9
		c10.7,9.7,26.7,10.4,38.2,1.7l582.6-442c19.5-14.8,47.6-0.9,47.6,23.6v-1.7C898.9,282,889,266.3,873.5,258.8z"/>
	<g>
		<path class="st5" d="M873.5,821.2l-147.8,71.2c-17.1,8.2-37.6,4.8-51-8.7L190.9,442.6c-13-11.9-13-32.4,0-44.2l39.5-35.9
			c10.7-9.7,26.7-10.4,38.2-1.7l582.6,442c19.5,14.8,47.6,0.9,47.6-23.6v1.7C898.9,798,889,813.7,873.5,821.2z"/>
	</g>
	<g>
		<path class="st6" d="M725.7,892.4c-17.1,8.2-37.6,4.7-51-8.7c16.5,16.5,44.8,4.8,44.8-18.6V214.9c0-23.4-28.3-35.1-44.8-18.6
			c13.4-13.4,33.9-16.9,51-8.7l147.8,71.1c15.5,7.5,25.4,23.2,25.4,40.4v481.8c0,17.2-9.9,32.9-25.4,40.4L725.7,892.4z"/>
	</g>
	<g class="st7">
		
			<linearGradient id="SVGID_1_" gradientUnits="userSpaceOnUse" x1="539.782" y1="894.6755" x2="539.782" y2="181.1044" gradientTransform="matrix(1 0 0 -1 0 1077.8899)">
			<stop  offset="0" style="stop-color:#FFFFFF"/>
			<stop  offset="1" style="stop-color:#FFFFFF;stop-opacity:0"/>
		</linearGradient>
		<path class="st8" d="M689.8,893.7c11.3,4.4,24.2,4.1,35.6-1.4L873,821.3c15.5-7.5,25.4-23.2,25.4-40.4V299.1
			c0-17.2-9.9-32.9-25.4-40.4l-147.7-71.1c-15-7.2-32.5-5.4-45.6,4.1c-1.9,1.4-3.7,2.9-5.3,4.6L391.7,454.2l-123.1-93.5
			c-11.5-8.7-27.5-8-38.1,1.7l-39.5,35.9c-13,11.8-13,32.3,0,44.2L297.7,540l-106.8,97.4c-13,11.9-13,32.4,0,44.2l39.5,35.9
			c10.6,9.7,26.7,10.4,38.1,1.7l123.1-93.5l282.7,257.9C678.9,888.2,684.1,891.5,689.8,893.7z M719.2,377.2L504.7,540l214.5,162.8
			V377.2z"/>
	</g>
</g>
</svg>
