<?xml version="1.0" encoding="utf-8"?>
<!-- Generator: Adobe Illustrator 28.2.0, SVG Export Plug-In . SVG Version: 6.00 Build 0)  -->
<svg version="1.1" id="Шар_1" xmlns="http://www.w3.org/2000/svg" xmlns:xlink="http://www.w3.org/1999/xlink" x="0px" y="0px"
	 viewBox="0 0 1080 1080" style="enable-background:new 0 0 1080 1080;" xml:space="preserve">
<style type="text/css">
	.st0{display:none;}
	.st1{display:inline;fill:#00A43C;}
	.st2{clip-path:url(#SVGID_00000145031571758461369870000003303186222743049407_);}
	.st3{clip-path:url(#SVGID_00000051374043098224411070000014610781911121547180_);}
	.st4{fill:#FFFFFF;filter:url(#Adobe_OpacityMaskFilter);}
	.st5{fill:#FFFFFF;}
	.st6{mask:url(#mask0_00000012437960304791268040000015506199714899201412_);}
	.st7{fill:#5E438F;}
	.st8{fill:url(#SVGID_00000148649586884509715580000007428002655661555623_);}
	.st9{fill:url(#SVGID_00000163055470530858936480000002010606878082359723_);}
	.st10{fill:url(#SVGID_00000060003798852578232340000009568801425868275111_);}
</style>
<g class="st0">
	<path class="st1" d="M749.3,40.3c28.4,7,52.9,20.1,70.8,44.1c28.4,38.2,29.9,89.4,3.7,129c-25.9,39.2-73.6,58.3-119.1,47.7
		c-46.1-10.7-80.5-49.1-86.1-96.2c-6.7-55.8,28.2-107.1,82.7-121.8c3.1-0.8,6.1-1.9,9.2-2.9C723.5,40.3,736.4,40.3,749.3,40.3z"/>
	<path class="st1" d="M625.3,460.2C609,482,594.4,504.3,581,527.4c-10.7,18.5-20,37.7-28.4,57.3c-6.3,14.6-15.4,26.1-31.4,30.6
		c-5.7,1.6-7.5,6.8-10,11.2C471,697,430.9,767.5,390.7,838c-22.4,39.3-44.7,78.7-67.3,117.9c-3.2,5.5-3.9,9.8-0.9,16
		c9,18.5,4.8,38.5-9.7,51.3c-14.7,12.9-35.9,14.8-52.3,4.6c-16.6-10.4-23.9-29.6-18-49.9c1.9-6.6-0.2-9.2-5.5-12.1
		c-14-7.5-27.7-15.3-41.5-23.2c-17.7-10.1-20.2-18.8-10.2-36.5c31.3-55.5,62.7-110.8,94.1-166.2c13.5-23.9,27-47.8,40.5-71.8
		c9.7-17.2,19.5-19.9,36.6-10.3c20,11.2,40.1,22.3,59.9,33.8c5.8,3.4,8.9,2.9,12.2-3c14.7-26.6,29.6-53.1,44.5-79.5
		c2.3-4,2.7-7.5-0.1-11.7c-9.9-14.8-9.4-30.3-2.7-46.2C494.7,493.3,528,440.8,566,391c24-31.4,49.6-61.3,77.5-89.2
		c42.7-42.7,100.5-46.4,148.4-9.2c24.2,18.8,46.8,39.8,70.8,58.9c36.2,28.6,74.5,53.7,119.9,65.7c10.9,2.9,22.3,3.9,33.2,6.8
		c20.3,5.4,34.5,26.6,32,46.3c-3,23.2-21.1,39.8-43.9,39.9c-12.6,0-25.1-2.5-37.4-4.6c-45.8-8-88.6-23.5-126.3-51.4
		c-1.7-1.3-3.7-3.9-5.7-1.9c-1.2,1.2-1.1,4.3-0.9,6.4c2.1,24.8,4.6,49.5,6.5,74.3c1.7,21.9,4.7,43.7,5.1,65.7
		c0.3,15.4-3.5,29.5-12,42.2c-3.9,5.8-3.4,10.3,0,15.9c57.3,94.4,105.6,193.4,150.7,294c16.2,36.1,0.8,71.8-35.4,81.8
		c-25.9,7.1-52.3-5.4-64.9-31.6c-12.5-25.9-23.9-52.3-36.2-78.3c-30.4-63.8-62.1-126.7-98-187.4c-5.4-9.2-6-9.2-11.3,0.3
		c-36.4,65.6-70,132.6-104.8,199c-12,22.9-24,45.8-36.7,68.3c-14.5,25.7-41,36.9-66.3,29.2c-33.4-10.2-50-47.2-33.7-78.9
		c17.1-33.3,36.1-65.7,54.2-98.6c34.4-62.6,68.7-125.2,103.3-187.7c3.9-7,4.7-12.1-0.8-18.9c-10.2-12.8-13.4-28.5-14.8-44.4
		c-4.1-47-8-93.9-12.1-140.9C626.4,462.1,626,461.6,625.3,460.2z M296.7,991.9c-0.2-7.8-6.8-14.1-14.5-13.8
		c-7.8,0.3-13.7,6.9-13.4,14.9c0.3,7.5,6.3,13,14,13C290.9,1006,296.9,999.8,296.7,991.9z"/>
</g>
<g>
	<defs>
		<rect id="SVGID_1_" x="172.9" y="172.9" width="734.2" height="734.2"/>
	</defs>
	<clipPath id="SVGID_00000144325568881944721680000005147455273222980270_">
		<use xlink:href="#SVGID_1_"  style="overflow:visible;"/>
	</clipPath>
	<g style="clip-path:url(#SVGID_00000144325568881944721680000005147455273222980270_);">
		<g>
			<defs>
				<rect id="SVGID_00000132054758405719327420000012246249921253366962_" x="172.9" y="172.9" width="734.2" height="734.2"/>
			</defs>
			<clipPath id="SVGID_00000095308484209735335280000013597460339263492023_">
				<use xlink:href="#SVGID_00000132054758405719327420000012246249921253366962_"  style="overflow:visible;"/>
			</clipPath>
			<g style="clip-path:url(#SVGID_00000095308484209735335280000013597460339263492023_);">
				<defs>
					<filter id="Adobe_OpacityMaskFilter" filterUnits="userSpaceOnUse" x="172.9" y="172.9" width="734.2" height="734.2">
						<feColorMatrix  type="matrix" values="1 0 0 0 0  0 1 0 0 0  0 0 1 0 0  0 0 0 1 0"/>
					</filter>
				</defs>
				
					<mask maskUnits="userSpaceOnUse" x="172.9" y="172.9" width="734.2" height="734.2" id="mask0_00000012437960304791268040000015506199714899201412_">
					<path class="st4" d="M307.5,793.9l-122.4-91.8c-3.8-2.8-6.9-6.5-9-10.8c-2.1-4.3-3.2-8.9-3.2-13.7V402.3
						c0-4.8,1.1-9.4,3.2-13.7c2.1-4.3,5.2-7.9,9-10.8l122.4-91.8c-3.3,3.1-5.8,6.9-7.2,11.2c-1.5,4.3-1.9,8.8-1.2,13.3v458.9
						c-0.7,4.5-0.3,9,1.2,13.3C301.7,787,304.2,790.8,307.5,793.9z"/>
					<path class="st5" d="M893.5,300.3c-5-3.3-10.9-5.1-17-5c-3.9,0-7.8,0.7-11.4,2.2c-3.6,1.5-6.9,3.6-9.7,6.4l-2.1,2.1L609.1,540
						L474.1,669.6l-125,119.8l-2.1,2.1c-2.8,2.7-6.1,4.9-9.7,6.4c-3.6,1.5-7.5,2.2-11.4,2.2c-6.6,0-13.1-2.2-18.4-6.1l-122.4-91.8
						c6.2,4.7,14,6.8,21.7,5.9s14.8-4.6,19.9-10.5l135.8-157.7l111.5-129.4l195.3-226.8c2.8-3.4,6.4-6.1,10.4-7.9s8.3-2.8,12.7-2.8
						c6,0,11.9,1.7,17,5L893.5,300.3z"/>
					<path class="st5" d="M893.5,779.7L709.9,902c-6.2,4.1-13.8,5.8-21.1,4.8c-7.4-1-14.2-4.7-19.1-10.3l-195.6-227L362.6,539.9
						L226.7,382.3c-5.1-5.9-12.2-9.6-19.9-10.4c-7.7-0.8-15.5,1.3-21.7,6l122.4-91.8c5.3-4,11.7-6.1,18.4-6.1
						c3.9,0,7.8,0.7,11.4,2.2c3.6,1.5,6.9,3.6,9.7,6.4l2.1,2.1l125,119.8L609.1,540l244.1,234l2.1,2.1c2.8,2.7,6.1,4.9,9.7,6.4
						c3.6,1.5,7.5,2.2,11.4,2.2C882.5,784.7,888.4,783,893.5,779.7z"/>
					<path class="st5" d="M907.1,325.9v428.3c0,5-1.2,10-3.6,14.5c-2.4,4.5-5.8,8.3-10,11.1L709.9,902c4.2-2.8,7.6-6.6,10-11.1
						c2.4-4.5,3.6-9.4,3.6-14.5v-673c-0.1-5.1-1.4-10.1-3.8-14.5c-2.5-4.5-6-8.2-10.2-11l184,122.4c4.2,2.8,7.6,6.6,10,11.1
						C905.8,315.9,907.1,320.8,907.1,325.9z"/>
				</mask>
				<g class="st6">
					<path class="st7" d="M307.5,793.9l-122.4-91.8c-3.8-2.8-6.9-6.5-9-10.8c-2.1-4.3-3.2-8.9-3.2-13.7V402.3
						c0-4.8,1.1-9.4,3.2-13.7c2.1-4.3,5.2-7.9,9-10.8l122.4-91.8c-3.3,3.1-5.8,6.9-7.2,11.2c-1.5,4.3-1.9,8.8-1.2,13.3v458.9
						c-0.7,4.5-0.3,9,1.2,13.3C301.7,787,304.2,790.8,307.5,793.9z"/>
					<g>
						
							<linearGradient id="SVGID_00000029732924265015470490000018170734544620498339_" gradientUnits="userSpaceOnUse" x1="809.9625" y1="864.7042" x2="264.7998" y2="316.0108" gradientTransform="matrix(1 0 0 -1 0 1077.8899)">
							<stop  offset="0" style="stop-color:#7252AA"/>
							<stop  offset="1" style="stop-color:#7252AA"/>
						</linearGradient>
						<path style="fill:url(#SVGID_00000029732924265015470490000018170734544620498339_);" d="M893.5,300.3c-5-3.3-10.9-5.1-17-5
							c-3.9,0-7.8,0.7-11.4,2.2c-3.6,1.5-6.9,3.6-9.7,6.4l-2.1,2.1l-130,124.7L609.1,540L474.1,669.6l-125,119.8l-2.1,2.1
							c-2.8,2.7-6.1,4.9-9.7,6.4c-3.6,1.5-7.5,2.2-11.4,2.2c-6.6,0-13.1-2.2-18.4-6.1l-122.4-91.8c6.2,4.7,14,6.8,21.7,5.9
							s14.8-4.6,19.9-10.5l68.5-79.5l67.3-78.2l111.5-129.4l195.3-226.8c2.8-3.4,6.4-6.1,10.4-7.9c4-1.8,8.3-2.8,12.7-2.8
							c6,0,11.9,1.7,17,5L893.5,300.3z"/>
					</g>
					<g>
						
							<linearGradient id="SVGID_00000031179419716070153710000012383426040742646163_" gradientUnits="userSpaceOnUse" x1="272.0804" y1="798.2517" x2="784.472" y2="224.68" gradientTransform="matrix(1 0 0 -1 0 1077.8899)">
							<stop  offset="0" style="stop-color:#AE7FE2"/>
							<stop  offset="1" style="stop-color:#9A70D4"/>
						</linearGradient>
						<path style="fill:url(#SVGID_00000031179419716070153710000012383426040742646163_);" d="M893.5,779.7L709.9,902
							c-6.2,4.1-13.7,5.8-21.1,4.8s-14.2-4.7-19.1-10.3l-195.6-227L362.6,539.9l-67.3-78l-68.5-79.5c-5.1-5.9-12.2-9.6-19.9-10.4
							c-7.7-0.8-15.5,1.3-21.7,6l122.4-91.8c5.3-4,11.7-6.1,18.4-6.1c3.9,0,7.8,0.7,11.4,2.2c3.6,1.5,6.9,3.6,9.7,6.4l2.1,2.1
							l125,119.8L609.1,540l114.3,109.5L853.3,774l2.1,2.1c2.8,2.7,6.1,4.9,9.7,6.4c3.6,1.5,7.5,2.2,11.4,2.2
							C882.5,784.7,888.4,783,893.5,779.7z"/>
					</g>
					<g>
						
							<linearGradient id="SVGID_00000124854583767497870510000009403019740253874071_" gradientUnits="userSpaceOnUse" x1="808.2795" y1="914.6967" x2="808.2795" y2="176.4656" gradientTransform="matrix(1 0 0 -1 0 1077.8899)">
							<stop  offset="0" style="stop-color:#D59DFF"/>
							<stop  offset="1" style="stop-color:#C18EF1"/>
						</linearGradient>
						<path style="fill:url(#SVGID_00000124854583767497870510000009403019740253874071_);" d="M907.1,325.9v428.3
							c0,5.1-1.2,10-3.6,14.5c-2.4,4.5-5.8,8.3-10,11.1L709.9,902c4.2-2.8,7.6-6.6,10-11.1c2.4-4.5,3.6-9.4,3.6-14.5v-673
							c-0.1-5.1-1.4-10.1-3.8-14.5c-2.5-4.5-6-8.2-10.2-11l184,122.4c4.2,2.8,7.6,6.6,10,11.1C905.8,315.8,907.1,320.8,907.1,325.9z
							"/>
					</g>
				</g>
			</g>
		</g>
	</g>
</g>
</svg>
